<?xml version="1.0" standalone="no"?>
<!DOCTYPE svg PUBLIC "-//W3C//DTD SVG 1.1//EN" "http://www.w3.org/Graphics/SVG/1.1/DTD/svg11.dtd" >
<svg>
<metadata>
Created by FontForge 20090622 at Mon Dec 18 12:25:57 2017
 By deploy user
Copyright  2010 by Ryoichi Tsunekawa &#38; LGV (GE). All rights reserved.
</metadata>
<defs>
<font id="BebasNeue-Book" horiz-adv-x="400" >
  <font-face 
    font-family="Bebas Neue Book"
    font-weight="400"
    font-stretch="normal"
    units-per-em="1000"
    panose-1="0 0 5 0 0 0 0 0 0 0"
    ascent="750"
    descent="-250"
    x-height="700"
    cap-height="700"
    bbox="-24 -179 814 880"
    underline-thickness="50"
    underline-position="-60"
    unicode-range="U+0020-U+F6C3"
  />
<missing-glyph horiz-adv-x="548" 
d="M50 700h448v-700h-448v700zM251 360l-127 -291h34l114 262l115 -262h38l-127 291l118 270h-33l-107 -242l-107 242h-37z" />
    <glyph glyph-name=".notdef" horiz-adv-x="548" 
d="M50 700h448v-700h-448v700zM251 360l-127 -291h34l114 262l115 -262h38l-127 291l118 270h-33l-107 -242l-107 242h-37z" />
    <glyph glyph-name="NULL" horiz-adv-x="0" 
 />
    <glyph glyph-name="nonmarkingreturn" horiz-adv-x="155" 
 />
    <glyph glyph-name="space" unicode=" " horiz-adv-x="155" 
 />
    <glyph glyph-name="Acircumflex" unicode="&#xc2;" horiz-adv-x="422" 
d="M145 737h-43l84 90h40l85 -90h-44l-61 63zM97 155l-35 -155h-42l153 701h67l156 -701h-46l-35 155h-218zM104 195h204l-103 453z" />
    <glyph glyph-name="Adieresis" unicode="&#xc4;" horiz-adv-x="422" 
d="M178 821v-84h-41v84h41zM275 821v-84h-41v84h41zM97 155l-35 -155h-42l153 701h67l156 -701h-46l-35 155h-218zM104 195h204l-103 453z" />
    <glyph glyph-name="Agrave" unicode="&#xc0;" horiz-adv-x="422" 
d="M175 832l71 -95h-36l-85 95h50zM97 155l-35 -155h-42l153 701h67l156 -701h-46l-35 155h-218zM104 195h204l-103 453z" />
    <glyph glyph-name="Amacron" unicode="&#x100;" horiz-adv-x="422" 
d="M304 793v-33h-195v33h195zM97 155l-35 -155h-42l153 701h67l156 -701h-46l-35 155h-218zM104 195h204l-103 453z" />
    <glyph glyph-name="Aogonek" unicode="&#x104;" horiz-adv-x="448" 
d="M387 0q-23 -18 -37 -40q-12 -19 -12 -36v-5q1 -17 13 -23t27 -6q14 0 24.5 3.5t19.5 9.5v-30q-25 -13 -56 -13q-27 1 -45 13t-19 38v3q0 22 13 43q13 23 35 41l-35 157h-218l-35 -155h-42l153 701h67l156 -701h-9zM104 195h204l-103 453z" />
    <glyph glyph-name="Aring" unicode="&#xc5;" horiz-adv-x="422" 
d="M206 872q28 0 47.5 -19t19.5 -47q0 -29 -19.5 -48t-47.5 -19q-29 0 -48 19t-19 48q0 28 19 47t48 19zM206 847q-18 0 -30.5 -11.5t-12.5 -29.5q0 -19 12.5 -30.5t30.5 -11.5q17 0 30 11.5t13 30.5q0 18 -13 29.5t-30 11.5zM97 155l-35 -155h-42l153 701h67l156 -701h-46
l-35 155h-218zM104 195h204l-103 453z" />
    <glyph glyph-name="Atilde" unicode="&#xc3;" horiz-adv-x="422" 
d="M160 814q14 0 26 -5.5t23.5 -12t22 -11.5t21.5 -5q13 1 21.5 9t15.5 22l25 -17q-10 -22 -24 -34.5t-34 -12.5h-4q-12 0 -21 5q-12 5 -23 11.5t-22 11.5t-23 5q-26 0 -42 -30l-25 16q21 46 63 48zM97 155l-35 -155h-42l153 701h67l156 -701h-46l-35 155h-218zM104 195h204
l-103 453z" />
    <glyph glyph-name="AE" unicode="&#xc6;" horiz-adv-x="578" 
d="M493 376v-42h-169v-292h204v-42h-250v157h-175l-57 -157h-44l249 700h277v-42h-204v-282h169zM115 198h163v445z" />
    <glyph glyph-name="AEacute" unicode="&#x1fc;" horiz-adv-x="578" 
d="M387 840l-84 -95h-35l71 95h48zM493 376v-42h-169v-292h204v-42h-250v157h-175l-57 -157h-44l249 700h277v-42h-204v-282h169zM115 198h163v445z" />
    <glyph glyph-name="B" unicode="B" horiz-adv-x="462" 
d="M222 700q79 0 111 -38t32 -111v-40q0 -57 -19.5 -92t-72.5 -46q57 -11 81 -50.5t24 -99.5v-61q0 -76 -36 -119t-117 -43h-150v700h147zM199 391q31 0 53.5 5t37.5 17.5t22 34t7 54.5v45q0 55 -21 83t-77 28h-100v-267h78zM225 42q58 0 82.5 31t24.5 90v63q0 68 -31 95.5
t-93 27.5h-87v-307h104z" />
    <glyph glyph-name="C" unicode="C" horiz-adv-x="461" 
d="M226 706q40 0 68.5 -13.5t47 -37t27 -56t8.5 -70.5v-58h-44v61q0 28 -5.5 52t-18.5 42t-33 28t-49 10t-49 -10t-33 -28t-18.5 -42t-5.5 -52v-364q0 -28 5.5 -52t18.5 -41.5t33 -27.5t49 -10t49 10t33 27.5t18.5 41.5t5.5 52v83h44v-80q0 -38 -8.5 -70.5t-27 -56t-47 -37
t-68.5 -13.5t-68.5 13.5t-47 37t-27 56t-8.5 70.5v358q0 38 8.5 70.5t27 56t47 37t68.5 13.5z" />
    <glyph glyph-name="Cacute" unicode="&#x106;" horiz-adv-x="461" 
d="M311 842l-84 -95h-35l71 95h48zM226 706q40 0 68.5 -13.5t47 -37t27 -56t8.5 -70.5v-58h-44v61q0 28 -5.5 52t-18.5 42t-33 28t-49 10t-49 -10t-33 -28t-18.5 -42t-5.5 -52v-364q0 -28 5.5 -52t18.5 -41.5t33 -27.5t49 -10t49 10t33 27.5t18.5 41.5t5.5 52v83h44v-80
q0 -38 -8.5 -70.5t-27 -56t-47 -37t-68.5 -13.5t-68.5 13.5t-47 37t-27 56t-8.5 70.5v358q0 38 8.5 70.5t27 56t47 37t68.5 13.5z" />
    <glyph glyph-name="Ccaron" unicode="&#x10c;" horiz-adv-x="461" 
d="M169 834l62 -64l61 64h43l-84 -90h-40l-84 90h42zM226 706q40 0 68.5 -13.5t47 -37t27 -56t8.5 -70.5v-58h-44v61q0 28 -5.5 52t-18.5 42t-33 28t-49 10t-49 -10t-33 -28t-18.5 -42t-5.5 -52v-364q0 -28 5.5 -52t18.5 -41.5t33 -27.5t49 -10t49 10t33 27.5t18.5 41.5
t5.5 52v83h44v-80q0 -38 -8.5 -70.5t-27 -56t-47 -37t-68.5 -13.5t-68.5 13.5t-47 37t-27 56t-8.5 70.5v358q0 38 8.5 70.5t27 56t47 37t68.5 13.5z" />
    <glyph glyph-name="Ccedilla" unicode="&#xc7;" horiz-adv-x="461" 
d="M226 706q40 0 68.5 -13.5t47 -37t27 -56t8.5 -70.5v-58h-44v61q0 28 -5.5 52t-18.5 42t-33 28t-49 10t-49 -10t-33 -28t-18.5 -42t-5.5 -52v-364q0 -28 5.5 -52t18.5 -41.5t33 -27.5t49 -10t49 10t33 27.5t18.5 41.5t5.5 52v83h44v-80q0 -36 -8 -67.5t-25 -55.5
t-43.5 -38t-63.5 -16v-28q35 -1 55 -15.5t20 -40.5q0 -31 -23 -48q-23 -16 -61 -16h-5q-42 0 -65 16.5t-23 46.5v6h32v-5q0 -17 15 -27t41 -12q27 0 42 10.5t15 29.5q0 17 -15.5 27t-44.5 10h-7v47q-37 2 -63 16t-42.5 37.5t-24.5 55t-8 67.5v358q0 38 8.5 70.5t27 56t47 37
t68.5 13.5z" />
    <glyph glyph-name="Ccircumflex" unicode="&#x108;" horiz-adv-x="461" 
d="M168 743h-43l84 90h40l85 -90h-44l-61 64zM226 706q40 0 68.5 -13.5t47 -37t27 -56t8.5 -70.5v-58h-44v61q0 28 -5.5 52t-18.5 42t-33 28t-49 10t-49 -10t-33 -28t-18.5 -42t-5.5 -52v-364q0 -28 5.5 -52t18.5 -41.5t33 -27.5t49 -10t49 10t33 27.5t18.5 41.5t5.5 52v83
h44v-80q0 -38 -8.5 -70.5t-27 -56t-47 -37t-68.5 -13.5t-68.5 13.5t-47 37t-27 56t-8.5 70.5v358q0 38 8.5 70.5t27 56t47 37t68.5 13.5z" />
    <glyph glyph-name="Cdotaccent" unicode="&#x10a;" horiz-adv-x="461" 
d="M246 824v-84h-41v84h41zM226 706q40 0 68.5 -13.5t47 -37t27 -56t8.5 -70.5v-58h-44v61q0 28 -5.5 52t-18.5 42t-33 28t-49 10t-49 -10t-33 -28t-18.5 -42t-5.5 -52v-364q0 -28 5.5 -52t18.5 -41.5t33 -27.5t49 -10t49 10t33 27.5t18.5 41.5t5.5 52v83h44v-80
q0 -38 -8.5 -70.5t-27 -56t-47 -37t-68.5 -13.5t-68.5 13.5t-47 37t-27 56t-8.5 70.5v358q0 38 8.5 70.5t27 56t47 37t68.5 13.5z" />
    <glyph glyph-name="D" unicode="D" horiz-adv-x="468" 
d="M229 700q40 0 69.5 -12.5t48.5 -35.5t28 -55t9 -71v-352q0 -39 -9 -71t-28 -55t-48.5 -35.5t-69.5 -12.5h-154v700h154zM228 42q59 0 84.5 36t25.5 94v356q0 58 -26 94t-84 36h-107v-616h107z" />
    <glyph glyph-name="Eth" unicode="&#xd0;" horiz-adv-x="480" 
d="M241 700q40 0 69.5 -12.5t48.5 -35.5t28 -55t9 -71v-352q0 -39 -9 -71t-28 -55t-48.5 -35.5t-69.5 -12.5h-154v331h-46v38h46v331h154zM222 331h-89v-289h107q59 0 84.5 36t25.5 94v356q0 58 -26 94t-84 36h-107v-289h89v-38z" />
    <glyph glyph-name="Dcaron" unicode="&#x10e;" horiz-adv-x="468" 
d="M156 830l61 -64l61 64h44l-85 -90h-40l-84 90h43zM229 700q40 0 69.5 -12.5t48.5 -35.5t28 -55t9 -71v-352q0 -39 -9 -71t-28 -55t-48.5 -35.5t-69.5 -12.5h-154v700h154zM228 42q59 0 84.5 36t25.5 94v356q0 58 -26 94t-84 36h-107v-616h107z" />
    <glyph glyph-name="Dcroat" unicode="&#x110;" horiz-adv-x="476" 
d="M237 700q40 0 69.5 -12.5t48.5 -35.5t28 -55t9 -71v-352q0 -39 -9 -71t-28 -55t-48.5 -35.5t-69.5 -12.5h-154v330h-42v38h42v332h154zM219 330h-90v-288h107q59 0 84.5 36t25.5 94v356q0 58 -26 94t-84 36h-107v-290h90v-38z" />
    <glyph glyph-name="E" unicode="E" horiz-adv-x="401" 
d="M312 376v-42h-191v-292h230v-42h-276v700h276v-42h-230v-282h191z" />
    <glyph glyph-name="Eacute" unicode="&#xc9;" horiz-adv-x="401" 
d="M295 835l-84 -95h-35l71 95h48zM312 376v-42h-191v-292h230v-42h-276v700h276v-42h-230v-282h191z" />
    <glyph glyph-name="Ebreve" unicode="&#x114;" horiz-adv-x="401" 
d="M309 832q-2 -42 -29 -65t-69 -23t-68.5 23t-27.5 65h30q1 -31 20.5 -44t45.5 -13q27 0 46.5 13t21.5 44h30zM312 376v-42h-191v-292h230v-42h-276v700h276v-42h-230v-282h191z" />
    <glyph glyph-name="Ecaron" unicode="&#x11a;" horiz-adv-x="401" 
d="M154 831l61 -64l61 64h43l-84 -90h-40l-84 90h43zM312 376v-42h-191v-292h230v-42h-276v700h276v-42h-230v-282h191z" />
    <glyph glyph-name="Ecircumflex" unicode="&#xca;" horiz-adv-x="401" 
d="M151 741h-43l84 90h40l85 -90h-44l-61 64zM312 376v-42h-191v-292h230v-42h-276v700h276v-42h-230v-282h191z" />
    <glyph glyph-name="Edieresis" unicode="&#xcb;" horiz-adv-x="401" 
d="M184 825v-85h-40v85h40zM281 825v-85h-41v85h41zM312 376v-42h-191v-292h230v-42h-276v700h276v-42h-230v-282h191z" />
    <glyph glyph-name="Edotaccent" unicode="&#x116;" horiz-adv-x="401" 
d="M235 827v-85h-41v85h41zM312 376v-42h-191v-292h230v-42h-276v700h276v-42h-230v-282h191z" />
    <glyph glyph-name="Egrave" unicode="&#xc8;" horiz-adv-x="401" 
d="M188 842l71 -95h-37l-84 95h50zM312 376v-42h-191v-292h230v-42h-276v700h276v-42h-230v-282h191z" />
    <glyph glyph-name="Emacron" unicode="&#x112;" horiz-adv-x="401" 
d="M304 796v-34h-188v34h188zM312 376v-42h-191v-292h230v-42h-276v700h276v-42h-230v-282h191z" />
    <glyph glyph-name="Eogonek" unicode="&#x118;" horiz-adv-x="396" 
d="M312 376v-42h-191v-292h230v-42h-22q-19 -15 -33 -38q-13 -21 -13 -39v-3q1 -17 12.5 -24.5t26.5 -7.5q14 0 24.5 3.5t19.5 9.5v-30q-25 -13 -57 -13q-27 1 -44 14t-19 39v3q0 22 15 45q15 24 38 41h-224v700h276v-42h-230v-282h191z" />
    <glyph glyph-name="F" unicode="F" horiz-adv-x="378" 
d="M302 359v-42h-181v-317h-46v700h266v-42h-220v-299h181z" />
    <glyph glyph-name="G" unicode="G" horiz-adv-x="461" 
d="M226 706q40 0 68.5 -13.5t47 -37t27 -56t8.5 -70.5v-52h-44v55q0 28 -5.5 52t-18.5 42t-33 28t-49 10t-49 -10t-33 -28t-18.5 -42t-5.5 -52v-364q0 -28 5.5 -52t18.5 -41.5t33 -27.5t49 -10t49 10t33 27.5t18.5 41.5t5.5 52v151h-93v42h137v-190q0 -38 -8.5 -70.5
t-27 -56t-47 -37t-68.5 -13.5t-68.5 13.5t-47 37t-27 56t-8.5 70.5v358q0 38 8.5 70.5t27 56t47 37t68.5 13.5z" />
    <glyph glyph-name="Gbreve" unicode="&#x11e;" horiz-adv-x="461" 
d="M324 834q-1 -42 -28 -65t-69 -23t-69 23t-28 65h30q2 -31 21 -44t46 -13q26 0 45.5 13t21.5 44h30zM226 706q40 0 68.5 -13.5t47 -37t27 -56t8.5 -70.5v-52h-44v55q0 28 -5.5 52t-18.5 42t-33 28t-49 10t-49 -10t-33 -28t-18.5 -42t-5.5 -52v-364q0 -28 5.5 -52
t18.5 -41.5t33 -27.5t49 -10t49 10t33 27.5t18.5 41.5t5.5 52v151h-93v42h137v-190q0 -38 -8.5 -70.5t-27 -56t-47 -37t-68.5 -13.5t-68.5 13.5t-47 37t-27 56t-8.5 70.5v358q0 38 8.5 70.5t27 56t47 37t68.5 13.5z" />
    <glyph glyph-name="Gcircumflex" unicode="&#x11c;" horiz-adv-x="461" 
d="M166 747h-43l84 90h40l84 -90h-43l-61 64zM226 706q40 0 68.5 -13.5t47 -37t27 -56t8.5 -70.5v-52h-44v55q0 28 -5.5 52t-18.5 42t-33 28t-49 10t-49 -10t-33 -28t-18.5 -42t-5.5 -52v-364q0 -28 5.5 -52t18.5 -41.5t33 -27.5t49 -10t49 10t33 27.5t18.5 41.5t5.5 52v151
h-93v42h137v-190q0 -38 -8.5 -70.5t-27 -56t-47 -37t-68.5 -13.5t-68.5 13.5t-47 37t-27 56t-8.5 70.5v358q0 38 8.5 70.5t27 56t47 37t68.5 13.5z" />
    <glyph glyph-name="Gdotaccent" unicode="&#x120;" horiz-adv-x="461" 
d="M252 828v-85h-40v85h40zM226 706q40 0 68.5 -13.5t47 -37t27 -56t8.5 -70.5v-52h-44v55q0 28 -5.5 52t-18.5 42t-33 28t-49 10t-49 -10t-33 -28t-18.5 -42t-5.5 -52v-364q0 -28 5.5 -52t18.5 -41.5t33 -27.5t49 -10t49 10t33 27.5t18.5 41.5t5.5 52v151h-93v42h137v-190
q0 -38 -8.5 -70.5t-27 -56t-47 -37t-68.5 -13.5t-68.5 13.5t-47 37t-27 56t-8.5 70.5v358q0 38 8.5 70.5t27 56t47 37t68.5 13.5z" />
    <glyph glyph-name="H" unicode="H" horiz-adv-x="470" 
d="M121 329v-329h-46v700h46v-329h218v329h47v-700h-47v329h-218z" />
    <glyph glyph-name="Hbar" unicode="&#x126;" horiz-adv-x="510" 
d="M389 525v-525h-46v329h-218v-329h-46v525h-38v35h38v140h46v-140h218v140h46v-140h37v-35h-37zM343 525h-218v-154h218v154z" />
    <glyph glyph-name="Hcircumflex" unicode="&#x124;" horiz-adv-x="470" 
d="M169 745h-43l84 90h40l85 -90h-44l-61 64zM121 329v-329h-46v700h46v-329h218v329h47v-700h-47v329h-218z" />
    <glyph glyph-name="I" unicode="I" horiz-adv-x="205" 
d="M121 700v-700h-46v700h46z" />
    <glyph glyph-name="IJ" unicode="&#x132;" horiz-adv-x="460" 
d="M121 700v-700h-46v700h46zM376 172q0 -47 -10 -79t-29 -52.5t-45.5 -30t-59.5 -11.5h-21q-10 0 -21 1v42h37q54 4 78.5 33t24.5 94v531h46v-528z" />
    <glyph glyph-name="Iacute" unicode="&#xcd;" horiz-adv-x="233" 
d="M146 836h48l-84 -95h-35zM90 700h46v-700h-46v700z" />
    <glyph glyph-name="Ibreve" unicode="&#x12c;" horiz-adv-x="235" 
d="M196 828q-1 -42 -28 -65.5t-69 -23.5t-69 23.5t-28 65.5h30q2 -31 21.5 -44.5t45.5 -13.5t45.5 13.5t21.5 44.5h30zM76 700h46v-700h-46v700z" />
    <glyph glyph-name="Icircumflex" unicode="&#xce;" horiz-adv-x="249" 
d="M126 830l84 -90h-43l-61 64l-61 -64h-43l84 90h40zM83 700h46v-700h-46v700z" />
    <glyph glyph-name="Idieresis" unicode="&#xcf;" horiz-adv-x="218" 
d="M82 825v-84h-41v84h41zM179 825v-84h-41v84h41zM133 700v-700h-46v700h46z" />
    <glyph glyph-name="Idotaccent" unicode="&#x130;" horiz-adv-x="205" 
d="M118 825v-84h-40v84h40zM121 700v-700h-46v700h46z" />
    <glyph glyph-name="Igrave" unicode="&#xcc;" horiz-adv-x="206" 
d="M2 835h49l71 -95h-36zM66 700h46v-700h-46v700z" />
    <glyph glyph-name="Imacron" unicode="&#x12a;" horiz-adv-x="209" 
d="M170 793v-33h-168v33h168zM109 700v-700h-46v700h46z" />
    <glyph glyph-name="Iogonek" unicode="&#x12e;" horiz-adv-x="220" 
d="M121 0q-20 -17 -32 -39q-12 -20 -12 -38v-3q1 -17 12.5 -24.5t26.5 -7.5q26 0 44 13v-30q-25 -13 -56 -13q-26 1 -44 14t-20 39v3q0 22 12 44q12 23 36 42h-8l1 700h46v-700h-6z" />
    <glyph glyph-name="Itilde" unicode="&#x128;" horiz-adv-x="225" 
d="M220 799q-20 -47 -58 -48q-14 0 -26 5t-23 11.5t-22 11.5t-23 5q-25 0 -41 -30l-25 17q22 47 62 47q15 0 27 -5t23.5 -11.5t22 -11.5t21.5 -5q12 0 21 8.5t16 21.5zM133 700v-700h-46v700h46z" />
    <glyph glyph-name="J" unicode="J" horiz-adv-x="264" 
d="M-6 42q7 -1 14 -1q4 0 7 1q10 0 20 1q50 4 74.5 32.5t24.5 93.5v531h46v-528q0 -92 -38 -130.5t-102 -41.5h-46v42z" />
    <glyph glyph-name="Jcircumflex" unicode="&#x134;" horiz-adv-x="294" 
d="M89 741h-43l84 90h40l85 -90h-44l-61 64zM180 172q0 -92 -38 -130.5t-102 -41.5h-46v42q7 -1 14 -1q4 0 7 1q10 0 20 1q50 4 74.5 32.5t24.5 93.5v531h46v-528z" />
    <glyph glyph-name="K" unicode="K" horiz-adv-x="440" 
d="M169 329l-48 -76v-253h-46v700h46v-370l228 370h48l-200 -326l213 -374h-48z" />
    <glyph glyph-name="L" unicode="L" horiz-adv-x="343" 
d="M75 0v700h46v-658h220v-42h-266z" />
    <glyph glyph-name="Lacute" unicode="&#x139;" horiz-adv-x="343" 
d="M200 835l-84 -95h-35l72 95h47zM75 0v700h46v-658h220v-42h-266z" />
    <glyph glyph-name="Lcaron" unicode="&#x13d;" horiz-adv-x="371" 
d="M75 0v700h46v-658h220v-42h-266zM266 612h-16v88h45v-84l-29 -80h-20z" />
    <glyph glyph-name="Ldot" unicode="&#x13f;" horiz-adv-x="367" 
d="M75 0v700h46v-658h220v-42h-266zM265 397v-88h-45v88h45z" />
    <glyph glyph-name="Lslash" unicode="&#x141;" horiz-adv-x="362" 
d="M140 317v-275h220v-42h-266v268l-53 -49v44l53 49v388h46v-339l96 96v-45z" />
    <glyph glyph-name="M" unicode="M" horiz-adv-x="584" 
d="M310 1h-46l-148 619v-620h-41v700h66l147 -619l146 619h66v-700h-44v622z" />
    <glyph glyph-name="N" unicode="N" horiz-adv-x="471" 
d="M117 0h-42v700h60l210 -591v591h42v-700h-51l-219 624v-624z" />
    <glyph glyph-name="Nacute" unicode="&#x143;" horiz-adv-x="471" 
d="M317 837l-84 -95h-35l72 95h47zM117 1h-42v700h60l210 -591v591h42v-700h-51l-219 624v-624z" />
    <glyph glyph-name="Ncaron" unicode="&#x147;" horiz-adv-x="471" 
d="M171 835l61 -63l61 63h43l-84 -90h-40l-84 90h43zM117 0h-42v700h60l210 -591v591h42v-700h-51l-219 624v-624z" />
    <glyph glyph-name="Ntilde" unicode="&#xd1;" horiz-adv-x="471" 
d="M340 802q-19 -45 -58 -47q-14 0 -25.5 5t-22.5 11.5t-22 11.5t-23 5q-25 0 -42 -30l-24 16q19 46 62 48q14 0 26 -5t23.5 -11.5t22.5 -11.5q8 -5 18 -5h3q13 0 22 8.5t16 21.5zM117 0h-42v700h60l210 -591v591h42v-700h-51l-219 624v-624z" />
    <glyph glyph-name="O" unicode="O" horiz-adv-x="467" 
d="M75 529q0 38 9 70.5t27.5 56t47.5 37t69 13.5t69.5 -13.5t48.5 -37t28 -56t9 -70.5v-358q0 -38 -9 -70.5t-28 -56t-48.5 -37t-69.5 -13.5t-69 13.5t-47.5 37t-27.5 56t-9 70.5v358zM121 168q0 -57 24.5 -94.5t82.5 -37.5t83.5 37.5t25.5 94.5v364q0 57 -25.5 94.5
t-83.5 37.5t-82.5 -37.5t-24.5 -94.5v-364z" />
    <glyph glyph-name="Oacute" unicode="&#xd3;" horiz-adv-x="467" 
d="M309 842l-84 -95h-35l71 95h48zM228 706q40 0 69.5 -13.5t48.5 -37t28 -56t9 -70.5v-358q0 -38 -9 -70.5t-28 -56t-48.5 -37t-69.5 -13.5t-69 13.5t-47.5 37t-27.5 56t-9 70.5v358q0 38 9 70.5t27.5 56t47.5 37t69 13.5zM228 664q-58 0 -82.5 -37.5t-24.5 -94.5v-364
q0 -57 24.5 -94.5t82.5 -37.5t83.5 37.5t25.5 94.5v364q0 57 -25.5 94.5t-83.5 37.5z" />
    <glyph glyph-name="Obreve" unicode="&#x14e;" horiz-adv-x="467" 
d="M326 834q-2 -42 -29 -65t-69 -23t-68.5 23t-27.5 65h29q2 -31 21.5 -44t45.5 -13t46 13t22 44h30zM228 706q40 0 69.5 -13.5t48.5 -37t28 -56t9 -70.5v-358q0 -38 -9 -70.5t-28 -56t-48.5 -37t-69.5 -13.5t-69 13.5t-47.5 37t-27.5 56t-9 70.5v358q0 38 9 70.5t27.5 56
t47.5 37t69 13.5zM228 664q-58 0 -82.5 -37.5t-24.5 -94.5v-364q0 -57 24.5 -94.5t82.5 -37.5t83.5 37.5t25.5 94.5v364q0 57 -25.5 94.5t-83.5 37.5z" />
    <glyph glyph-name="Ocircumflex" unicode="&#xd4;" horiz-adv-x="467" 
d="M167 745h-43l84 90h40l84 -90h-43l-61 64zM228 706q40 0 69.5 -13.5t48.5 -37t28 -56t9 -70.5v-358q0 -38 -9 -70.5t-28 -56t-48.5 -37t-69.5 -13.5t-69 13.5t-47.5 37t-27.5 56t-9 70.5v358q0 38 9 70.5t27.5 56t47.5 37t69 13.5zM228 664q-58 0 -82.5 -37.5
t-24.5 -94.5v-364q0 -57 24.5 -94.5t82.5 -37.5t83.5 37.5t25.5 94.5v364q0 57 -25.5 94.5t-83.5 37.5z" />
    <glyph glyph-name="Odieresis" unicode="&#xd6;" horiz-adv-x="467" 
d="M200 830v-85h-41v85h41zM297 830v-85h-41v85h41zM228 706q40 0 69.5 -13.5t48.5 -37t28 -56t9 -70.5v-358q0 -38 -9 -70.5t-28 -56t-48.5 -37t-69.5 -13.5t-69 13.5t-47.5 37t-27.5 56t-9 70.5v358q0 38 9 70.5t27.5 56t47.5 37t69 13.5zM228 664q-58 0 -82.5 -37.5
t-24.5 -94.5v-364q0 -57 24.5 -94.5t82.5 -37.5t83.5 37.5t25.5 94.5v364q0 57 -25.5 94.5t-83.5 37.5z" />
    <glyph glyph-name="Ograve" unicode="&#xd2;" horiz-adv-x="467" 
d="M196 842l71 -95h-37l-84 95h50zM228 706q40 0 69.5 -13.5t48.5 -37t28 -56t9 -70.5v-358q0 -38 -9 -70.5t-28 -56t-48.5 -37t-69.5 -13.5t-69 13.5t-47.5 37t-27.5 56t-9 70.5v358q0 38 9 70.5t27.5 56t47.5 37t69 13.5zM228 664q-58 0 -82.5 -37.5t-24.5 -94.5v-364
q0 -57 24.5 -94.5t82.5 -37.5t83.5 37.5t25.5 94.5v364q0 57 -25.5 94.5t-83.5 37.5z" />
    <glyph glyph-name="Ohungarumlaut" unicode="&#x150;" horiz-adv-x="467" 
d="M266 842l-77 -95h-33l65 95h45zM351 842l-78 -95h-32l65 95h45zM228 706q40 0 69.5 -13.5t48.5 -37t28 -56t9 -70.5v-358q0 -38 -9 -70.5t-28 -56t-48.5 -37t-69.5 -13.5t-69 13.5t-47.5 37t-27.5 56t-9 70.5v358q0 38 9 70.5t27.5 56t47.5 37t69 13.5zM228 664
q-58 0 -82.5 -37.5t-24.5 -94.5v-364q0 -57 24.5 -94.5t82.5 -37.5t83.5 37.5t25.5 94.5v364q0 57 -25.5 94.5t-83.5 37.5z" />
    <glyph glyph-name="Omacron" unicode="&#x14c;" horiz-adv-x="467" 
d="M323 794v-34h-187v34h187zM228 706q40 0 69.5 -13.5t48.5 -37t28 -56t9 -70.5v-358q0 -38 -9 -70.5t-28 -56t-48.5 -37t-69.5 -13.5t-69 13.5t-47.5 37t-27.5 56t-9 70.5v358q0 38 9 70.5t27.5 56t47.5 37t69 13.5zM228 664q-58 0 -82.5 -37.5t-24.5 -94.5v-364
q0 -57 24.5 -94.5t82.5 -37.5t83.5 37.5t25.5 94.5v364q0 57 -25.5 94.5t-83.5 37.5z" />
    <glyph glyph-name="Oslash" unicode="&#xd8;" horiz-adv-x="467" 
d="M354 645q15 -23 22 -52t7 -64v-358q0 -38 -9 -70.5t-28 -56t-48.5 -37t-69.5 -13.5q-35 0 -62 10.5t-45 29.5l-20 -51l-23 8l25 66q-28 44 -28 114v358q0 38 9 70.5t27.5 56t47.5 37t69 13.5q36 0 62.5 -10.5t45.5 -29.5l19 49l22 -8zM121 168q0 -14 1.5 -26.5t3.5 -24.5
l192 501q-13 21 -35 33.5t-55 12.5q-58 0 -82.5 -37.5t-24.5 -94.5v-364zM337 532q0 28 -6 54l-192 -503q13 -22 34.5 -34.5t54.5 -12.5q58 0 83.5 37.5t25.5 94.5v364z" />
    <glyph glyph-name="Oslashacute" unicode="&#x1fe;" horiz-adv-x="467" 
d="M268 842h48l-84 -95h-35zM354 645q15 -23 22 -52t7 -64v-358q0 -38 -9 -70.5t-28 -56t-48.5 -37t-69.5 -13.5q-35 0 -62 10.5t-45 29.5l-20 -51l-23 8l25 66q-28 44 -28 114v358q0 38 9 70.5t27.5 56t47.5 37t69 13.5q36 0 62.5 -10.5t45.5 -29.5l19 49l22 -8zM121 168
q0 -14 1.5 -26.5t3.5 -24.5l192 501q-13 21 -35 33.5t-55 12.5q-58 0 -82.5 -37.5t-24.5 -94.5v-364zM337 532q0 28 -6 54l-192 -503q13 -22 34.5 -34.5t54.5 -12.5q58 0 83.5 37.5t25.5 94.5v364z" />
    <glyph glyph-name="Otilde" unicode="&#xd5;" horiz-adv-x="467" 
d="M341 800q-9 -22 -23.5 -34.5t-34.5 -13.5q-14 0 -25.5 5t-22.5 11.5t-22 12t-23 5.5q-27 0 -42 -31l-25 17q22 47 63 47q14 0 26 -5t23.5 -11.5t22 -11.5t21.5 -5q13 1 22 9t15 21zM228 706q40 0 69.5 -13.5t48.5 -37t28 -56t9 -70.5v-358q0 -38 -9 -70.5t-28 -56
t-48.5 -37t-69.5 -13.5t-69 13.5t-47.5 37t-27.5 56t-9 70.5v358q0 38 9 70.5t27.5 56t47.5 37t69 13.5zM228 664q-58 0 -82.5 -37.5t-24.5 -94.5v-364q0 -57 24.5 -94.5t82.5 -37.5t83.5 37.5t25.5 94.5v364q0 57 -25.5 94.5t-83.5 37.5z" />
    <glyph glyph-name="OE" unicode="&#x152;" horiz-adv-x="621" 
d="M536 376v-42h-170v-292h205v-42h-350q-39 0 -67 13.5t-45.5 37t-25.5 55.5t-8 68v352q0 36 8 68t25.5 55.5t45.5 37t67 13.5h350v-42h-205v-282h170zM222 658q-28 0 -47 -10.5t-31 -28t-17.5 -41t-5.5 -50.5v-356q0 -27 5.5 -50.5t17.5 -41t31 -28t47 -10.5h98v616h-98z
" />
    <glyph glyph-name="P" unicode="P" horiz-adv-x="432" 
d="M220 700q81 0 115.5 -46.5t34.5 -123.5v-76q0 -84 -39 -125t-123 -41h-87v-288h-46v700h145zM208 330q61 0 88.5 28.5t27.5 92.5v82q0 57 -22.5 91t-81.5 34h-99v-328h87z" />
    <glyph glyph-name="Thorn" unicode="&#xde;" horiz-adv-x="430" 
d="M220 578q81 0 115.5 -46.5t34.5 -123.5v-76q0 -84 -39 -125t-123 -41h-87v-166h-46v700h46v-122h99zM208 208q61 0 88.5 28.5t27.5 92.5v81q0 58 -22.5 91.5t-81.5 33.5h-99v-327h87z" />
    <glyph glyph-name="Q" unicode="Q" horiz-adv-x="476" 
d="M229 706q40 0 69 -13.5t48 -37t28 -56t9 -70.5v-358q0 -36 -8 -67t-25 -54q9 -16 22.5 -22t32.5 -6h11v-41h-12q-58 0 -83 41q-17 -13 -40 -20.5t-52 -7.5q-40 0 -69 13.5t-48 37t-28 56t-9 70.5v358q0 38 9 70.5t28 56t48 37t69 13.5zM229 664q-58 0 -83 -37.5
t-25 -94.5v-364q0 -57 25 -94.5t83 -37.5t83 37.5t25 94.5v364q0 57 -25 94.5t-83 37.5z" />
    <glyph glyph-name="R" unicode="R" horiz-adv-x="472" 
d="M221 700q80 0 115 -42t35 -116v-61q0 -122 -101 -145q54 -12 77.5 -49t23.5 -94v-109q0 -22 3 -44.5t14 -39.5h-48q-9 16 -12 35.5t-3 48.5v110q0 35 -9 58t-26.5 36.5t-41.5 19t-54 5.5h-73v-313h-46v700h146zM195 355q31 0 55 5t40.5 18t25.5 36t9 58v66q0 57 -24 88.5
t-81 31.5h-99v-303h74z" />
    <glyph glyph-name="Racute" unicode="&#x154;" horiz-adv-x="472" 
d="M296 842l-84 -95h-35l71 95h48zM221 700q80 0 115 -42t35 -116v-61q0 -122 -101 -145q54 -12 77.5 -49t23.5 -94v-109q0 -22 3 -44.5t14 -39.5h-48q-9 16 -12 35.5t-3 48.5v110q0 35 -9 58t-26.5 36.5t-41.5 19t-54 5.5h-73v-313h-46v700h146zM195 355q31 0 55 5t40.5 18
t25.5 36t9 58v66q0 57 -24 88.5t-81 31.5h-99v-303h74z" />
    <glyph glyph-name="Rcaron" unicode="&#x158;" horiz-adv-x="472" 
d="M151 836l61 -64l61 64h44l-85 -90h-40l-84 90h43zM221 700q80 0 115 -42t35 -116v-61q0 -122 -101 -145q54 -12 77.5 -49t23.5 -94v-109q0 -22 3 -44.5t14 -39.5h-48q-9 16 -12 35.5t-3 48.5v110q0 35 -9 58t-26.5 36.5t-41.5 19t-54 5.5h-73v-313h-46v700h146zM195 355
q31 0 55 5t40.5 18t25.5 36t9 58v66q0 57 -24 88.5t-81 31.5h-99v-303h74z" />
    <glyph glyph-name="S" unicode="S" horiz-adv-x="440" 
d="M206 706q40 0 68 -13t46 -36.5t26.5 -55.5t8.5 -70v-15h-44v18q0 28 -5.5 51.5t-18 41t-32.5 27.5t-48 10q-57 0 -80.5 -36.5t-23.5 -92.5q0 -43 18.5 -73t47 -54.5t61 -47t61 -49t47 -60.5t18.5 -82q0 -38 -8.5 -70t-27 -55.5t-47 -36.5t-68.5 -13t-68.5 13t-47 36.5
t-27 55.5t-8.5 70v36h44v-39q0 -56 24 -92.5t82 -36.5t82 36.5t24 92.5q0 42 -18.5 72t-47 54.5t-61 46.5t-61 48.5t-47 61t-18.5 83.5q0 79 35.5 126t113.5 48z" />
    <glyph glyph-name="Sacute" unicode="&#x15a;" horiz-adv-x="440" 
d="M293 842l-84 -95h-35l71 95h48zM206 706q40 0 68 -13t46 -36.5t26.5 -55.5t8.5 -70v-15h-44v18q0 28 -5.5 51.5t-18 41t-32.5 27.5t-48 10q-57 0 -80.5 -36.5t-23.5 -92.5q0 -43 18.5 -73t47 -54.5t61 -47t61 -49t47 -60.5t18.5 -82q0 -38 -8.5 -70t-27 -55.5t-47 -36.5
t-68.5 -13t-68.5 13t-47 36.5t-27 55.5t-8.5 70v36h44v-39q0 -56 24 -92.5t82 -36.5t82 36.5t24 92.5q0 42 -18.5 72t-47 54.5t-61 46.5t-61 48.5t-47 61t-18.5 83.5q0 79 35.5 126t113.5 48z" />
    <glyph glyph-name="Scaron" unicode="&#x160;" horiz-adv-x="440" 
d="M146 836l62 -64l61 64h43l-84 -90h-41l-83 90h42zM206 706q40 0 68 -13t46 -36.5t26.5 -55.5t8.5 -70v-15h-44v18q0 28 -5.5 51.5t-18 41t-32.5 27.5t-48 10q-57 0 -80.5 -36.5t-23.5 -92.5q0 -43 18.5 -73t47 -54.5t61 -47t61 -49t47 -60.5t18.5 -82q0 -38 -8.5 -70
t-27 -55.5t-47 -36.5t-68.5 -13t-68.5 13t-47 36.5t-27 55.5t-8.5 70v36h44v-39q0 -56 24 -92.5t82 -36.5t82 36.5t24 92.5q0 42 -18.5 72t-47 54.5t-61 46.5t-61 48.5t-47 61t-18.5 83.5q0 79 35.5 126t113.5 48z" />
    <glyph glyph-name="Scedilla" unicode="&#x15e;" horiz-adv-x="440" 
d="M217 -34q35 -1 55 -15.5t20 -40.5q0 -31 -23 -48q-23 -16 -61 -16h-5q-42 0 -65 16.5t-23 46.5v6h32v-5q0 -17 15 -27t41 -12q27 0 42 10.5t15 29.5q0 17 -15.5 27t-44.5 10h-7v47q-37 1 -63.5 15t-43 37t-24.5 54.5t-8 67.5v36h44v-39q0 -56 24 -92.5t82 -36.5t82 36.5
t24 92.5q0 42 -18.5 72t-47 54.5t-61 46.5t-61 48.5t-47 61t-18.5 83.5q0 79 35.5 126t113.5 48q40 0 68 -13t46 -36.5t26.5 -55.5t8.5 -70v-15h-44v18q0 28 -5.5 51.5t-18 41t-32.5 27.5t-48 10q-57 0 -80.5 -36.5t-23.5 -92.5q0 -43 18.5 -73t47 -54.5t61 -47t61 -49
t47 -60.5t18.5 -82q0 -74 -33 -122.5t-106 -52.5v-28z" />
    <glyph glyph-name="Scircumflex" unicode="&#x15c;" horiz-adv-x="440" 
d="M149 745h-43l84 90h40l84 -90h-43l-61 64zM206 706q40 0 68 -13t46 -36.5t26.5 -55.5t8.5 -70v-15h-44v18q0 28 -5.5 51.5t-18 41t-32.5 27.5t-48 10q-57 0 -80.5 -36.5t-23.5 -92.5q0 -43 18.5 -73t47 -54.5t61 -47t61 -49t47 -60.5t18.5 -82q0 -38 -8.5 -70t-27 -55.5
t-47 -36.5t-68.5 -13t-68.5 13t-47 36.5t-27 55.5t-8.5 70v36h44v-39q0 -56 24 -92.5t82 -36.5t82 36.5t24 92.5q0 42 -18.5 72t-47 54.5t-61 46.5t-61 48.5t-47 61t-18.5 83.5q0 79 35.5 126t113.5 48z" />
    <glyph glyph-name="T" unicode="T" horiz-adv-x="333" 
d="M145 0v658h-143v42h331v-42h-142v-658h-46z" />
    <glyph glyph-name="Tbar" unicode="&#x166;" horiz-adv-x="360" 
d="M267 465v-35h-76v-430h-46v430h-76v35h76v193h-143v42h332v-42h-143v-193h76z" />
    <glyph glyph-name="Tcaron" unicode="&#x164;" horiz-adv-x="334" 
d="M106 831l62 -63l61 63h43l-84 -90h-41l-83 90h42zM145 0v658h-143v42h332v-42h-143v-658h-46z" />
    <glyph glyph-name="U" unicode="U" horiz-adv-x="458" 
d="M121 169q0 -28 5.5 -52.5t18 -42.5t32.5 -28t49 -10t49 10t32.5 28t18 42.5t5.5 52.5v531h43v-529q0 -38 -8 -70t-26 -56t-46.5 -37.5t-68.5 -13.5t-68.5 13.5t-46.5 37.5t-26.5 56t-8.5 70v529h46v-531z" />
    <glyph glyph-name="Uacute" unicode="&#xda;" horiz-adv-x="458" 
d="M312 842l-84 -95h-35l71 95h48zM374 171q0 -38 -8 -70t-26 -56t-46.5 -37.5t-68.5 -13.5t-68.5 13.5t-46.5 37.5t-26.5 56t-8.5 70v529h46v-531q0 -28 5.5 -52.5t18 -42.5t32.5 -28t49 -10t49 10t32.5 28t18 42.5t5.5 52.5v531h43v-529z" />
    <glyph glyph-name="Ubreve" unicode="&#x16c;" horiz-adv-x="458" 
d="M323 828q-1 -42 -28 -65.5t-69 -23.5t-69 23.5t-28 65.5h30q2 -31 21.5 -44.5t45.5 -13.5t46 13.5t22 44.5h29zM374 171q0 -38 -8 -70t-26 -56t-46.5 -37.5t-68.5 -13.5t-68.5 13.5t-46.5 37.5t-26.5 56t-8.5 70v529h46v-531q0 -28 5.5 -52.5t18 -42.5t32.5 -28t49 -10
t49 10t32.5 28t18 42.5t5.5 52.5v531h43v-529z" />
    <glyph glyph-name="Ucircumflex" unicode="&#xdb;" horiz-adv-x="458" 
d="M165 745h-43l84 90h40l85 -90h-44l-61 64zM374 171q0 -38 -8 -70t-26 -56t-46.5 -37.5t-68.5 -13.5t-68.5 13.5t-46.5 37.5t-26.5 56t-8.5 70v529h46v-531q0 -28 5.5 -52.5t18 -42.5t32.5 -28t49 -10t49 10t32.5 28t18 42.5t5.5 52.5v531h43v-529z" />
    <glyph glyph-name="Udieresis" unicode="&#xdc;" horiz-adv-x="458" 
d="M197 828v-85h-41v85h41zM294 828v-85h-41v85h41zM374 171q0 -38 -8 -70t-26 -56t-46.5 -37.5t-68.5 -13.5t-68.5 13.5t-46.5 37.5t-26.5 56t-8.5 70v529h46v-531q0 -28 5.5 -52.5t18 -42.5t32.5 -28t49 -10t49 10t32.5 28t18 42.5t5.5 52.5v531h43v-529z" />
    <glyph glyph-name="Ugrave" unicode="&#xd9;" horiz-adv-x="458" 
d="M192 836l71 -95h-37l-84 95h50zM374 171q0 -38 -8 -70t-26 -56t-46.5 -37.5t-68.5 -13.5t-68.5 13.5t-46.5 37.5t-26.5 56t-8.5 70v529h46v-531q0 -28 5.5 -52.5t18 -42.5t32.5 -28t49 -10t49 10t32.5 28t18 42.5t5.5 52.5v531h43v-529z" />
    <glyph glyph-name="Uhungarumlaut" unicode="&#x170;" horiz-adv-x="458" 
d="M262 840l-77 -95h-33l65 95h45zM347 840l-78 -95h-32l65 95h45zM374 171q0 -38 -8 -70t-26 -56t-46.5 -37.5t-68.5 -13.5t-68.5 13.5t-46.5 37.5t-26.5 56t-8.5 70v529h46v-531q0 -28 5.5 -52.5t18 -42.5t32.5 -28t49 -10t49 10t32.5 28t18 42.5t5.5 52.5v531h43v-529z
" />
    <glyph glyph-name="Umacron" unicode="&#x16a;" horiz-adv-x="458" 
d="M319 793v-33h-182v33h182zM374 171q0 -38 -8 -70t-26 -56t-46.5 -37.5t-68.5 -13.5t-68.5 13.5t-46.5 37.5t-26.5 56t-8.5 70v529h46v-531q0 -28 5.5 -52.5t18 -42.5t32.5 -28t49 -10t49 10t32.5 28t18 42.5t5.5 52.5v531h43v-529z" />
    <glyph glyph-name="Uogonek" unicode="&#x172;" horiz-adv-x="458" 
d="M374 171q0 -27 -4 -53t-14 -48t-26.5 -39.5t-41.5 -27.5q-20 -15 -33 -39q-12 -23 -12 -41v-3q2 -17 13 -24.5t27 -7.5q14 0 24.5 3.5t19.5 9.5v-28q-26 -13 -56 -13q-27 1 -45 13t-19 38v3q0 22 13 43q14 22 35 39q-7 -1 -14.5 -1.5t-15.5 -0.5q-40 0 -68.5 13.5
t-46.5 37.5t-26.5 56t-8.5 70v529h46v-531q0 -28 5.5 -52.5t18 -42.5t32.5 -28t49 -10t49 10t32.5 28t18 42.5t5.5 52.5v531h43v-529z" />
    <glyph glyph-name="Uring" unicode="&#x16e;" horiz-adv-x="458" 
d="M229 868q29 0 48.5 -18.5t19.5 -47.5q0 -28 -19.5 -47t-48.5 -19q-28 0 -47.5 19t-19.5 47q0 29 19.5 47.5t47.5 18.5zM229 844q-18 0 -30 -11.5t-12 -30.5q0 -18 12 -30t30 -12t30.5 12t12.5 30q0 19 -12.5 30.5t-30.5 11.5zM374 171q0 -38 -8 -70t-26 -56t-46.5 -37.5
t-68.5 -13.5t-68.5 13.5t-46.5 37.5t-26.5 56t-8.5 70v529h46v-531q0 -28 5.5 -52.5t18 -42.5t32.5 -28t49 -10t49 10t32.5 28t18 42.5t5.5 52.5v531h43v-529z" />
    <glyph glyph-name="Utilde" unicode="&#x168;" horiz-adv-x="458" 
d="M335 800q-9 -22 -23.5 -34.5t-34.5 -13.5q-14 0 -25.5 5t-22.5 11.5t-22 12t-23 5.5q-27 0 -42 -31l-25 17q22 47 63 47q14 0 26 -5t23.5 -11.5t22 -11.5t21.5 -5q13 1 22 9t15 21zM374 171q0 -38 -8 -70t-26 -56t-46.5 -37.5t-68.5 -13.5t-68.5 13.5t-46.5 37.5
t-26.5 56t-8.5 70v529h46v-531q0 -28 5.5 -52.5t18 -42.5t32.5 -28t49 -10t49 10t32.5 28t18 42.5t5.5 52.5v531h43v-529z" />
    <glyph glyph-name="V" unicode="V" horiz-adv-x="427" 
d="M74 700l142 -647l142 647h43l-152 -700h-68l-154 700h47z" />
    <glyph glyph-name="W" unicode="W" horiz-adv-x="621" 
d="M204 0h-64l-113 700h45l105 -638l102 635h49l98 -633l101 636h41l-112 -700h-60l-94 573z" />
    <glyph glyph-name="Wacute" unicode="&#x1e82;" horiz-adv-x="621" 
d="M378 836l-84 -95h-35l72 95h47zM204 0h-64l-113 700h45l105 -638l102 635h49l98 -633l101 636h41l-112 -700h-60l-94 573z" />
    <glyph glyph-name="Wcircumflex" unicode="&#x174;" horiz-adv-x="621" 
d="M239 743h-43l84 90h40l84 -90h-43l-61 64zM204 0h-64l-113 700h45l105 -638l102 635h49l98 -633l101 636h41l-112 -700h-60l-94 573z" />
    <glyph glyph-name="Wdieresis" unicode="&#x1e84;" horiz-adv-x="621" 
d="M273 830v-85h-41v85h41zM370 830v-85h-41v85h41zM204 0h-64l-113 700h45l105 -638l102 635h49l98 -633l101 636h41l-112 -700h-60l-94 573z" />
    <glyph glyph-name="Wgrave" unicode="&#x1e80;" horiz-adv-x="621" 
d="M275 842l71 -95h-36l-85 95h50zM204 0h-64l-113 700h45l105 -638l102 635h49l98 -633l101 636h41l-112 -700h-60l-94 573z" />
    <glyph glyph-name="X" unicode="X" horiz-adv-x="440" 
d="M219 326l-142 -326h-45l158 363l-147 337h48l132 -301l133 301h44l-147 -337l157 -363h-49z" />
    <glyph glyph-name="Y" unicode="Y" 
d="M170 269l-157 431h48l134 -368l134 368h45l-158 -431v-269h-46v269z" />
    <glyph glyph-name="Yacute" unicode="&#xdd;" 
d="M280 835l-84 -95h-35l72 95h47zM170 269l-157 431h48l134 -368l134 368h45l-158 -431v-269h-46v269z" />
    <glyph glyph-name="Ycircumflex" unicode="&#x176;" 
d="M134 743h-43l84 90h40l84 -90h-43l-61 63zM170 269l-157 431h48l134 -368l134 368h45l-158 -431v-269h-46v269z" />
    <glyph glyph-name="Ydieresis" unicode="&#x178;" 
d="M166 825v-84h-41v84h41zM263 825v-84h-41v84h41zM170 269l-157 431h48l134 -368l134 368h45l-158 -431v-269h-46v269z" />
    <glyph glyph-name="Ygrave" unicode="&#x1ef2;" 
d="M162 842l72 -95h-37l-84 95h49zM170 269l-157 431h48l134 -368l134 368h45l-158 -431v-269h-46v269z" />
    <glyph glyph-name="Z" unicode="Z" 
d="M346 0h-315v42l271 616h-258v42h306v-43l-271 -615h267v-42z" />
    <glyph glyph-name="Zacute" unicode="&#x179;" 
d="M287 842l-84 -95h-35l71 95h48zM346 0h-315v42l271 616h-258v42h306v-43l-271 -615h267v-42z" />
    <glyph glyph-name="Zcaron" unicode="&#x17d;" 
d="M136 835l62 -63l61 63h43l-84 -90h-40l-84 90h42zM346 0h-315v42l271 616h-258v42h306v-43l-271 -615h267v-42z" />
    <glyph glyph-name="Zdotaccent" unicode="&#x17b;" 
d="M225 830v-84h-41v84h41zM346 0h-315v42l271 616h-258v42h306v-43l-271 -615h267v-42z" />
    <glyph glyph-name="uni0122" unicode="&#x122;" horiz-adv-x="461" 
d="M226 706q40 0 68.5 -13.5t47 -37t27 -56t8.5 -70.5v-52h-44v55q0 28 -5.5 52t-18.5 42t-33 28t-49 10t-49 -10t-33 -28t-18.5 -42t-5.5 -52v-364q0 -28 5.5 -52t18.5 -41.5t33 -27.5t49 -10t49 10t33 27.5t18.5 41.5t5.5 52v151h-93v42h137v-190q0 -38 -8.5 -70.5
t-27 -56t-47 -37t-68.5 -13.5t-68.5 13.5t-47 37t-27 56t-8.5 70.5v358q0 38 8.5 70.5t27 56t47 37t68.5 13.5zM219 -117h-13v83h39v-79l-27 -63h-18z" />
    <glyph glyph-name="uni0136" unicode="&#x136;" horiz-adv-x="440" 
d="M169 329l-48 -76v-253h-46v700h46v-370l228 370h48l-200 -326l213 -374h-48zM224 -117h-14v83h40v-79l-27 -63h-19z" />
    <glyph glyph-name="uni013B" unicode="&#x13b;" horiz-adv-x="343" 
d="M75 0v700h46v-658h220v-42h-266zM207 -120h-13v83h39v-79l-27 -63h-18z" />
    <glyph glyph-name="uni0145" unicode="&#x145;" horiz-adv-x="471" 
d="M117 0h-42v700h60l210 -591v591h42v-700h-51l-219 624v-624zM223 -117h-13v83h39v-79l-27 -63h-18z" />
    <glyph glyph-name="uni0156" unicode="&#x156;" horiz-adv-x="472" 
d="M221 700q80 0 115 -42t35 -116v-61q0 -122 -101 -145q54 -12 77.5 -49t23.5 -94v-109q0 -22 3 -44.5t14 -39.5h-48q-9 16 -12 35.5t-3 48.5v110q0 35 -9 58t-26.5 36.5t-41.5 19t-54 5.5h-73v-313h-46v700h146zM195 355q31 0 55 5t40.5 18t25.5 36t9 58v66q0 57 -24 88.5
t-81 31.5h-99v-303h74zM218 -116h-13v83h39v-79l-27 -63h-18z" />
    <glyph glyph-name="uni0162" unicode="&#x162;" horiz-adv-x="354" 
d="M176 0v-34q29 -1 48.5 -14t19.5 -44q0 -18 -7.5 -31t-19.5 -21.5t-27.5 -12t-30.5 -3.5t-30 4t-27 11.5t-19.5 19.5t-7.5 29v6h28v-6q0 -21 19 -29t37 -9q19 0 37.5 9t18.5 32q0 24 -19 31.5t-41 7.5h-7v54h-9v658h-143v42h332v-42h-143v-658h-9z" />
    <glyph glyph-name="uni0218" unicode="&#x218;" horiz-adv-x="440" 
d="M206 706q40 0 68 -13t46 -36.5t26.5 -55.5t8.5 -70v-15h-44v18q0 28 -5.5 51.5t-18 41t-32.5 27.5t-48 10q-57 0 -80.5 -36.5t-23.5 -92.5q0 -43 18.5 -73t47 -54.5t61 -47t61 -49t47 -60.5t18.5 -82q0 -38 -8.5 -70t-27 -55.5t-47 -36.5t-68.5 -13t-68.5 13t-47 36.5
t-27 55.5t-8.5 70v36h44v-39q0 -56 24 -92.5t82 -36.5t82 36.5t24 92.5q0 42 -18.5 72t-47 54.5t-61 46.5t-61 48.5t-47 61t-18.5 83.5q0 79 35.5 126t113.5 48zM198 -117h-14v83h40v-79l-27 -63h-19z" />
    <glyph glyph-name="uni021A" unicode="&#x21a;" horiz-adv-x="328" 
d="M139 0v658h-143v42h332v-42h-143v-658h-46zM156 -117h-14v83h40v-79l-27 -63h-19z" />
    <glyph glyph-name="uni1E02" unicode="&#x1e02;" horiz-adv-x="462" 
d="M225 827v-85h-40v85h40zM222 700q79 0 111 -38t32 -111v-40q0 -57 -19.5 -92t-72.5 -46q57 -11 81 -50.5t24 -99.5v-61q0 -76 -36 -119t-117 -43h-150v700h147zM199 391q31 0 53.5 5t37.5 17.5t22 34t7 54.5v45q0 55 -21 83t-77 28h-100v-267h78zM225 42q58 0 82.5 31
t24.5 90v63q0 68 -31 95.5t-93 27.5h-87v-307h104z" />
    <glyph glyph-name="uni1E0A" unicode="&#x1e0a;" horiz-adv-x="468" 
d="M232 827v-85h-41v85h41zM229 700q40 0 69.5 -12.5t48.5 -35.5t28 -55t9 -71v-352q0 -39 -9 -71t-28 -55t-48.5 -35.5t-69.5 -12.5h-154v700h154zM228 42q59 0 84.5 36t25.5 94v356q0 58 -26 94t-84 36h-107v-616h107z" />
    <glyph glyph-name="uni1E1E" unicode="&#x1e1e;" horiz-adv-x="378" 
d="M227 826v-85h-41v85h41zM302 359v-42h-181v-317h-46v700h266v-42h-220v-299h181z" />
    <glyph glyph-name="uni1E40" unicode="&#x1e40;" horiz-adv-x="584" 
d="M308 831v-86h-41v86h41zM310 1h-46l-148 619v-620h-41v700h66l147 -619l146 619h66v-700h-44v622z" />
    <glyph glyph-name="uni1E56" unicode="&#x1e56;" horiz-adv-x="432" 
d="M226 827v-85h-41v85h41zM220 700q81 0 115.5 -46.5t34.5 -123.5v-76q0 -84 -39 -125t-123 -41h-87v-288h-46v700h145zM208 330q61 0 88.5 28.5t27.5 92.5v82q0 57 -22.5 91t-81.5 34h-99v-328h87z" />
    <glyph glyph-name="uni1E60" unicode="&#x1e60;" horiz-adv-x="440" 
d="M226 827v-84h-41v84h41zM206 706q40 0 68 -13t46 -36.5t26.5 -55.5t8.5 -70v-15h-44v18q0 28 -5.5 51.5t-18 41t-32.5 27.5t-48 10q-57 0 -80.5 -36.5t-23.5 -92.5q0 -43 18.5 -73t47 -54.5t61 -47t61 -49t47 -60.5t18.5 -82q0 -38 -8.5 -70t-27 -55.5t-47 -36.5
t-68.5 -13t-68.5 13t-47 36.5t-27 55.5t-8.5 70v36h44v-39q0 -56 24 -92.5t82 -36.5t82 36.5t24 92.5q0 42 -18.5 72t-47 54.5t-61 46.5t-61 48.5t-47 61t-18.5 83.5q0 79 35.5 126t113.5 48z" />
    <glyph glyph-name="uni1E6A" unicode="&#x1e6a;" horiz-adv-x="334" 
d="M188 828v-85h-40v85h40zM145 0v658h-143v42h332v-42h-143v-658h-46z" />
    <glyph glyph-name="a" unicode="a" horiz-adv-x="423" 
d="M98 155l-35 -155h-42l153 701h67l156 -701h-46l-35 155h-218zM105 195h204l-103 453z" />
    <glyph glyph-name="aacute" unicode="&#xe1;" horiz-adv-x="423" 
d="M281 833l-84 -95h-35l71 95h48zM98 155l-35 -155h-42l153 701h67l156 -701h-46l-35 155h-218zM105 195h204l-103 453z" />
    <glyph glyph-name="abreve" unicode="&#x103;" horiz-adv-x="423" 
d="M305 821q-2 -42 -29 -65t-69 -23t-68.5 23t-27.5 65h30q1 -30 20.5 -43.5t45.5 -13.5t46 13.5t22 43.5h30zM98 155l-35 -155h-42l153 701h67l156 -701h-46l-35 155h-218zM105 195h204l-103 453z" />
    <glyph glyph-name="acircumflex" unicode="&#xe2;" horiz-adv-x="423" 
d="M146 737h-43l84 90h40l85 -90h-44l-61 63zM98 155l-35 -155h-42l153 701h67l156 -701h-46l-35 155h-218zM105 195h204l-103 453z" />
    <glyph glyph-name="adieresis" unicode="&#xe4;" horiz-adv-x="423" 
d="M179 821v-84h-41v84h41zM276 821v-84h-41v84h41zM98 155l-35 -155h-42l153 701h67l156 -701h-46l-35 155h-218zM105 195h204l-103 453z" />
    <glyph glyph-name="agrave" unicode="&#xe0;" horiz-adv-x="423" 
d="M176 832l71 -95h-36l-85 95h50zM98 155l-35 -155h-42l153 701h67l156 -701h-46l-35 155h-218zM105 195h204l-103 453z" />
    <glyph glyph-name="amacron" unicode="&#x101;" horiz-adv-x="423" 
d="M305 793v-33h-195v33h195zM98 155l-35 -155h-42l153 701h67l156 -701h-46l-35 155h-218zM105 195h204l-103 453z" />
    <glyph glyph-name="aogonek" unicode="&#x105;" horiz-adv-x="423" 
d="M382 0q-19 -15 -31 -38q-11 -20 -11 -37v-5q1 -17 12.5 -24.5t26.5 -7.5q14 0 24.5 3.5t19.5 9.5v-28q-25 -13 -56 -13q-27 1 -45 13t-19 38v3q0 22 13 43q13 23 35 41l-35 157h-218l-35 -155h-42l153 701h67l156 -701h-15zM105 195h204l-103 453z" />
    <glyph glyph-name="aring" unicode="&#xe5;" horiz-adv-x="423" 
d="M207 872q28 0 47.5 -19t19.5 -47q0 -29 -19.5 -48t-47.5 -19q-29 0 -48 19t-19 48q0 28 19 47t48 19zM207 847q-18 0 -30.5 -11.5t-12.5 -29.5q0 -19 12.5 -30.5t30.5 -11.5q17 0 30 11.5t13 30.5q0 18 -13 29.5t-30 11.5zM98 155l-35 -155h-42l153 701h67l156 -701h-46
l-35 155h-218zM105 195h204l-103 453z" />
    <glyph glyph-name="atilde" unicode="&#xe3;" horiz-adv-x="423" 
d="M161 814q14 0 26 -5.5t23.5 -12t22 -11.5t21.5 -5q13 1 21.5 9t15.5 22l25 -17q-10 -22 -24 -34.5t-34 -12.5h-4q-12 0 -21 5q-12 5 -23 11.5t-22 11.5t-23 5q-26 0 -42 -30l-25 16q21 46 63 48zM98 155l-35 -155h-42l153 701h67l156 -701h-46l-35 155h-218zM105 195h204
l-103 453z" />
    <glyph glyph-name="ae" unicode="&#xe6;" horiz-adv-x="581" 
d="M496 376v-42h-169v-292h204v-42h-250v157h-175l-57 -157h-44l249 700h277v-42h-204v-282h169zM118 198h163v445z" />
    <glyph glyph-name="aeacute" unicode="&#x1fd;" horiz-adv-x="581" 
d="M390 840l-84 -95h-35l71 95h48zM496 376v-42h-169v-292h204v-42h-250v157h-175l-57 -157h-44l249 700h277v-42h-204v-282h169zM118 198h163v445z" />
    <glyph glyph-name="b" unicode="b" horiz-adv-x="461" 
d="M221 700q79 0 111 -38t32 -111v-40q0 -57 -19.5 -92t-72.5 -46q57 -11 81 -50.5t24 -99.5v-61q0 -76 -36 -119t-117 -43h-150v700h147zM198 391q31 0 53.5 5t37.5 17.5t22 34t7 54.5v45q0 55 -21 83t-77 28h-100v-267h78zM224 42q58 0 82.5 31t24.5 90v63q0 68 -31 95.5
t-93 27.5h-87v-307h104z" />
    <glyph glyph-name="c" unicode="c" horiz-adv-x="451" 
d="M216 706q40 0 68.5 -13.5t47 -37t27 -56t8.5 -70.5v-58h-44v61q0 28 -5.5 52t-18.5 42t-33 28t-49 10t-49 -10t-33 -28t-18.5 -42t-5.5 -52v-364q0 -28 5.5 -52t18.5 -41.5t33 -27.5t49 -10t49 10t33 27.5t18.5 41.5t5.5 52v83h44v-80q0 -38 -8.5 -70.5t-27 -56t-47 -37
t-68.5 -13.5t-68.5 13.5t-47 37t-27 56t-8.5 70.5v358q0 38 8.5 70.5t27 56t47 37t68.5 13.5z" />
    <glyph glyph-name="cacute" unicode="&#x107;" horiz-adv-x="451" 
d="M301 842l-84 -95h-35l71 95h48zM216 706q40 0 68.5 -13.5t47 -37t27 -56t8.5 -70.5v-58h-44v61q0 28 -5.5 52t-18.5 42t-33 28t-49 10t-49 -10t-33 -28t-18.5 -42t-5.5 -52v-364q0 -28 5.5 -52t18.5 -41.5t33 -27.5t49 -10t49 10t33 27.5t18.5 41.5t5.5 52v83h44v-80
q0 -38 -8.5 -70.5t-27 -56t-47 -37t-68.5 -13.5t-68.5 13.5t-47 37t-27 56t-8.5 70.5v358q0 38 8.5 70.5t27 56t47 37t68.5 13.5z" />
    <glyph glyph-name="ccaron" unicode="&#x10d;" horiz-adv-x="451" 
d="M159 834l62 -64l61 64h43l-84 -90h-40l-84 90h42zM216 706q40 0 68.5 -13.5t47 -37t27 -56t8.5 -70.5v-58h-44v61q0 28 -5.5 52t-18.5 42t-33 28t-49 10t-49 -10t-33 -28t-18.5 -42t-5.5 -52v-364q0 -28 5.5 -52t18.5 -41.5t33 -27.5t49 -10t49 10t33 27.5t18.5 41.5
t5.5 52v83h44v-80q0 -38 -8.5 -70.5t-27 -56t-47 -37t-68.5 -13.5t-68.5 13.5t-47 37t-27 56t-8.5 70.5v358q0 38 8.5 70.5t27 56t47 37t68.5 13.5z" />
    <glyph glyph-name="ccedilla" unicode="&#xe7;" horiz-adv-x="460" 
d="M225 706q40 0 68.5 -13.5t47 -37t27 -56t8.5 -70.5v-58h-44v61q0 28 -5.5 52t-18.5 42t-33 28t-49 10t-49 -10t-33 -28t-18.5 -42t-5.5 -52v-364q0 -28 5.5 -52t18.5 -41.5t33 -27.5t49 -10t49 10t33 27.5t18.5 41.5t5.5 52v83h44v-80q0 -36 -8 -67.5t-25 -55.5
t-43.5 -38t-63.5 -16v-28q35 -1 55 -15.5t20 -40.5q0 -31 -23 -48q-23 -16 -61 -16h-5q-42 0 -65 16.5t-23 46.5v6h32v-5q0 -17 15 -27t41 -12q27 0 42 10.5t15 29.5q0 17 -15.5 27t-44.5 10h-7v47q-37 2 -63 16t-42.5 37.5t-24.5 55t-8 67.5v358q0 38 8.5 70.5t27 56t47 37
t68.5 13.5z" />
    <glyph glyph-name="ccircumflex" unicode="&#x109;" horiz-adv-x="451" 
d="M158 743h-43l84 90h40l85 -90h-44l-61 64zM216 706q40 0 68.5 -13.5t47 -37t27 -56t8.5 -70.5v-58h-44v61q0 28 -5.5 52t-18.5 42t-33 28t-49 10t-49 -10t-33 -28t-18.5 -42t-5.5 -52v-364q0 -28 5.5 -52t18.5 -41.5t33 -27.5t49 -10t49 10t33 27.5t18.5 41.5t5.5 52v83
h44v-80q0 -38 -8.5 -70.5t-27 -56t-47 -37t-68.5 -13.5t-68.5 13.5t-47 37t-27 56t-8.5 70.5v358q0 38 8.5 70.5t27 56t47 37t68.5 13.5z" />
    <glyph glyph-name="cdotaccent" unicode="&#x10b;" horiz-adv-x="451" 
d="M236 824v-84h-41v84h41zM216 706q40 0 68.5 -13.5t47 -37t27 -56t8.5 -70.5v-58h-44v61q0 28 -5.5 52t-18.5 42t-33 28t-49 10t-49 -10t-33 -28t-18.5 -42t-5.5 -52v-364q0 -28 5.5 -52t18.5 -41.5t33 -27.5t49 -10t49 10t33 27.5t18.5 41.5t5.5 52v83h44v-80
q0 -38 -8.5 -70.5t-27 -56t-47 -37t-68.5 -13.5t-68.5 13.5t-47 37t-27 56t-8.5 70.5v358q0 38 8.5 70.5t27 56t47 37t68.5 13.5z" />
    <glyph glyph-name="d" unicode="d" horiz-adv-x="467" 
d="M228 700q40 0 69.5 -12.5t48.5 -35.5t28 -55t9 -71v-352q0 -39 -9 -71t-28 -55t-48.5 -35.5t-69.5 -12.5h-154v700h154zM227 42q59 0 84.5 36t25.5 94v356q0 58 -26 94t-84 36h-107v-616h107z" />
    <glyph glyph-name="eth" unicode="&#xf0;" horiz-adv-x="432" 
d="M238 700q40 0 69.5 -12.5t48.5 -35.5t28 -55t9 -71v-352q0 -39 -9 -71t-28 -55t-48.5 -35.5t-69.5 -12.5h-154v330h-42v38h42v332h154zM220 330h-90v-288h107q59 0 84.5 36t25.5 94v356q0 58 -26 94t-84 36h-107v-290h90v-38z" />
    <glyph glyph-name="dcaron" unicode="&#x10f;" horiz-adv-x="467" 
d="M155 830l61 -64l61 64h44l-85 -90h-40l-84 90h43zM228 700q40 0 69.5 -12.5t48.5 -35.5t28 -55t9 -71v-352q0 -39 -9 -71t-28 -55t-48.5 -35.5t-69.5 -12.5h-154v700h154zM227 42q59 0 84.5 36t25.5 94v356q0 58 -26 94t-84 36h-107v-616h107z" />
    <glyph glyph-name="dcroat" unicode="&#x111;" horiz-adv-x="432" 
d="M238 700q40 0 69.5 -12.5t48.5 -35.5t28 -55t9 -71v-352q0 -39 -9 -71t-28 -55t-48.5 -35.5t-69.5 -12.5h-154v330h-42v38h42v332h154zM220 330h-90v-288h107q59 0 84.5 36t25.5 94v356q0 58 -26 94t-84 36h-107v-290h90v-38z" />
    <glyph glyph-name="e" unicode="e" 
d="M311 376v-42h-191v-292h230v-42h-276v700h276v-42h-230v-282h191z" />
    <glyph glyph-name="eacute" unicode="&#xe9;" 
d="M294 835l-84 -95h-35l71 95h48zM311 376v-42h-191v-292h230v-42h-276v700h276v-42h-230v-282h191z" />
    <glyph glyph-name="ebreve" unicode="&#x115;" 
d="M308 832q-2 -42 -29 -65t-69 -23t-68.5 23t-27.5 65h30q1 -31 20.5 -44t45.5 -13q27 0 46.5 13t21.5 44h30zM311 376v-42h-191v-292h230v-42h-276v700h276v-42h-230v-282h191z" />
    <glyph glyph-name="ecaron" unicode="&#x11b;" 
d="M153 831l61 -64l61 64h43l-84 -90h-40l-84 90h43zM311 376v-42h-191v-292h230v-42h-276v700h276v-42h-230v-282h191z" />
    <glyph glyph-name="ecircumflex" unicode="&#xea;" 
d="M150 741h-43l84 90h40l85 -90h-44l-61 64zM311 376v-42h-191v-292h230v-42h-276v700h276v-42h-230v-282h191z" />
    <glyph glyph-name="edieresis" unicode="&#xeb;" 
d="M183 825v-85h-40v85h40zM280 825v-85h-41v85h41zM311 376v-42h-191v-292h230v-42h-276v700h276v-42h-230v-282h191z" />
    <glyph glyph-name="edotaccent" unicode="&#x117;" 
d="M234 827v-85h-41v85h41zM311 376v-42h-191v-292h230v-42h-276v700h276v-42h-230v-282h191z" />
    <glyph glyph-name="egrave" unicode="&#xe8;" 
d="M187 842l71 -95h-37l-84 95h50zM311 376v-42h-191v-292h230v-42h-276v700h276v-42h-230v-282h191z" />
    <glyph glyph-name="emacron" unicode="&#x113;" 
d="M303 796v-34h-188v34h188zM311 376v-42h-191v-292h230v-42h-276v700h276v-42h-230v-282h191z" />
    <glyph glyph-name="eogonek" unicode="&#x119;" horiz-adv-x="395" 
d="M311 376v-42h-191v-292h230v-42h-23q-19 -15 -32 -38q-13 -21 -13 -39v-3q1 -17 12.5 -24.5t26.5 -7.5q14 0 24.5 3.5t19.5 9.5v-28q-25 -13 -56 -13q-27 1 -44.5 13t-19.5 38v3q0 22 15 45q15 24 38 41h-224v700h276v-42h-230v-282h191z" />
    <glyph glyph-name="f" unicode="f" horiz-adv-x="377" 
d="M301 359v-42h-181v-317h-46v700h266v-42h-220v-299h181z" />
    <glyph glyph-name="g" unicode="g" horiz-adv-x="451" 
d="M216 706q40 0 68.5 -13.5t47 -37t27 -56t8.5 -70.5v-52h-44v55q0 28 -5.5 52t-18.5 42t-33 28t-49 10t-49 -10t-33 -28t-18.5 -42t-5.5 -52v-364q0 -28 5.5 -52t18.5 -41.5t33 -27.5t49 -10t49 10t33 27.5t18.5 41.5t5.5 52v151h-93v42h137v-190q0 -38 -8.5 -70.5
t-27 -56t-47 -37t-68.5 -13.5t-68.5 13.5t-47 37t-27 56t-8.5 70.5v358q0 38 8.5 70.5t27 56t47 37t68.5 13.5z" />
    <glyph glyph-name="gbreve" unicode="&#x11f;" horiz-adv-x="451" 
d="M314 834q-1 -42 -28 -65t-69 -23t-69 23t-28 65h30q2 -31 21 -44t46 -13q26 0 45.5 13t21.5 44h30zM216 706q40 0 68.5 -13.5t47 -37t27 -56t8.5 -70.5v-52h-44v55q0 28 -5.5 52t-18.5 42t-33 28t-49 10t-49 -10t-33 -28t-18.5 -42t-5.5 -52v-364q0 -28 5.5 -52
t18.5 -41.5t33 -27.5t49 -10t49 10t33 27.5t18.5 41.5t5.5 52v151h-93v42h137v-190q0 -38 -8.5 -70.5t-27 -56t-47 -37t-68.5 -13.5t-68.5 13.5t-47 37t-27 56t-8.5 70.5v358q0 38 8.5 70.5t27 56t47 37t68.5 13.5z" />
    <glyph glyph-name="gcircumflex" unicode="&#x11d;" horiz-adv-x="451" 
d="M156 747h-43l84 90h40l84 -90h-43l-61 64zM216 706q40 0 68.5 -13.5t47 -37t27 -56t8.5 -70.5v-52h-44v55q0 28 -5.5 52t-18.5 42t-33 28t-49 10t-49 -10t-33 -28t-18.5 -42t-5.5 -52v-364q0 -28 5.5 -52t18.5 -41.5t33 -27.5t49 -10t49 10t33 27.5t18.5 41.5t5.5 52v151
h-93v42h137v-190q0 -38 -8.5 -70.5t-27 -56t-47 -37t-68.5 -13.5t-68.5 13.5t-47 37t-27 56t-8.5 70.5v358q0 38 8.5 70.5t27 56t47 37t68.5 13.5z" />
    <glyph glyph-name="gdotaccent" unicode="&#x121;" horiz-adv-x="451" 
d="M242 828v-85h-40v85h40zM216 706q40 0 68.5 -13.5t47 -37t27 -56t8.5 -70.5v-52h-44v55q0 28 -5.5 52t-18.5 42t-33 28t-49 10t-49 -10t-33 -28t-18.5 -42t-5.5 -52v-364q0 -28 5.5 -52t18.5 -41.5t33 -27.5t49 -10t49 10t33 27.5t18.5 41.5t5.5 52v151h-93v42h137v-190
q0 -38 -8.5 -70.5t-27 -56t-47 -37t-68.5 -13.5t-68.5 13.5t-47 37t-27 56t-8.5 70.5v358q0 38 8.5 70.5t27 56t47 37t68.5 13.5z" />
    <glyph glyph-name="h" unicode="h" horiz-adv-x="469" 
d="M120 329v-329h-46v700h46v-329h218v329h47v-700h-47v329h-218z" />
    <glyph glyph-name="hbar" unicode="&#x127;" horiz-adv-x="511" 
d="M390 525v-525h-46v329h-218v-329h-46v525h-38v35h38v140h46v-140h218v140h46v-140h37v-35h-37zM344 525h-218v-154h218v154z" />
    <glyph glyph-name="hcircumflex" unicode="&#x125;" horiz-adv-x="469" 
d="M168 745h-43l84 90h40l85 -90h-44l-61 64zM120 329v-329h-46v700h46v-329h218v329h47v-700h-47v329h-218z" />
    <glyph glyph-name="i" unicode="i" horiz-adv-x="180" 
d="M120 700v-700h-46v700h46z" />
    <glyph glyph-name="dotlessi" unicode="&#x131;" horiz-adv-x="180" 
d="M120 700v-700h-46v700h46z" />
    <glyph glyph-name="iacute" unicode="&#xed;" horiz-adv-x="232" 
d="M145 836h48l-84 -95h-35zM89 700h46v-700h-46v700z" />
    <glyph glyph-name="ibreve" unicode="&#x12d;" horiz-adv-x="202" 
d="M197 828q-1 -42 -28 -65.5t-69 -23.5t-69 23.5t-28 65.5h30q2 -31 21.5 -44.5t45.5 -13.5t45.5 13.5t21.5 44.5h30zM77 700h46v-700h-46v700z" />
    <glyph glyph-name="icircumflex" unicode="&#xee;" horiz-adv-x="234" 
d="M132 830l84 -90h-43l-61 64l-61 -64h-43l84 90h40zM89 700h46v-700h-46v700z" />
    <glyph glyph-name="idieresis" unicode="&#xef;" horiz-adv-x="219" 
d="M83 825v-84h-41v84h41zM180 825v-84h-41v84h41zM134 700v-700h-46v700h46z" />
    <glyph glyph-name="igrave" unicode="&#xec;" horiz-adv-x="198" 
d="M18 835h49l71 -95h-36zM82 700h46v-700h-46v700z" />
    <glyph glyph-name="ij" unicode="&#x133;" horiz-adv-x="459" 
d="M120 700v-700h-46v700h46zM375 172q0 -47 -10 -79t-29 -52.5t-45.5 -30t-59.5 -11.5h-21q-10 0 -21 1v42h37q54 4 78.5 33t24.5 94v531h46v-528z" />
    <glyph glyph-name="imacron" unicode="&#x12b;" horiz-adv-x="225" 
d="M186 793v-33h-168v33h168zM125 700v-700h-46v700h46z" />
    <glyph glyph-name="iogonek" unicode="&#x12f;" horiz-adv-x="202" 
d="M123 0q-18 -15 -31 -38q-12 -21 -12 -39v-3q1 -17 12.5 -24.5t26.5 -7.5q26 0 44 13v-28q-25 -13 -56 -13q-26 1 -44 13t-20 38v3q0 22 13 44q14 23 40 42h-13l1 700h46v-700h-7z" />
    <glyph glyph-name="itilde" unicode="&#x129;" horiz-adv-x="226" 
d="M221 799q-20 -47 -58 -48q-14 0 -26 5t-23 11.5t-22 11.5t-23 5q-25 0 -41 -30l-25 17q22 47 62 47q15 0 27 -5t23.5 -11.5t22 -11.5t21.5 -5q12 0 21 8.5t16 21.5zM134 700v-700h-46v700h46z" />
    <glyph glyph-name="j" unicode="j" horiz-adv-x="265" 
d="M-5 42q7 -1 14 -1q4 0 7 1q10 0 20 1q50 4 74.5 32.5t24.5 93.5v531h46v-528q0 -92 -38 -130.5t-102 -41.5h-46v42z" />
    <glyph glyph-name="uni0237" unicode="&#x237;" horiz-adv-x="265" 
d="M-5 42q7 -1 14 -1q4 0 7 1q10 0 20 1q50 4 74.5 32.5t24.5 93.5v531h46v-528q0 -92 -38 -130.5t-102 -41.5h-46v42z" />
    <glyph glyph-name="jcircumflex" unicode="&#x135;" horiz-adv-x="297" 
d="M92 741h-43l84 90h40l85 -90h-44l-61 64zM183 172q0 -92 -38 -130.5t-102 -41.5h-46v42q7 -1 14 -1q4 0 7 1q10 0 20 1q50 4 74.5 32.5t24.5 93.5v531h46v-528z" />
    <glyph glyph-name="k" unicode="k" horiz-adv-x="439" 
d="M168 329l-48 -76v-253h-46v700h46v-370l228 370h48l-200 -326l213 -374h-48z" />
    <glyph glyph-name="kgreenlandic" unicode="&#x138;" horiz-adv-x="439" 
d="M168 329l-48 -76v-253h-46v700h46v-370l228 370h48l-200 -326l213 -374h-48z" />
    <glyph glyph-name="l" unicode="l" horiz-adv-x="342" 
d="M74 0v700h46v-658h220v-42h-266z" />
    <glyph glyph-name="lacute" unicode="&#x13a;" horiz-adv-x="342" 
d="M193 836l-84 -95h-35l71 95h48zM74 0v700h46v-658h220v-42h-266z" />
    <glyph glyph-name="lcaron" unicode="&#x13e;" horiz-adv-x="370" 
d="M74 0v700h46v-658h220v-42h-266zM265 612h-16v88h45v-84l-29 -80h-20z" />
    <glyph glyph-name="ldot" unicode="&#x140;" horiz-adv-x="353" 
d="M74 0v700h46v-658h220v-42h-266zM264 397v-88h-45v88h45z" />
    <glyph glyph-name="lslash" unicode="&#x142;" horiz-adv-x="363" 
d="M141 317v-275h220v-42h-266v268l-53 -49v44l53 49v388h46v-339l96 96v-45z" />
    <glyph glyph-name="m" unicode="m" horiz-adv-x="583" 
d="M309 1h-46l-148 619v-620h-41v700h66l147 -619l146 619h66v-700h-44v622z" />
    <glyph glyph-name="n" unicode="n" horiz-adv-x="470" 
d="M116 0h-42v700h60l210 -591v591h42v-700h-51l-219 624v-624z" />
    <glyph glyph-name="nacute" unicode="&#x144;" horiz-adv-x="470" 
d="M316 837l-84 -95h-35l72 95h47zM116 1h-42v700h60l210 -591v591h42v-700h-51l-219 624v-624z" />
    <glyph glyph-name="napostrophe" unicode="&#x149;" horiz-adv-x="504" 
d="M53 612h-16v88h44v-84l-28 -80h-21zM174 0h-42v700h61l210 -591v591h41v-700h-50l-220 624v-624z" />
    <glyph glyph-name="ncaron" unicode="&#x148;" horiz-adv-x="470" 
d="M170 835l61 -63l61 63h43l-84 -90h-40l-84 90h43zM116 0h-42v700h60l210 -591v591h42v-700h-51l-219 624v-624z" />
    <glyph glyph-name="ntilde" unicode="&#xf1;" horiz-adv-x="470" 
d="M339 802q-19 -45 -58 -47q-14 0 -25.5 5t-22.5 11.5t-22 11.5t-23 5q-25 0 -42 -30l-24 16q19 46 62 48q14 0 26 -5t23.5 -11.5t22.5 -11.5q8 -5 18 -5h3q13 0 22 8.5t16 21.5zM116 0h-42v700h60l210 -591v591h42v-700h-51l-219 624v-624z" />
    <glyph glyph-name="o" unicode="o" horiz-adv-x="457" 
d="M65 529q0 38 9 70.5t27.5 56t47.5 37t69 13.5t69.5 -13.5t48.5 -37t28 -56t9 -70.5v-358q0 -38 -9 -70.5t-28 -56t-48.5 -37t-69.5 -13.5t-69 13.5t-47.5 37t-27.5 56t-9 70.5v358zM111 168q0 -57 24.5 -94.5t82.5 -37.5t83.5 37.5t25.5 94.5v364q0 57 -25.5 94.5
t-83.5 37.5t-82.5 -37.5t-24.5 -94.5v-364z" />
    <glyph glyph-name="oacute" unicode="&#xf3;" horiz-adv-x="457" 
d="M299 842l-84 -95h-35l71 95h48zM218 706q40 0 69.5 -13.5t48.5 -37t28 -56t9 -70.5v-358q0 -38 -9 -70.5t-28 -56t-48.5 -37t-69.5 -13.5t-69 13.5t-47.5 37t-27.5 56t-9 70.5v358q0 38 9 70.5t27.5 56t47.5 37t69 13.5zM218 664q-58 0 -82.5 -37.5t-24.5 -94.5v-364
q0 -57 24.5 -94.5t82.5 -37.5t83.5 37.5t25.5 94.5v364q0 57 -25.5 94.5t-83.5 37.5z" />
    <glyph glyph-name="obreve" unicode="&#x14f;" horiz-adv-x="457" 
d="M316 834q-2 -42 -29 -65t-69 -23t-68.5 23t-27.5 65h29q2 -31 21.5 -44t45.5 -13t46 13t22 44h30zM218 706q40 0 69.5 -13.5t48.5 -37t28 -56t9 -70.5v-358q0 -38 -9 -70.5t-28 -56t-48.5 -37t-69.5 -13.5t-69 13.5t-47.5 37t-27.5 56t-9 70.5v358q0 38 9 70.5t27.5 56
t47.5 37t69 13.5zM218 664q-58 0 -82.5 -37.5t-24.5 -94.5v-364q0 -57 24.5 -94.5t82.5 -37.5t83.5 37.5t25.5 94.5v364q0 57 -25.5 94.5t-83.5 37.5z" />
    <glyph glyph-name="ocircumflex" unicode="&#xf4;" horiz-adv-x="457" 
d="M157 745h-43l84 90h40l84 -90h-43l-61 64zM218 706q40 0 69.5 -13.5t48.5 -37t28 -56t9 -70.5v-358q0 -38 -9 -70.5t-28 -56t-48.5 -37t-69.5 -13.5t-69 13.5t-47.5 37t-27.5 56t-9 70.5v358q0 38 9 70.5t27.5 56t47.5 37t69 13.5zM218 664q-58 0 -82.5 -37.5
t-24.5 -94.5v-364q0 -57 24.5 -94.5t82.5 -37.5t83.5 37.5t25.5 94.5v364q0 57 -25.5 94.5t-83.5 37.5z" />
    <glyph glyph-name="odieresis" unicode="&#xf6;" horiz-adv-x="457" 
d="M190 830v-85h-41v85h41zM287 830v-85h-41v85h41zM218 706q40 0 69.5 -13.5t48.5 -37t28 -56t9 -70.5v-358q0 -38 -9 -70.5t-28 -56t-48.5 -37t-69.5 -13.5t-69 13.5t-47.5 37t-27.5 56t-9 70.5v358q0 38 9 70.5t27.5 56t47.5 37t69 13.5zM218 664q-58 0 -82.5 -37.5
t-24.5 -94.5v-364q0 -57 24.5 -94.5t82.5 -37.5t83.5 37.5t25.5 94.5v364q0 57 -25.5 94.5t-83.5 37.5z" />
    <glyph glyph-name="ograve" unicode="&#xf2;" horiz-adv-x="457" 
d="M186 842l71 -95h-37l-84 95h50zM218 706q40 0 69.5 -13.5t48.5 -37t28 -56t9 -70.5v-358q0 -38 -9 -70.5t-28 -56t-48.5 -37t-69.5 -13.5t-69 13.5t-47.5 37t-27.5 56t-9 70.5v358q0 38 9 70.5t27.5 56t47.5 37t69 13.5zM218 664q-58 0 -82.5 -37.5t-24.5 -94.5v-364
q0 -57 24.5 -94.5t82.5 -37.5t83.5 37.5t25.5 94.5v364q0 57 -25.5 94.5t-83.5 37.5z" />
    <glyph glyph-name="ohungarumlaut" unicode="&#x151;" horiz-adv-x="457" 
d="M256 842l-77 -95h-33l65 95h45zM341 842l-78 -95h-32l65 95h45zM218 706q40 0 69.5 -13.5t48.5 -37t28 -56t9 -70.5v-358q0 -38 -9 -70.5t-28 -56t-48.5 -37t-69.5 -13.5t-69 13.5t-47.5 37t-27.5 56t-9 70.5v358q0 38 9 70.5t27.5 56t47.5 37t69 13.5zM218 664
q-58 0 -82.5 -37.5t-24.5 -94.5v-364q0 -57 24.5 -94.5t82.5 -37.5t83.5 37.5t25.5 94.5v364q0 57 -25.5 94.5t-83.5 37.5z" />
    <glyph glyph-name="omacron" unicode="&#x14d;" horiz-adv-x="457" 
d="M313 794v-34h-187v34h187zM218 706q40 0 69.5 -13.5t48.5 -37t28 -56t9 -70.5v-358q0 -38 -9 -70.5t-28 -56t-48.5 -37t-69.5 -13.5t-69 13.5t-47.5 37t-27.5 56t-9 70.5v358q0 38 9 70.5t27.5 56t47.5 37t69 13.5zM218 664q-58 0 -82.5 -37.5t-24.5 -94.5v-364
q0 -57 24.5 -94.5t82.5 -37.5t83.5 37.5t25.5 94.5v364q0 57 -25.5 94.5t-83.5 37.5z" />
    <glyph glyph-name="oslash" unicode="&#xf8;" horiz-adv-x="466" 
d="M353 645q15 -23 22 -52t7 -64v-358q0 -38 -9 -70.5t-28 -56t-48.5 -37t-69.5 -13.5q-35 0 -62 10.5t-45 29.5l-20 -51l-23 8l25 66q-28 44 -28 114v358q0 38 9 70.5t27.5 56t47.5 37t69 13.5q36 0 62.5 -10.5t45.5 -29.5l19 49l22 -8zM120 168q0 -14 1.5 -26.5t3.5 -24.5
l192 501q-13 21 -35 33.5t-55 12.5q-58 0 -82.5 -37.5t-24.5 -94.5v-364zM336 532q0 28 -6 54l-192 -503q13 -22 34.5 -34.5t54.5 -12.5q58 0 83.5 37.5t25.5 94.5v364z" />
    <glyph glyph-name="oslashacute" unicode="&#x1ff;" horiz-adv-x="466" 
d="M267 842h48l-84 -95h-35zM353 645q15 -23 22 -52t7 -64v-358q0 -38 -9 -70.5t-28 -56t-48.5 -37t-69.5 -13.5q-35 0 -62 10.5t-45 29.5l-20 -51l-23 8l25 66q-28 44 -28 114v358q0 38 9 70.5t27.5 56t47.5 37t69 13.5q36 0 62.5 -10.5t45.5 -29.5l19 49l22 -8zM120 168
q0 -14 1.5 -26.5t3.5 -24.5l192 501q-13 21 -35 33.5t-55 12.5q-58 0 -82.5 -37.5t-24.5 -94.5v-364zM336 532q0 28 -6 54l-192 -503q13 -22 34.5 -34.5t54.5 -12.5q58 0 83.5 37.5t25.5 94.5v364z" />
    <glyph glyph-name="otilde" unicode="&#xf5;" horiz-adv-x="457" 
d="M331 800q-9 -22 -23.5 -34.5t-34.5 -13.5q-14 0 -25.5 5t-22.5 11.5t-22 12t-23 5.5q-27 0 -42 -31l-25 17q22 47 63 47q14 0 26 -5t23.5 -11.5t22 -11.5t21.5 -5q13 1 22 9t15 21zM218 706q40 0 69.5 -13.5t48.5 -37t28 -56t9 -70.5v-358q0 -38 -9 -70.5t-28 -56
t-48.5 -37t-69.5 -13.5t-69 13.5t-47.5 37t-27.5 56t-9 70.5v358q0 38 9 70.5t27.5 56t47.5 37t69 13.5zM218 664q-58 0 -82.5 -37.5t-24.5 -94.5v-364q0 -57 24.5 -94.5t82.5 -37.5t83.5 37.5t25.5 94.5v364q0 57 -25.5 94.5t-83.5 37.5z" />
    <glyph glyph-name="oe" unicode="&#x153;" horiz-adv-x="611" 
d="M526 376v-42h-170v-292h205v-42h-350q-39 0 -67 13.5t-45.5 37t-25.5 55.5t-8 68v352q0 36 8 68t25.5 55.5t45.5 37t67 13.5h350v-42h-205v-282h170zM212 658q-28 0 -47 -10.5t-31 -28t-17.5 -41t-5.5 -50.5v-356q0 -27 5.5 -50.5t17.5 -41t31 -28t47 -10.5h98v616h-98z
" />
    <glyph glyph-name="p" unicode="p" horiz-adv-x="431" 
d="M219 700q81 0 115.5 -46.5t34.5 -123.5v-76q0 -84 -39 -125t-123 -41h-87v-288h-46v700h145zM207 330q61 0 88.5 28.5t27.5 92.5v82q0 57 -22.5 91t-81.5 34h-99v-328h87z" />
    <glyph glyph-name="thorn" unicode="&#xfe;" horiz-adv-x="429" 
d="M219 578q81 0 115.5 -46.5t34.5 -123.5v-76q0 -84 -39 -125t-123 -41h-87v-166h-46v700h46v-122h99zM207 208q61 0 88.5 28.5t27.5 92.5v81q0 58 -22.5 91.5t-81.5 33.5h-99v-327h87z" />
    <glyph glyph-name="q" unicode="q" horiz-adv-x="466" 
d="M219 706q40 0 69 -13.5t48 -37t28 -56t9 -70.5v-358q0 -36 -8 -67t-25 -54q9 -16 22.5 -22t32.5 -6h11v-41h-12q-58 0 -83 41q-17 -13 -40 -20.5t-52 -7.5q-40 0 -69 13.5t-48 37t-28 56t-9 70.5v358q0 38 9 70.5t28 56t48 37t69 13.5zM219 664q-58 0 -83 -37.5
t-25 -94.5v-364q0 -57 25 -94.5t83 -37.5t83 37.5t25 94.5v364q0 57 -25 94.5t-83 37.5z" />
    <glyph glyph-name="r" unicode="r" horiz-adv-x="447" 
d="M220 700q80 0 115 -42t35 -116v-61q0 -122 -101 -145q54 -12 77.5 -49t23.5 -94v-109q0 -22 3 -44.5t14 -39.5h-48q-9 16 -12 35.5t-3 48.5v110q0 35 -9 58t-26.5 36.5t-41.5 19t-54 5.5h-73v-313h-46v700h146zM194 355q31 0 55 5t40.5 18t25.5 36t9 58v66q0 57 -24 88.5
t-81 31.5h-99v-303h74z" />
    <glyph glyph-name="racute" unicode="&#x155;" horiz-adv-x="447" 
d="M295 842l-84 -95h-35l71 95h48zM220 700q80 0 115 -42t35 -116v-61q0 -122 -101 -145q54 -12 77.5 -49t23.5 -94v-109q0 -22 3 -44.5t14 -39.5h-48q-9 16 -12 35.5t-3 48.5v110q0 35 -9 58t-26.5 36.5t-41.5 19t-54 5.5h-73v-313h-46v700h146zM194 355q31 0 55 5t40.5 18
t25.5 36t9 58v66q0 57 -24 88.5t-81 31.5h-99v-303h74z" />
    <glyph glyph-name="rcaron" unicode="&#x159;" horiz-adv-x="447" 
d="M150 836l61 -64l61 64h44l-85 -90h-40l-84 90h43zM220 700q80 0 115 -42t35 -116v-61q0 -122 -101 -145q54 -12 77.5 -49t23.5 -94v-109q0 -22 3 -44.5t14 -39.5h-48q-9 16 -12 35.5t-3 48.5v110q0 35 -9 58t-26.5 36.5t-41.5 19t-54 5.5h-73v-313h-46v700h146zM194 355
q31 0 55 5t40.5 18t25.5 36t9 58v66q0 57 -24 88.5t-81 31.5h-99v-303h74z" />
    <glyph glyph-name="s" unicode="s" horiz-adv-x="417" 
d="M207 706q40 0 68 -13t46 -36.5t26.5 -55.5t8.5 -70v-15h-44v18q0 28 -5.5 51.5t-18 41t-32.5 27.5t-48 10q-57 0 -80.5 -36.5t-23.5 -92.5q0 -43 18.5 -73t47 -54.5t61 -47t61 -49t47 -60.5t18.5 -82q0 -38 -8.5 -70t-27 -55.5t-47 -36.5t-68.5 -13t-68.5 13t-47 36.5
t-27 55.5t-8.5 70v36h44v-39q0 -56 24 -92.5t82 -36.5t82 36.5t24 92.5q0 42 -18.5 72t-47 54.5t-61 46.5t-61 48.5t-47 61t-18.5 83.5q0 79 35.5 126t113.5 48z" />
    <glyph glyph-name="sacute" unicode="&#x15b;" horiz-adv-x="417" 
d="M294 842l-84 -95h-35l71 95h48zM207 706q40 0 68 -13t46 -36.5t26.5 -55.5t8.5 -70v-15h-44v18q0 28 -5.5 51.5t-18 41t-32.5 27.5t-48 10q-57 0 -80.5 -36.5t-23.5 -92.5q0 -43 18.5 -73t47 -54.5t61 -47t61 -49t47 -60.5t18.5 -82q0 -38 -8.5 -70t-27 -55.5t-47 -36.5
t-68.5 -13t-68.5 13t-47 36.5t-27 55.5t-8.5 70v36h44v-39q0 -56 24 -92.5t82 -36.5t82 36.5t24 92.5q0 42 -18.5 72t-47 54.5t-61 46.5t-61 48.5t-47 61t-18.5 83.5q0 79 35.5 126t113.5 48z" />
    <glyph glyph-name="scaron" unicode="&#x161;" horiz-adv-x="417" 
d="M147 836l61 -64l61 64h44l-85 -90h-40l-84 90h43zM207 706q40 0 68 -13t46 -36.5t26.5 -55.5t8.5 -70v-15h-44v18q0 28 -5.5 51.5t-18 41t-32.5 27.5t-48 10q-57 0 -80.5 -36.5t-23.5 -92.5q0 -43 18.5 -73t47 -54.5t61 -47t61 -49t47 -60.5t18.5 -82q0 -38 -8.5 -70
t-27 -55.5t-47 -36.5t-68.5 -13t-68.5 13t-47 36.5t-27 55.5t-8.5 70v36h44v-39q0 -56 24 -92.5t82 -36.5t82 36.5t24 92.5q0 42 -18.5 72t-47 54.5t-61 46.5t-61 48.5t-47 61t-18.5 83.5q0 79 35.5 126t113.5 48z" />
    <glyph glyph-name="scedilla" unicode="&#x15f;" horiz-adv-x="417" 
d="M218 -34q35 -1 55 -15.5t20 -40.5q0 -31 -23 -48q-23 -16 -61 -16h-5q-42 0 -65 16.5t-23 46.5v6h32v-5q0 -17 15 -27t41 -12q27 0 42 10.5t15 29.5q0 17 -15.5 27t-44.5 10h-7v47q-37 1 -63.5 15t-43 37t-24.5 54.5t-8 67.5v36h44v-39q0 -56 24 -92.5t82 -36.5t82 36.5
t24 92.5q0 42 -18.5 72t-47 54.5t-61 46.5t-61 48.5t-47 61t-18.5 83.5q0 79 35.5 126t113.5 48q40 0 68 -13t46 -36.5t26.5 -55.5t8.5 -70v-15h-44v18q0 28 -5.5 51.5t-18 41t-32.5 27.5t-48 10q-57 0 -80.5 -36.5t-23.5 -92.5q0 -43 18.5 -73t47 -54.5t61 -47t61 -49
t47 -60.5t18.5 -82q0 -74 -33 -122.5t-106 -52.5v-28z" />
    <glyph glyph-name="scircumflex" unicode="&#x15d;" horiz-adv-x="417" 
d="M150 745h-43l84 90h40l84 -90h-43l-61 64zM207 706q40 0 68 -13t46 -36.5t26.5 -55.5t8.5 -70v-15h-44v18q0 28 -5.5 51.5t-18 41t-32.5 27.5t-48 10q-57 0 -80.5 -36.5t-23.5 -92.5q0 -43 18.5 -73t47 -54.5t61 -47t61 -49t47 -60.5t18.5 -82q0 -38 -8.5 -70t-27 -55.5
t-47 -36.5t-68.5 -13t-68.5 13t-47 36.5t-27 55.5t-8.5 70v36h44v-39q0 -56 24 -92.5t82 -36.5t82 36.5t24 92.5q0 42 -18.5 72t-47 54.5t-61 46.5t-61 48.5t-47 61t-18.5 83.5q0 79 35.5 126t113.5 48z" />
    <glyph glyph-name="germandbls" unicode="&#xdf;" horiz-adv-x="764" 
d="M207 706q40 0 68 -13t46 -36.5t26.5 -55.5t8.5 -70v-15h-44v18q0 28 -5.5 51.5t-18 41t-32.5 27.5t-48 10q-57 0 -80.5 -36.5t-23.5 -92.5q0 -43 18.5 -73t47 -54.5t61 -47t61 -49t47 -60.5t18.5 -82q0 -38 -8.5 -70t-27 -55.5t-47 -36.5t-68.5 -13t-68.5 13t-47 36.5
t-27 55.5t-8.5 70v36h44v-39q0 -56 24 -92.5t82 -36.5q57 0 81.5 36t24.5 93q0 42 -18.5 72t-47 54.5t-61 46.5t-61 48.5t-47 61t-18.5 83.5q0 79 35.5 126t113.5 48zM554 706q40 0 68 -13t46 -36.5t26.5 -55.5t8.5 -70v-15h-44v18q0 28 -5.5 51.5t-18 41t-32.5 27.5t-48 10
q-57 0 -80.5 -36.5t-23.5 -92.5q0 -43 18.5 -73t47 -54.5t61 -47t61 -49t47 -60.5t18.5 -82q0 -38 -8.5 -70t-27 -55.5t-47 -36.5t-68.5 -13t-68.5 13t-47 36.5t-27 55.5t-8.5 70v36h44v-39q0 -56 24 -92.5t82 -36.5t82 36.5t24 92.5q0 42 -18.5 72t-47 54.5t-61 46.5
t-61 48.5t-47 61t-18.5 83.5q0 79 35.5 126t113.5 48z" />
    <glyph glyph-name="t" unicode="t" horiz-adv-x="336" 
d="M147 0v658h-142v42h331v-42h-143v-658h-46z" />
    <glyph glyph-name="tbar" unicode="&#x167;" horiz-adv-x="337" 
d="M270 465v-35h-76v-430h-46v430h-76v35h76v193h-143v42h332v-42h-143v-193h76z" />
    <glyph glyph-name="tcaron" unicode="&#x165;" horiz-adv-x="337" 
d="M109 831l62 -63l61 63h43l-84 -90h-41l-83 90h42zM148 0v658h-143v42h332v-42h-143v-658h-46z" />
    <glyph glyph-name="u" unicode="u" horiz-adv-x="456" 
d="M119 169q0 -28 5.5 -52.5t18 -42.5t32.5 -28t49 -10t49 10t32.5 28t18 42.5t5.5 52.5v531h43v-529q0 -38 -8 -70t-26 -56t-46.5 -37.5t-68.5 -13.5t-68.5 13.5t-46.5 37.5t-26.5 56t-8.5 70v529h46v-531z" />
    <glyph glyph-name="uacute" unicode="&#xfa;" horiz-adv-x="456" 
d="M310 842l-84 -95h-35l71 95h48zM372 171q0 -38 -8 -70t-26 -56t-46.5 -37.5t-68.5 -13.5t-68.5 13.5t-46.5 37.5t-26.5 56t-8.5 70v529h46v-531q0 -28 5.5 -52.5t18 -42.5t32.5 -28t49 -10t49 10t32.5 28t18 42.5t5.5 52.5v531h43v-529z" />
    <glyph glyph-name="ubreve" unicode="&#x16d;" horiz-adv-x="456" 
d="M321 828q-1 -42 -28 -65.5t-69 -23.5t-69 23.5t-28 65.5h30q2 -31 21.5 -44.5t45.5 -13.5t46 13.5t22 44.5h29zM372 171q0 -38 -8 -70t-26 -56t-46.5 -37.5t-68.5 -13.5t-68.5 13.5t-46.5 37.5t-26.5 56t-8.5 70v529h46v-531q0 -28 5.5 -52.5t18 -42.5t32.5 -28t49 -10
t49 10t32.5 28t18 42.5t5.5 52.5v531h43v-529z" />
    <glyph glyph-name="ucircumflex" unicode="&#xfb;" horiz-adv-x="456" 
d="M163 745h-43l84 90h40l85 -90h-44l-61 64zM372 171q0 -38 -8 -70t-26 -56t-46.5 -37.5t-68.5 -13.5t-68.5 13.5t-46.5 37.5t-26.5 56t-8.5 70v529h46v-531q0 -28 5.5 -52.5t18 -42.5t32.5 -28t49 -10t49 10t32.5 28t18 42.5t5.5 52.5v531h43v-529z" />
    <glyph glyph-name="udieresis" unicode="&#xfc;" horiz-adv-x="456" 
d="M195 828v-85h-41v85h41zM292 828v-85h-41v85h41zM372 171q0 -38 -8 -70t-26 -56t-46.5 -37.5t-68.5 -13.5t-68.5 13.5t-46.5 37.5t-26.5 56t-8.5 70v529h46v-531q0 -28 5.5 -52.5t18 -42.5t32.5 -28t49 -10t49 10t32.5 28t18 42.5t5.5 52.5v531h43v-529z" />
    <glyph glyph-name="ugrave" unicode="&#xf9;" horiz-adv-x="456" 
d="M190 836l71 -95h-37l-84 95h50zM372 171q0 -38 -8 -70t-26 -56t-46.5 -37.5t-68.5 -13.5t-68.5 13.5t-46.5 37.5t-26.5 56t-8.5 70v529h46v-531q0 -28 5.5 -52.5t18 -42.5t32.5 -28t49 -10t49 10t32.5 28t18 42.5t5.5 52.5v531h43v-529z" />
    <glyph glyph-name="uhungarumlaut" unicode="&#x171;" horiz-adv-x="456" 
d="M260 840l-77 -95h-33l65 95h45zM345 840l-78 -95h-32l65 95h45zM372 171q0 -38 -8 -70t-26 -56t-46.5 -37.5t-68.5 -13.5t-68.5 13.5t-46.5 37.5t-26.5 56t-8.5 70v529h46v-531q0 -28 5.5 -52.5t18 -42.5t32.5 -28t49 -10t49 10t32.5 28t18 42.5t5.5 52.5v531h43v-529z
" />
    <glyph glyph-name="umacron" unicode="&#x16b;" horiz-adv-x="456" 
d="M317 793v-33h-182v33h182zM372 171q0 -38 -8 -70t-26 -56t-46.5 -37.5t-68.5 -13.5t-68.5 13.5t-46.5 37.5t-26.5 56t-8.5 70v529h46v-531q0 -28 5.5 -52.5t18 -42.5t32.5 -28t49 -10t49 10t32.5 28t18 42.5t5.5 52.5v531h43v-529z" />
    <glyph glyph-name="uni0123" unicode="&#x123;" horiz-adv-x="451" 
d="M216 706q40 0 68.5 -13.5t47 -37t27 -56t8.5 -70.5v-52h-44v55q0 28 -5.5 52t-18.5 42t-33 28t-49 10t-49 -10t-33 -28t-18.5 -42t-5.5 -52v-364q0 -28 5.5 -52t18.5 -41.5t33 -27.5t49 -10t49 10t33 27.5t18.5 41.5t5.5 52v151h-93v42h137v-190q0 -38 -8.5 -70.5
t-27 -56t-47 -37t-68.5 -13.5t-68.5 13.5t-47 37t-27 56t-8.5 70.5v358q0 38 8.5 70.5t27 56t47 37t68.5 13.5zM210 -117h-14v83h40v-79l-27 -63h-19z" />
    <glyph glyph-name="uni0137" unicode="&#x137;" horiz-adv-x="439" 
d="M168 329l-48 -76v-253h-46v700h46v-370l228 370h48l-200 -326l213 -374h-48zM223 -117h-14v83h40v-79l-27 -63h-19z" />
    <glyph glyph-name="uni013C" unicode="&#x13c;" horiz-adv-x="342" 
d="M74 0v700h46v-658h220v-42h-266zM213 -117h-14v83h39v-79l-27 -63h-18z" />
    <glyph glyph-name="uni0146" unicode="&#x146;" horiz-adv-x="470" 
d="M116 0h-42v700h60l210 -591v591h42v-700h-51l-219 624v-624zM222 -117h-13v83h39v-79l-27 -63h-18z" />
    <glyph glyph-name="uni0157" unicode="&#x157;" horiz-adv-x="447" 
d="M220 700q80 0 115 -42t35 -116v-61q0 -122 -101 -145q54 -12 77.5 -49t23.5 -94v-109q0 -22 3 -44.5t14 -39.5h-48q-9 16 -12 35.5t-3 48.5v110q0 35 -9 58t-26.5 36.5t-41.5 19t-54 5.5h-73v-313h-46v700h146zM194 355q31 0 55 5t40.5 18t25.5 36t9 58v66q0 57 -24 88.5
t-81 31.5h-99v-303h74zM219 -117h-14v83h40v-79l-27 -63h-19z" />
    <glyph glyph-name="uni0163" unicode="&#x163;" horiz-adv-x="332" 
d="M180 0v-36q29 -1 49 -13t20 -43q0 -18 -8 -31t-20.5 -21.5t-28 -12t-30.5 -3.5t-30 4t-26.5 11.5t-19 19.5t-7.5 29v6h28v-6q0 -21 19 -29t37 -9q19 0 37.5 9t18.5 32q0 24 -19.5 31.5t-41.5 7.5h-7v54h-8v658h-143v42h332v-42h-143v-658h-9z" />
    <glyph glyph-name="uni0219" unicode="&#x219;" horiz-adv-x="417" 
d="M207 706q40 0 68 -13t46 -36.5t26.5 -55.5t8.5 -70v-15h-44v18q0 28 -5.5 51.5t-18 41t-32.5 27.5t-48 10q-57 0 -80.5 -36.5t-23.5 -92.5q0 -43 18.5 -73t47 -54.5t61 -47t61 -49t47 -60.5t18.5 -82q0 -38 -8.5 -70t-27 -55.5t-47 -36.5t-68.5 -13t-68.5 13t-47 36.5
t-27 55.5t-8.5 70v36h44v-39q0 -56 24 -92.5t82 -36.5t82 36.5t24 92.5q0 42 -18.5 72t-47 54.5t-61 46.5t-61 48.5t-47 61t-18.5 83.5q0 79 35.5 126t113.5 48zM199 -117h-14v83h40v-79l-27 -63h-19z" />
    <glyph glyph-name="uni021B" unicode="&#x21b;" horiz-adv-x="332" 
d="M143 0v658h-143v42h332v-42h-143v-658h-46zM160 -117h-14v83h40v-79l-27 -63h-19z" />
    <glyph glyph-name="uni1E03" unicode="&#x1e03;" horiz-adv-x="461" 
d="M224 827v-85h-40v85h40zM221 700q79 0 111 -38t32 -111v-40q0 -57 -19.5 -92t-72.5 -46q57 -11 81 -50.5t24 -99.5v-61q0 -76 -36 -119t-117 -43h-150v700h147zM198 391q31 0 53.5 5t37.5 17.5t22 34t7 54.5v45q0 55 -21 83t-77 28h-100v-267h78zM224 42q58 0 82.5 31
t24.5 90v63q0 68 -31 95.5t-93 27.5h-87v-307h104z" />
    <glyph glyph-name="uni1E0B" unicode="&#x1e0b;" horiz-adv-x="467" 
d="M231 827v-85h-41v85h41zM228 700q40 0 69.5 -12.5t48.5 -35.5t28 -55t9 -71v-352q0 -39 -9 -71t-28 -55t-48.5 -35.5t-69.5 -12.5h-154v700h154zM227 42q59 0 84.5 36t25.5 94v356q0 58 -26 94t-84 36h-107v-616h107z" />
    <glyph glyph-name="uni1E1F" unicode="&#x1e1f;" horiz-adv-x="377" 
d="M233 827v-85h-41v85h41zM301 359v-42h-181v-317h-46v700h266v-42h-220v-299h181z" />
    <glyph glyph-name="uni1E41" unicode="&#x1e41;" horiz-adv-x="583" 
d="M307 832v-85h-41v85h41zM309 1h-46l-148 619v-620h-41v700h66l147 -619l146 619h66v-700h-44v622z" />
    <glyph glyph-name="uni1E57" unicode="&#x1e57;" horiz-adv-x="431" 
d="M230 827v-85h-41v85h41zM219 700q81 0 115.5 -46.5t34.5 -123.5v-76q0 -84 -39 -125t-123 -41h-87v-288h-46v700h145zM207 330q61 0 88.5 28.5t27.5 92.5v82q0 57 -22.5 91t-81.5 34h-99v-328h87z" />
    <glyph glyph-name="uni1E61" unicode="&#x1e61;" horiz-adv-x="417" 
d="M232 833v-84h-41v84h41zM207 706q40 0 68 -13t46 -36.5t26.5 -55.5t8.5 -70v-15h-44v18q0 28 -5.5 51.5t-18 41t-32.5 27.5t-48 10q-57 0 -80.5 -36.5t-23.5 -92.5q0 -43 18.5 -73t47 -54.5t61 -47t61 -49t47 -60.5t18.5 -82q0 -38 -8.5 -70t-27 -55.5t-47 -36.5
t-68.5 -13t-68.5 13t-47 36.5t-27 55.5t-8.5 70v36h44v-39q0 -56 24 -92.5t82 -36.5t82 36.5t24 92.5q0 42 -18.5 72t-47 54.5t-61 46.5t-61 48.5t-47 61t-18.5 83.5q0 79 35.5 126t113.5 48z" />
    <glyph glyph-name="uni1E6B" unicode="&#x1e6b;" horiz-adv-x="336" 
d="M191 827v-85h-41v85h41zM147 0v658h-142v42h331v-42h-143v-658h-46z" />
    <glyph glyph-name="uogonek" unicode="&#x173;" horiz-adv-x="456" 
d="M372 171q0 -27 -4 -53t-14 -48t-26.5 -39.5t-41.5 -27.5q-20 -15 -33 -39q-12 -23 -12 -41v-3q2 -17 13 -24.5t27 -7.5q14 0 24.5 3.5t19.5 9.5v-28q-26 -13 -56 -13q-27 1 -45 13t-19 38v3q0 22 13 43q14 22 35 39q-7 -1 -14.5 -1.5t-15.5 -0.5q-40 0 -68.5 13.5
t-46.5 37.5t-26.5 56t-8.5 70v529h46v-531q0 -28 5.5 -52.5t18 -42.5t32.5 -28t49 -10t49 10t32.5 28t18 42.5t5.5 52.5v531h43v-529z" />
    <glyph glyph-name="uring" unicode="&#x16f;" horiz-adv-x="456" 
d="M227 868q29 0 48.5 -18.5t19.5 -47.5q0 -28 -19.5 -47t-48.5 -19q-28 0 -47.5 19t-19.5 47q0 29 19.5 47.5t47.5 18.5zM227 844q-18 0 -30 -11.5t-12 -30.5q0 -18 12 -30t30 -12t30.5 12t12.5 30q0 19 -12.5 30.5t-30.5 11.5zM372 171q0 -38 -8 -70t-26 -56t-46.5 -37.5
t-68.5 -13.5t-68.5 13.5t-46.5 37.5t-26.5 56t-8.5 70v529h46v-531q0 -28 5.5 -52.5t18 -42.5t32.5 -28t49 -10t49 10t32.5 28t18 42.5t5.5 52.5v531h43v-529z" />
    <glyph glyph-name="utilde" unicode="&#x169;" horiz-adv-x="456" 
d="M333 800q-9 -22 -23.5 -34.5t-34.5 -13.5q-14 0 -25.5 5t-22.5 11.5t-22 12t-23 5.5q-27 0 -42 -31l-25 17q22 47 63 47q14 0 26 -5t23.5 -11.5t22 -11.5t21.5 -5q13 1 22 9t15 21zM372 171q0 -38 -8 -70t-26 -56t-46.5 -37.5t-68.5 -13.5t-68.5 13.5t-46.5 37.5
t-26.5 56t-8.5 70v529h46v-531q0 -28 5.5 -52.5t18 -42.5t32.5 -28t49 -10t49 10t32.5 28t18 42.5t5.5 52.5v531h43v-529z" />
    <glyph glyph-name="v" unicode="v" horiz-adv-x="423" 
d="M78 700l142 -647l142 647h43l-152 -700h-68l-154 700h47z" />
    <glyph glyph-name="w" unicode="w" horiz-adv-x="599" 
d="M209 0h-64l-113 700h45l105 -638l102 635h49l98 -633l101 636h41l-112 -700h-60l-94 573z" />
    <glyph glyph-name="wacute" unicode="&#x1e83;" horiz-adv-x="599" 
d="M383 836l-84 -95h-35l72 95h47zM209 0h-64l-113 700h45l105 -638l102 635h49l98 -633l101 636h41l-112 -700h-60l-94 573z" />
    <glyph glyph-name="wcircumflex" unicode="&#x175;" horiz-adv-x="599" 
d="M244 743h-43l84 90h40l84 -90h-43l-61 64zM209 0h-64l-113 700h45l105 -638l102 635h49l98 -633l101 636h41l-112 -700h-60l-94 573z" />
    <glyph glyph-name="wdieresis" unicode="&#x1e85;" horiz-adv-x="599" 
d="M278 830v-85h-41v85h41zM375 830v-85h-41v85h41zM209 0h-64l-113 700h45l105 -638l102 635h49l98 -633l101 636h41l-112 -700h-60l-94 573z" />
    <glyph glyph-name="wgrave" unicode="&#x1e81;" horiz-adv-x="599" 
d="M280 842l71 -95h-36l-85 95h50zM209 0h-64l-113 700h45l105 -638l102 635h49l98 -633l101 636h41l-112 -700h-60l-94 573z" />
    <glyph glyph-name="x" unicode="x" horiz-adv-x="446" 
d="M225 326l-142 -326h-45l158 363l-147 337h48l132 -301l133 301h44l-147 -337l157 -363h-49z" />
    <glyph glyph-name="y" unicode="y" horiz-adv-x="402" 
d="M172 269l-157 431h48l134 -368l134 368h45l-158 -431v-269h-46v269z" />
    <glyph glyph-name="yacute" unicode="&#xfd;" horiz-adv-x="402" 
d="M282 835l-84 -95h-35l72 95h47zM172 269l-157 431h48l134 -368l134 368h45l-158 -431v-269h-46v269z" />
    <glyph glyph-name="ycircumflex" unicode="&#x177;" horiz-adv-x="402" 
d="M136 743h-43l84 90h40l84 -90h-43l-61 63zM172 269l-157 431h48l134 -368l134 368h45l-158 -431v-269h-46v269z" />
    <glyph glyph-name="ydieresis" unicode="&#xff;" horiz-adv-x="402" 
d="M168 825v-84h-41v84h41zM265 825v-84h-41v84h41zM172 269l-157 431h48l134 -368l134 368h45l-158 -431v-269h-46v269z" />
    <glyph glyph-name="ygrave" unicode="&#x1ef3;" horiz-adv-x="402" 
d="M164 842l72 -95h-37l-84 95h49zM172 269l-157 431h48l134 -368l134 368h45l-158 -431v-269h-46v269z" />
    <glyph glyph-name="z" unicode="z" horiz-adv-x="383" 
d="M349 0h-315v42l271 616h-258v42h306v-43l-271 -615h267v-42z" />
    <glyph glyph-name="zacute" unicode="&#x17a;" horiz-adv-x="383" 
d="M290 842l-84 -95h-35l71 95h48zM349 0h-315v42l271 616h-258v42h306v-43l-271 -615h267v-42z" />
    <glyph glyph-name="zcaron" unicode="&#x17e;" horiz-adv-x="383" 
d="M139 835l62 -63l61 63h43l-84 -90h-40l-84 90h42zM349 0h-315v42l271 616h-258v42h306v-43l-271 -615h267v-42z" />
    <glyph glyph-name="zdotaccent" unicode="&#x17c;" horiz-adv-x="383" 
d="M228 830v-84h-41v84h41zM349 0h-315v42l271 616h-258v42h306v-43l-271 -615h267v-42z" />
    <glyph glyph-name="ordfeminine" unicode="&#xaa;" horiz-adv-x="273" 
d="M146 705q50 0 69 -31t19 -78v-260h-27l-2 62q-10 -30 -31 -48.5t-54 -18.5q-42 0 -63 25.5t-21 70.5v3q0 36 15 58.5t39 35t54 17.5t59 5v54q0 32 -11.5 54t-46.5 22t-49.5 -21.5t-14.5 -57.5v-12h-30v11q0 49 22 79t73 30zM203 521q-25 0 -49.5 -4.5t-43.5 -14.5
t-30.5 -26.5t-11.5 -41.5v-5q0 -32 15 -50.5t47 -18.5q35 0 52 25.5t21 57.5v78zM234 268v-31h-196v31h196z" />
    <glyph glyph-name="ordmasculine" unicode="&#xba;" horiz-adv-x="274" 
d="M137 705q52 0 75.5 -32t23.5 -81v-151q0 -49 -23.5 -81t-75.5 -32t-75.5 32t-23.5 81v151q0 49 23.5 81t75.5 32zM137 676q-37 0 -52.5 -23.5t-15.5 -58.5v-155q0 -35 15.5 -58.5t52.5 -23.5q36 0 51.5 23.5t15.5 58.5v155q0 35 -15.5 58.5t-51.5 23.5zM236 269v-31h-197
v31h197z" />
    <glyph glyph-name="uni0410" unicode="&#x410;" horiz-adv-x="436" 
d="M107 155l-35 -155h-42l153 701h67l156 -701h-46l-35 155h-218zM114 195h204l-103 453z" />
    <glyph glyph-name="uni0411" unicode="&#x411;" horiz-adv-x="387" 
d="M186 402q81 0 122 -36t41 -120v-79q0 -80 -36.5 -123.5t-118.5 -43.5h-154v700h283v-42h-237v-256h100zM194 42q59 0 84 31t25 91v85q0 64 -29.5 87t-87.5 23h-100v-317h108z" />
    <glyph glyph-name="uni0412" unicode="&#x412;" horiz-adv-x="378" 
d="M187 700q79 0 111 -38t32 -111v-40q0 -57 -19.5 -92t-72.5 -46q57 -11 81 -50.5t24 -99.5v-61q0 -76 -36 -119t-117 -43h-150v700h147zM164 391q31 0 53.5 5t37.5 17.5t22 34t7 54.5v45q0 55 -21 83t-77 28h-100v-267h78zM190 42q58 0 82.5 31t24.5 90v63q0 68 -31 95.5
t-93 27.5h-87v-307h104z" />
    <glyph glyph-name="uni0413" unicode="&#x413;" horiz-adv-x="346" 
d="M86 658v-658h-46v700h269v-42h-223z" />
    <glyph glyph-name="uni0414" unicode="&#x414;" horiz-adv-x="489" 
d="M410 -97v97h-334v-97h-45v139h48q21 22 27 50t8 62l28 546h256v-658h58v-139h-46zM159 154q-2 -36 -7.5 -63.5t-25.5 -48.5h225v616h-166z" />
    <glyph glyph-name="uni0415" unicode="&#x415;" horiz-adv-x="351" 
d="M277 376v-42h-191v-292h230v-42h-276v700h276v-42h-230v-282h191z" />
    <glyph glyph-name="uni0401" unicode="&#x401;" horiz-adv-x="351" 
d="M150 830v-85h-41v85h41zM247 830v-85h-41v85h41zM277 376v-42h-191v-292h230v-42h-276v700h276v-42h-230v-282h191z" />
    <glyph glyph-name="uni0416" unicode="&#x416;" horiz-adv-x="623" 
d="M381 350l-47 -80v-270h-46v271l-46 79l-166 -350h-48l183 393l-175 307h47l205 -360v360h46v-360l205 360h48l-174 -306l181 -394h-47z" />
    <glyph glyph-name="uni0417" unicode="&#x417;" horiz-adv-x="378" 
d="M189 706q40 0 68.5 -13.5t47 -37t27 -56t8.5 -70.5v-18q0 -52 -24.5 -90.5t-70.5 -53.5q48 -14 71.5 -52.5t23.5 -89.5v-54q0 -38 -8.5 -70.5t-27 -56t-47 -37t-68.5 -13.5t-68.5 13.5t-47 37t-27 56t-8.5 70.5v58h44v-61q0 -28 5.5 -52t18.5 -42t33 -28t49 -10
q58 0 82 38t24 98v54q0 54 -28.5 86t-79.5 32h-39v42h42q47 0 76 33.5t29 82.5v26q0 60 -24 98t-82 38t-82.5 -37.5t-24.5 -94.5v-38h-42v36q0 38 8.5 70t26.5 55.5t46.5 37t68.5 13.5z" />
    <glyph glyph-name="uni0418" unicode="&#x418;" horiz-adv-x="391" 
d="M205 329l-115 -329h-50v700h42v-599l102 286l113 313h55v-700h-42v619z" />
    <glyph glyph-name="uni0419" unicode="&#x419;" horiz-adv-x="392" 
d="M302 832q-1 -40 -29 -62.5t-72 -22.5q-43 0 -71 22t-29 63h32q1 -29 21 -42t47 -13q28 0 48 13t22 42h31zM210 341l-120 -341h-50v700h42v-599l91 255l124 344h55v-700h-42v619z" />
    <glyph glyph-name="uni041A" unicode="&#x41a;" horiz-adv-x="404" 
d="M134 329l-48 -76v-253h-46v700h46v-370l228 370h48l-200 -326l213 -374h-48z" />
    <glyph glyph-name="uni041B" unicode="&#x41b;" horiz-adv-x="438" 
d="M179 658l-18 -487q-2 -36 -6.5 -67t-17.5 -54t-36.5 -36.5t-62.5 -14.5h-9v42q30 0 46.5 10.5t25 28t11 41t3.5 49.5l21 530h261v-700h-47v658h-171z" />
    <glyph glyph-name="uni041C" unicode="&#x41c;" horiz-adv-x="505" 
d="M275 1h-46l-148 619v-620h-41v700h66l147 -619l146 619h66v-700h-44v622z" />
    <glyph glyph-name="uni041D" unicode="&#x41d;" horiz-adv-x="391" 
d="M86 329v-329h-46v700h46v-329h218v329h47v-700h-47v329h-218z" />
    <glyph glyph-name="uni041E" unicode="&#x41e;" horiz-adv-x="381" 
d="M37 529q0 38 9 70.5t27.5 56t47.5 37t69 13.5t69.5 -13.5t48.5 -37t28 -56t9 -70.5v-358q0 -38 -9 -70.5t-28 -56t-48.5 -37t-69.5 -13.5t-69 13.5t-47.5 37t-27.5 56t-9 70.5v358zM83 168q0 -57 24.5 -94.5t82.5 -37.5t83.5 37.5t25.5 94.5v364q0 57 -25.5 94.5
t-83.5 37.5t-82.5 -37.5t-24.5 -94.5v-364z" />
    <glyph glyph-name="uni041F" unicode="&#x41f;" horiz-adv-x="391" 
d="M86 658v-658h-46v700h311v-700h-47v658h-218z" />
    <glyph glyph-name="uni0420" unicode="&#x420;" horiz-adv-x="364" 
d="M185 700q81 0 115.5 -46.5t34.5 -123.5v-76q0 -84 -39 -125t-123 -41h-87v-288h-46v700h145zM173 330q61 0 88.5 28.5t27.5 92.5v82q0 57 -22.5 91t-81.5 34h-99v-328h87z" />
    <glyph glyph-name="uni0421" unicode="&#x421;" horiz-adv-x="374" 
d="M188 706q40 0 68.5 -13.5t47 -37t27 -56t8.5 -70.5v-58h-44v61q0 28 -5.5 52t-18.5 42t-33 28t-49 10t-49 -10t-33 -28t-18.5 -42t-5.5 -52v-364q0 -28 5.5 -52t18.5 -41.5t33 -27.5t49 -10t49 10t33 27.5t18.5 41.5t5.5 52v83h44v-80q0 -38 -8.5 -70.5t-27 -56t-47 -37
t-68.5 -13.5t-68.5 13.5t-47 37t-27 56t-8.5 70.5v358q0 38 8.5 70.5t27 56t47 37t68.5 13.5z" />
    <glyph glyph-name="uni0422" unicode="&#x422;" horiz-adv-x="388" 
d="M171 0v658h-143v42h332v-42h-143v-658h-46z" />
    <glyph glyph-name="uni0423" unicode="&#x423;" horiz-adv-x="426" 
d="M217 130q-9 -32 -19.5 -56.5t-28 -41.5t-42.5 -25q-21 -7 -50 -7h-14v41h4q45 0 66 20t34 62l29 85l-168 492h47l82 -247l61 -187l56 188l76 246h48z" />
    <glyph glyph-name="uni0424" unicode="&#x424;" horiz-adv-x="556" 
d="M357 619q86 0 123.5 -46t37.5 -130v-191q0 -84 -37.5 -130t-123.5 -46h-57v-76h-45v76h-57q-86 0 -123.5 46.5t-37.5 129.5v191q0 83 37.5 129.5t123.5 46.5h57v81h45v-81h57zM198 578q-63 0 -89.5 -34.5t-26.5 -97.5v-197q0 -63 26.5 -97.5t89.5 -34.5h57v461h-57z
M357 117q63 0 89.5 34.5t26.5 97.5v197q0 63 -26.5 97.5t-89.5 34.5h-57v-461h57z" />
    <glyph glyph-name="uni0425" unicode="&#x425;" horiz-adv-x="440" 
d="M218 326l-142 -326h-45l158 363l-147 337h48l132 -301l133 301h44l-147 -337l157 -363h-49z" />
    <glyph glyph-name="uni0427" unicode="&#x427;" horiz-adv-x="387" 
d="M301 336q-40 -69 -123 -69q-37 0 -63.5 13.5t-44 36.5t-25.5 54.5t-8 66.5v262h46v-259q0 -27 6.5 -51t19.5 -42t33.5 -28.5t48.5 -10.5q87 0 110 91v300h46v-700h-46v336z" />
    <glyph glyph-name="uni0426" unicode="&#x426;" horiz-adv-x="455" 
d="M376 -94v94h-323v700h45v-658h218v658h47v-658h58v-136h-45z" />
    <glyph glyph-name="uni0428" unicode="&#x428;" horiz-adv-x="564" 
d="M86 700v-658h173v658h46v-658h173v658h46v-700h-484v700h46z" />
    <glyph glyph-name="uni0429" unicode="&#x429;" horiz-adv-x="615" 
d="M537 -94v94h-497v700h46v-658h172v658h46v-658h174l-1 658h46v-658h59v-136h-45z" />
    <glyph glyph-name="uni042F" unicode="&#x42f;" horiz-adv-x="386" 
d="M227 313q-30 0 -54 -5.5t-41.5 -19t-26.5 -36.5t-9 -58v-110q0 -29 -3 -48.5t-12 -35.5h-48q11 17 14 39.5t3 44.5v109q0 57 23.5 94t77.5 49q-101 23 -101 145v61q0 74 35 116t115 42h146v-700h-46v313h-73zM201 658q-57 0 -81 -31.5t-24 -88.5v-66q0 -35 9 -58
t25.5 -36t40.5 -18t55 -5h74v303h-99z" />
    <glyph glyph-name="uni042C" unicode="&#x42c;" horiz-adv-x="370" 
d="M172 412q85 0 124 -41t39 -125v-76q0 -38 -8.5 -69.5t-26.5 -54t-46.5 -34.5t-69.5 -12h-144v700h46v-288h86zM184 42q59 0 82 34t23 91v82q0 64 -28 92.5t-89 28.5h-86v-328h98z" />
    <glyph glyph-name="uni042A" unicode="&#x42a;" horiz-adv-x="435" 
d="M238 412q84 0 123 -41t39 -125v-76q0 -77 -34.5 -123.5t-115.5 -46.5h-145v658h-95v42h141v-288h87zM250 42q59 0 81.5 34t22.5 91v82q0 64 -28 92.5t-88 28.5h-87v-328h99z" />
    <glyph glyph-name="uni042B" unicode="&#x42b;" horiz-adv-x="487" 
d="M172 412q85 0 124 -41t39 -125v-76q0 -38 -8.5 -69.5t-26.5 -54t-46.5 -34.5t-69.5 -12h-144v700h46v-288h86zM447 700v-700h-46v700h46zM184 42q59 0 82 34t23 91v82q0 64 -28 92.5t-89 28.5h-86v-328h98z" />
    <glyph glyph-name="uni042D" unicode="&#x42d;" horiz-adv-x="374" 
d="M186 706q40 0 68.5 -13.5t47 -37t27 -56t8.5 -70.5v-358q0 -38 -8.5 -70.5t-27 -56t-47 -37t-68.5 -13.5t-68.5 13.5t-47 37t-27 56t-8.5 70.5v68h44v-71q0 -28 5.5 -52t18.5 -41.5t32.5 -27.5t48.5 -10t49.5 10t33 27.5t18.5 41.5t6 52v173h-143v42h143v149q0 28 -6 52
t-18.5 42t-33 28t-49.5 10t-48.5 -10t-32.5 -28t-18.5 -42t-5.5 -52v-47h-43v44q0 38 8.5 70.5t26.5 56t46.5 37t68.5 13.5z" />
    <glyph glyph-name="uni042E" unicode="&#x42e;" horiz-adv-x="552" 
d="M361 706q40 0 69 -13.5t48 -37t28 -56t9 -70.5v-358q0 -38 -9 -70.5t-28 -56t-48 -37t-69 -13.5q-41 0 -70 13.5t-47.5 37t-27.5 56t-9 70.5v158h-121v-329h-46v700h46v-329h121v158q0 38 9 70.5t27.5 56t47.5 37t70 13.5zM361 664q-29 0 -49.5 -10t-33.5 -27.5t-19 -42
t-6 -52.5v-364q0 -29 6 -53t19 -41.5t33.5 -27.5t49.5 -10q58 0 83 37.5t25 94.5v364q0 57 -25 94.5t-83 37.5z" />
    <glyph glyph-name="uni0430" unicode="&#x430;" horiz-adv-x="436" 
d="M107 155l-35 -155h-42l153 701h67l156 -701h-46l-35 155h-218zM114 195h204l-103 453z" />
    <glyph glyph-name="uni0431" unicode="&#x431;" horiz-adv-x="387" 
d="M186 402q81 0 122 -36t41 -120v-79q0 -80 -36.5 -123.5t-118.5 -43.5h-154v700h283v-42h-237v-256h100zM194 42q59 0 84 31t25 91v85q0 64 -29.5 87t-87.5 23h-100v-317h108z" />
    <glyph glyph-name="uni0432" unicode="&#x432;" horiz-adv-x="378" 
d="M187 700q79 0 111 -38t32 -111v-40q0 -57 -19.5 -92t-72.5 -46q57 -11 81 -50.5t24 -99.5v-61q0 -76 -36 -119t-117 -43h-150v700h147zM164 391q31 0 53.5 5t37.5 17.5t22 34t7 54.5v45q0 55 -21 83t-77 28h-100v-267h78zM190 42q58 0 82.5 31t24.5 90v63q0 68 -31 95.5
t-93 27.5h-87v-307h104z" />
    <glyph glyph-name="uni0433" unicode="&#x433;" horiz-adv-x="346" 
d="M86 658v-658h-46v700h269v-42h-223z" />
    <glyph glyph-name="uni0434" unicode="&#x434;" horiz-adv-x="489" 
d="M410 -97v97h-334v-97h-45v139h48q21 22 27 50t8 62l28 546h256v-658h58v-139h-46zM159 154q-2 -36 -7.5 -63.5t-25.5 -48.5h225v616h-166z" />
    <glyph glyph-name="uni0435" unicode="&#x435;" horiz-adv-x="351" 
d="M277 376v-42h-191v-292h230v-42h-276v700h276v-42h-230v-282h191z" />
    <glyph glyph-name="uni0451" unicode="&#x451;" horiz-adv-x="351" 
d="M150 830v-85h-41v85h41zM247 830v-85h-41v85h41zM277 376v-42h-191v-292h230v-42h-276v700h276v-42h-230v-282h191z" />
    <glyph glyph-name="uni0436" unicode="&#x436;" horiz-adv-x="623" 
d="M381 350l-47 -80v-270h-46v271l-46 79l-166 -350h-48l183 393l-175 307h47l205 -360v360h46v-360l205 360h48l-174 -306l181 -394h-47z" />
    <glyph glyph-name="uni0437" unicode="&#x437;" horiz-adv-x="378" 
d="M189 706q40 0 68.5 -13.5t47 -37t27 -56t8.5 -70.5v-18q0 -52 -24.5 -90.5t-70.5 -53.5q48 -14 71.5 -52.5t23.5 -89.5v-54q0 -38 -8.5 -70.5t-27 -56t-47 -37t-68.5 -13.5t-68.5 13.5t-47 37t-27 56t-8.5 70.5v58h44v-61q0 -28 5.5 -52t18.5 -42t33 -28t49 -10
q58 0 82 38t24 98v54q0 54 -28.5 86t-79.5 32h-39v42h42q47 0 76 33.5t29 82.5v26q0 60 -24 98t-82 38t-82.5 -37.5t-24.5 -94.5v-38h-42v36q0 38 8.5 70t26.5 55.5t46.5 37t68.5 13.5z" />
    <glyph glyph-name="uni0438" unicode="&#x438;" horiz-adv-x="391" 
d="M204 325l-114 -325h-50v700h42v-599l81 231l134 368h55v-700h-42v619z" />
    <glyph glyph-name="uni0439" unicode="&#x439;" horiz-adv-x="392" 
d="M302 830q-1 -41 -29 -63t-72 -22q-43 0 -71 22t-29 63h32q1 -30 21 -43t47 -13q28 0 48 13t22 43h31zM90 0h-50v700h42v-599l88 249l127 350h55v-700h-42v619z" />
    <glyph glyph-name="uni043A" unicode="&#x43a;" horiz-adv-x="404" 
d="M134 329l-48 -76v-253h-46v700h46v-370l228 370h48l-200 -326l213 -374h-48z" />
    <glyph glyph-name="uni043B" unicode="&#x43b;" horiz-adv-x="438" 
d="M179 658l-18 -487q-2 -36 -6.5 -67t-17.5 -54t-36.5 -36.5t-62.5 -14.5h-9v42q30 0 46.5 10.5t25 28t11 41t3.5 49.5l21 530h261v-700h-47v658h-171z" />
    <glyph glyph-name="uni043C" unicode="&#x43c;" horiz-adv-x="505" 
d="M275 1h-46l-148 619v-620h-41v700h66l147 -619l146 619h66v-700h-44v622z" />
    <glyph glyph-name="uni043D" unicode="&#x43d;" horiz-adv-x="391" 
d="M86 329v-329h-46v700h46v-329h218v329h47v-700h-47v329h-218z" />
    <glyph glyph-name="uni043E" unicode="&#x43e;" horiz-adv-x="381" 
d="M37 529q0 38 9 70.5t27.5 56t47.5 37t69 13.5t69.5 -13.5t48.5 -37t28 -56t9 -70.5v-358q0 -38 -9 -70.5t-28 -56t-48.5 -37t-69.5 -13.5t-69 13.5t-47.5 37t-27.5 56t-9 70.5v358zM83 168q0 -57 24.5 -94.5t82.5 -37.5t83.5 37.5t25.5 94.5v364q0 57 -25.5 94.5
t-83.5 37.5t-82.5 -37.5t-24.5 -94.5v-364z" />
    <glyph glyph-name="uni043F" unicode="&#x43f;" horiz-adv-x="391" 
d="M86 658v-658h-46v700h311v-700h-47v658h-218z" />
    <glyph glyph-name="uni0440" unicode="&#x440;" horiz-adv-x="364" 
d="M185 700q81 0 115.5 -46.5t34.5 -123.5v-76q0 -84 -39 -125t-123 -41h-87v-288h-46v700h145zM173 330q61 0 88.5 28.5t27.5 92.5v82q0 57 -22.5 91t-81.5 34h-99v-328h87z" />
    <glyph glyph-name="uni0441" unicode="&#x441;" horiz-adv-x="374" 
d="M188 706q40 0 68.5 -13.5t47 -37t27 -56t8.5 -70.5v-58h-44v61q0 28 -5.5 52t-18.5 42t-33 28t-49 10t-49 -10t-33 -28t-18.5 -42t-5.5 -52v-364q0 -28 5.5 -52t18.5 -41.5t33 -27.5t49 -10t49 10t33 27.5t18.5 41.5t5.5 52v83h44v-80q0 -38 -8.5 -70.5t-27 -56t-47 -37
t-68.5 -13.5t-68.5 13.5t-47 37t-27 56t-8.5 70.5v358q0 38 8.5 70.5t27 56t47 37t68.5 13.5z" />
    <glyph glyph-name="uni0442" unicode="&#x442;" horiz-adv-x="388" 
d="M171 0v658h-143v42h332v-42h-143v-658h-46z" />
    <glyph glyph-name="uni0443" unicode="&#x443;" horiz-adv-x="426" 
d="M217 130q-9 -32 -19.5 -56.5t-28 -41.5t-42.5 -25q-21 -7 -50 -7h-14v41h4q45 0 66 20t34 62l29 85l-168 492h47l82 -247l61 -187l56 188l76 246h48z" />
    <glyph glyph-name="uni0444" unicode="&#x444;" horiz-adv-x="556" 
d="M357 619q86 0 123.5 -46t37.5 -130v-191q0 -84 -37.5 -130t-123.5 -46h-57v-76h-45v76h-57q-86 0 -123.5 46.5t-37.5 129.5v191q0 83 37.5 129.5t123.5 46.5h57v81h45v-81h57zM198 578q-63 0 -89.5 -34.5t-26.5 -97.5v-197q0 -63 26.5 -97.5t89.5 -34.5h57v461h-57z
M357 117q63 0 89.5 34.5t26.5 97.5v197q0 63 -26.5 97.5t-89.5 34.5h-57v-461h57z" />
    <glyph glyph-name="uni0445" unicode="&#x445;" horiz-adv-x="440" 
d="M218 326l-142 -326h-45l158 363l-147 337h48l132 -301l133 301h44l-147 -337l157 -363h-49z" />
    <glyph glyph-name="uni0447" unicode="&#x447;" horiz-adv-x="387" 
d="M301 336q-40 -69 -123 -69q-37 0 -63.5 13.5t-44 36.5t-25.5 54.5t-8 66.5v262h46v-259q0 -27 6.5 -51t19.5 -42t33.5 -28.5t48.5 -10.5q87 0 110 91v300h46v-700h-46v336z" />
    <glyph glyph-name="uni0446" unicode="&#x446;" horiz-adv-x="455" 
d="M376 -94v94h-323v700h45v-658h218v658h47v-658h58v-136h-45z" />
    <glyph glyph-name="uni0448" unicode="&#x448;" horiz-adv-x="564" 
d="M86 700v-658h173v658h46v-658h173v658h46v-700h-484v700h46z" />
    <glyph glyph-name="uni0449" unicode="&#x449;" horiz-adv-x="615" 
d="M537 -94v94h-497v700h46v-658h172v658h46v-658h174l-1 658h46v-658h59v-136h-45z" />
    <glyph glyph-name="uni044C" unicode="&#x44c;" horiz-adv-x="370" 
d="M172 412q85 0 124 -41t39 -125v-76q0 -38 -8.5 -69.5t-26.5 -54t-46.5 -34.5t-69.5 -12h-144v700h46v-288h86zM184 42q59 0 82 34t23 91v82q0 64 -28 92.5t-89 28.5h-86v-328h98z" />
    <glyph glyph-name="uni044A" unicode="&#x44a;" horiz-adv-x="435" 
d="M238 412q84 0 123 -41t39 -125v-76q0 -77 -34.5 -123.5t-115.5 -46.5h-145v658h-95v42h141v-288h87zM250 42q59 0 81.5 34t22.5 91v82q0 64 -28 92.5t-88 28.5h-87v-328h99z" />
    <glyph glyph-name="uni044B" unicode="&#x44b;" horiz-adv-x="487" 
d="M172 412q85 0 124 -41t39 -125v-76q0 -38 -8.5 -69.5t-26.5 -54t-46.5 -34.5t-69.5 -12h-144v700h46v-288h86zM447 700v-700h-46v700h46zM184 42q59 0 82 34t23 91v82q0 64 -28 92.5t-89 28.5h-86v-328h98z" />
    <glyph glyph-name="uni044D" unicode="&#x44d;" horiz-adv-x="374" 
d="M186 706q40 0 68.5 -13.5t47 -37t27 -56t8.5 -70.5v-358q0 -38 -8.5 -70.5t-27 -56t-47 -37t-68.5 -13.5t-68.5 13.5t-47 37t-27 56t-8.5 70.5v68h44v-71q0 -28 5.5 -52t18.5 -41.5t32.5 -27.5t48.5 -10t49.5 10t33 27.5t18.5 41.5t6 52v173h-143v42h143v149q0 28 -6 52
t-18.5 42t-33 28t-49.5 10t-48.5 -10t-32.5 -28t-18.5 -42t-5.5 -52v-47h-43v44q0 38 8.5 70.5t26.5 56t46.5 37t68.5 13.5z" />
    <glyph glyph-name="uni044E" unicode="&#x44e;" horiz-adv-x="552" 
d="M361 706q40 0 69 -13.5t48 -37t28 -56t9 -70.5v-358q0 -38 -9 -70.5t-28 -56t-48 -37t-69 -13.5q-41 0 -70 13.5t-47.5 37t-27.5 56t-9 70.5v158h-121v-329h-46v700h46v-329h121v158q0 38 9 70.5t27.5 56t47.5 37t70 13.5zM361 664q-29 0 -49.5 -10t-33.5 -27.5t-19 -42
t-6 -52.5v-364q0 -29 6 -53t19 -41.5t33.5 -27.5t49.5 -10q58 0 83 37.5t25 94.5v364q0 57 -25 94.5t-83 37.5z" />
    <glyph glyph-name="uni044F" unicode="&#x44f;" horiz-adv-x="386" 
d="M227 313q-30 0 -54 -5.5t-41.5 -19t-26.5 -36.5t-9 -58v-110q0 -29 -3 -48.5t-12 -35.5h-48q11 17 14 39.5t3 44.5v109q0 57 23.5 94t77.5 49q-101 23 -101 145v61q0 74 35 116t115 42h146v-700h-46v313h-73zM201 658q-57 0 -81 -31.5t-24 -88.5v-66q0 -35 9 -58
t25.5 -36t40.5 -18t55 -5h74v303h-99z" />
    <glyph glyph-name="zero" unicode="0" horiz-adv-x="463" 
d="M83 529q0 39 9 71.5t28 56t48 36.5t69 13t69 -13t48 -36.5t28 -56t9 -71.5v-358q0 -38 -9 -70.5t-28 -56t-48 -37t-69 -13.5t-69 13.5t-48 37t-28 56t-9 70.5v358zM129 169q0 -58 25 -95.5t83 -37.5t83 37.5t25 95.5v363q0 57 -25 94.5t-83 37.5t-83 -37.5t-25 -94.5
v-363z" />
    <glyph glyph-name="one" unicode="1" horiz-adv-x="463" 
d="M235 622q-19 -25 -46.5 -40.5t-62.5 -18.5v40q52 4 78.5 31.5t40.5 66.5h36v-701h-46v622z" />
    <glyph glyph-name="two" unicode="2" horiz-adv-x="463" 
d="M240 706q41 0 69.5 -13.5t46.5 -37.5t26.5 -56.5t8.5 -70.5q0 -50 -19 -91t-47 -77t-61 -69.5t-61.5 -70t-47.5 -78t-20 -92.5v-8h250v-42h-296v34q0 62 19 109t47.5 85.5t61.5 72t61.5 67.5t47.5 72t19 86q0 61 -23.5 99.5t-83.5 38.5q-29 0 -49 -10.5t-32.5 -29
t-18 -43t-5.5 -52.5v-48h-44v45q0 38 8.5 71t26.5 57t46.5 38t69.5 14z" />
    <glyph glyph-name="three" unicode="3" horiz-adv-x="463" 
d="M232 706q40 0 68.5 -13.5t47 -37t27 -56t8.5 -70.5v-17q0 -52 -24 -90.5t-69 -54.5q48 -14 70.5 -52t22.5 -90v-54q0 -38 -8.5 -70.5t-27 -56t-47 -37t-68.5 -13.5t-68.5 13.5t-47 37t-27 56t-8.5 70.5v40h44v-42q0 -29 5.5 -53t18.5 -42t33 -28t49 -10q58 0 82 38t24 98
v54q0 55 -26.5 85.5t-77.5 32.5h-47v42h49q48 3 75 34.5t27 82.5v25q0 60 -24 98t-82 38t-82 -37.5t-24 -94.5v-28h-44v25q0 38 8.5 70.5t27 56t47 37t68.5 13.5z" />
    <glyph glyph-name="four" unicode="4" horiz-adv-x="463" 
d="M347 155v-155h-45v155h-239v43l232 503h52v-504h59v-42h-59zM105 197h197v418z" />
    <glyph glyph-name="five" unicode="5" horiz-adv-x="463" 
d="M146 408q18 29 46 41.5t67 12.5q36 0 62 -13t42.5 -36t24 -54.5t7.5 -67.5v-120q0 -38 -8.5 -70.5t-27 -56t-47.5 -37t-69 -13.5t-68.5 13.5t-47 37t-27 56t-8.5 70.5v38h44v-40q0 -28 6 -52t18.5 -42t32.5 -28t49 -10t49.5 10t33 28t18.5 42t6 52v118q0 28 -6 52
t-18.5 42t-33 28t-49.5 10q-78 0 -100 -80v-12h-43l18 374h263v-43h-221z" />
    <glyph glyph-name="six" unicode="6" horiz-adv-x="463" 
d="M244 706q40 0 68.5 -13t47 -36t27 -55t8.5 -70v-8h-44v11q0 56 -24 92.5t-82 36.5q-30 0 -50.5 -10t-34 -28t-19.5 -43.5t-6 -56.5v-162q17 29 47 46.5t78 17.5q37 0 63 -13t42.5 -36t24.5 -54t8 -68v-86q0 -38 -9 -70.5t-28 -56t-48 -37t-69 -13.5q-41 0 -70 13.5
t-48 37t-28 56t-9 70.5v356q0 39 9 72t27.5 57t48 37t70.5 13zM244 385q-59 0 -84 -37.5t-25 -93.5v-85q0 -58 25 -95t84 -37q58 0 83 37t25 95v85q0 56 -25 93.5t-83 37.5z" />
    <glyph glyph-name="seven" unicode="7" horiz-adv-x="463" 
d="M327 658h-257v43h304v-42l-197 -659h-47z" />
    <glyph glyph-name="eight" unicode="8" horiz-adv-x="463" 
d="M239 706q79 0 119 -46t40 -124v-22q0 -54 -21.5 -93.5t-71.5 -53.5q51 -15 72 -55t21 -95v-50q0 -77 -39.5 -125t-119.5 -48q-81 0 -120 47.5t-39 125.5v50q0 56 20.5 95t73.5 55q-51 14 -72.5 52.5t-21.5 94.5v22q0 78 39.5 124t119.5 46zM239 664q-57 0 -85 -33.5
t-28 -95.5v-29q0 -120 113 -120t113 120v29q0 62 -28.5 95.5t-84.5 33.5zM239 344q-113 0 -113 -123v-53q0 -61 28 -96.5t85 -35.5t84.5 35.5t28.5 96.5v53q0 123 -113 123z" />
    <glyph glyph-name="nine" unicode="9" horiz-adv-x="463" 
d="M231 707q40 0 69.5 -13.5t48 -37t27.5 -56t9 -71.5v-356q0 -39 -8.5 -72t-27.5 -56.5t-48 -37t-70 -13.5q-40 0 -69 13t-47.5 36t-27.5 55.5t-9 70.5v9h44v-11q0 -57 25 -94t83 -37q59 0 84 38t25 101v172q-17 -39 -47 -56.5t-77 -17.5q-37 0 -63 13t-42.5 35.5t-24.5 54
t-8 68.5v85q0 39 9 71.5t28 56t48 37t69 13.5zM231 664q-58 0 -83 -37.5t-25 -94.5v-85q0 -57 25 -94.5t83 -37.5t83 37.5t25 94.5v85q0 57 -25 94.5t-83 37.5z" />
    <glyph glyph-name="zero.alt" horiz-adv-x="381" 
d="M37 529q0 39 9 71.5t28 56t48 36.5t69 13t69 -13t48 -36.5t28 -56t9 -71.5v-358q0 -38 -9 -70.5t-28 -56t-48 -37t-69 -13.5t-69 13.5t-48 37t-28 56t-9 70.5v358zM83 169q0 -58 25 -95.5t83 -37.5t83 37.5t25 95.5v363q0 57 -25 94.5t-83 37.5t-83 -37.5t-25 -94.5v-363
z" />
    <glyph glyph-name="one.alt" horiz-adv-x="281" 
d="M137 622q-19 -25 -46.5 -40.5t-62.5 -18.5v40q52 4 78.5 31.5t40.5 66.5h36v-701h-46v622z" />
    <glyph glyph-name="two.alt" horiz-adv-x="368" 
d="M186 706q41 0 69.5 -13.5t46.5 -37.5t26.5 -56.5t8.5 -70.5q0 -51 -19 -91.5t-47 -76.5t-61 -69.5t-61.5 -70t-47.5 -78.5t-20 -94v-6h250v-42h-296v34q0 62 19 109t47.5 85.5t61.5 72t61.5 67.5t47.5 72t19 86q0 61 -23.5 99.5t-83.5 38.5q-29 0 -49 -10.5t-32.5 -29
t-18 -43t-5.5 -52.5v-48h-44v45q0 38 8.5 71t26.5 57t46.5 38t69.5 14z" />
    <glyph glyph-name="three.alt" horiz-adv-x="373" 
d="M187 706q40 0 68.5 -13.5t47 -37t27 -56t8.5 -70.5v-17q0 -52 -24.5 -90.5t-69.5 -54.5q48 -14 71 -52t23 -90v-54q0 -38 -8.5 -70.5t-27 -56t-47 -37t-68.5 -13.5q-41 0 -69.5 13.5t-47 37t-27 56t-8.5 70.5v40h44v-42q0 -29 5.5 -53t18.5 -42t33 -28t49 -10
q58 0 82.5 38t24.5 98v54q0 55 -26.5 85.5t-77.5 32.5h-48v42h50q48 3 75 34.5t27 82.5v25q0 60 -24 98t-83 38q-58 0 -82 -37.5t-24 -94.5v-28h-44v25q0 38 8.5 70.5t27 56t47 37t69.5 13.5z" />
    <glyph glyph-name="four.alt" horiz-adv-x="403" 
d="M315 155v-155h-46v155h-238v43l232 503h52v-504h59v-42h-59zM73 197h196v417z" />
    <glyph glyph-name="five.alt" horiz-adv-x="373" 
d="M89 407q36 55 113 55q36 0 62 -13t42.5 -36t24 -54.5t7.5 -67.5v-120q0 -38 -8.5 -70.5t-27 -56t-47 -37t-68.5 -13.5t-68.5 13.5t-47 37t-27 56t-8.5 70.5v38h44v-40q0 -28 5.5 -52t18.5 -42t33 -28t49 -10q28 0 48.5 10t33 28t18.5 42t6 52v118q0 28 -6 52t-18.5 42
t-33 28t-48.5 10q-38 0 -64 -20.5t-36 -59.5v-12h-44l19 374h262v-43h-221z" />
    <glyph glyph-name="six.alt" horiz-adv-x="382" 
d="M192 706q40 0 68.5 -13t47 -36t27 -55t8.5 -70v-8h-44v11q0 56 -24 92.5t-82 36.5q-30 0 -50.5 -10t-34 -28t-19.5 -43.5t-6 -56.5v-162q17 29 47 46.5t78 17.5q37 0 63 -13t42.5 -36t24.5 -54t8 -68v-86q0 -38 -9 -70.5t-28 -56t-48 -37t-69 -13.5q-41 0 -70 13.5
t-48 37t-28 56t-9 70.5v356q0 39 9 72t27.5 57t48 37t70.5 13zM192 385q-59 0 -84 -37.5t-25 -93.5v-85q0 -58 25 -95t84 -37q58 0 83 37t25 95v85q0 56 -25 93.5t-83 37.5z" />
    <glyph glyph-name="seven.alt" horiz-adv-x="358" 
d="M282 658h-253v43h300v-42l-193 -659h-47z" />
    <glyph glyph-name="eight.alt" horiz-adv-x="388" 
d="M194 706q80 0 119.5 -46t39.5 -124v-22q0 -54 -21.5 -93.5t-70.5 -53.5q51 -15 71.5 -55t20.5 -95v-50q0 -78 -39 -125.5t-120 -47.5q-80 0 -119.5 48t-39.5 125v50q0 56 21 95t73 55q-51 14 -72.5 52.5t-21.5 94.5v22q0 78 40 124t119 46zM194 664q-56 0 -84.5 -33.5
t-28.5 -95.5v-29q0 -120 113 -120t113 120v29q0 62 -28 95.5t-85 33.5zM194 344q-113 0 -113 -123v-53q0 -61 28 -96.5t85 -35.5t85 35.5t28 96.5v53q0 123 -113 123z" />
    <glyph glyph-name="nine.alt" horiz-adv-x="382" 
d="M190 707q40 0 69.5 -13.5t48 -37t27.5 -56t9 -71.5v-356q0 -39 -8.5 -72t-27.5 -56.5t-48 -37t-70 -13.5q-40 0 -69 13t-47.5 36t-27.5 55.5t-9 70.5v9h44v-11q0 -57 25 -94t83 -37q59 0 84 38t25 101v172q-17 -39 -47 -56.5t-77 -17.5q-37 0 -63 13t-42.5 35.5t-24.5 54
t-8 68.5v85q0 39 9 71.5t28 56t48 37t69 13.5zM190 664q-58 0 -83 -37.5t-25 -94.5v-85q0 -57 25 -94.5t83 -37.5t83 37.5t25 94.5v85q0 57 -25 94.5t-83 37.5z" />
    <glyph glyph-name="fraction" unicode="&#x2044;" horiz-adv-x="258" 
d="M282 700l-276 -700h-30l276 700h30z" />
    <glyph glyph-name="onehalf" unicode="&#xbd;" horiz-adv-x="573" 
d="M116 649q-12 -14 -29 -23t-37 -11l-1 25q32 2 49 18.5t25 41.5h25v-444h-32v393zM408 700l-276 -700h-30l276 700h30zM439 449q53 0 75 -32.5t22 -81.5q0 -32 -12 -57.5t-29.5 -48t-38.5 -43.5t-39 -44t-30 -49t-13 -59v-5h157v-29h-189v23q0 39 12 68.5t30 54t39.5 45.5
t39.5 42.5t30 45.5t12 55q0 38 -14.5 62t-51.5 24t-52 -24.5t-15 -60.5v-30h-30v29q0 49 22.5 82t74.5 33z" />
    <glyph glyph-name="onethird" unicode="&#x2153;" horiz-adv-x="566" 
d="M116 649q-12 -14 -29 -23t-37 -11l-1 25q32 2 49 18.5t25 41.5h25v-444h-32v393zM408 700l-276 -700h-30l276 700h30zM431 449q51 0 74 -32t23 -81v-11q0 -32 -14 -56.5t-42 -35.5q29 -11 42.5 -34.5t13.5 -55.5v-35q0 -49 -23 -81t-74 -32q-52 0 -74.5 32t-22.5 81v25
h30v-27q0 -35 15 -58.5t51 -23.5t51 23.5t15 61.5v34q0 33 -16.5 53t-48.5 20h-30v29h31q29 0 47 22q17 21 17 49v19q0 38 -15 61.5t-51 23.5t-51 -23.5t-15 -58.5v-18h-30v16q0 49 22.5 81t74.5 32z" />
    <glyph glyph-name="twothirds" unicode="&#x2154;" horiz-adv-x="610" 
d="M138 705q53 0 75 -32.5t22 -81.5q0 -32 -12 -58t-30 -49t-39 -44t-39 -44t-30.5 -49t-12.5 -58v-4h158v-29h-189v22q0 39 12 69t30 54.5t39 45.5t39 42.5t30 45.5t12 55q0 38 -14.5 62t-51.5 24t-51.5 -25t-14.5 -60v-30h-30v29q0 24 5.5 45t17 36.5t30 24.5t44.5 9z
M183 0h-29l276 700h29zM474 449q52 0 74.5 -32t22.5 -81v-11q0 -32 -14 -56.5t-42 -35.5q29 -11 42.5 -34.5t13.5 -55.5v-35q0 -49 -22.5 -81t-74.5 -32t-74.5 32t-22.5 81v25h30v-27q0 -35 15 -58.5t51 -23.5q37 0 52 23.5t15 61.5v34q0 33 -16.5 53t-48.5 20h-30v29h31
q29 0 46.5 22t17.5 52v16q0 38 -15 61.5t-52 23.5q-36 0 -51 -23.5t-15 -58.5v-18h-30v16q0 49 22.5 81t74.5 32z" />
    <glyph glyph-name="onequarter" unicode="&#xbc;" horiz-adv-x="528" 
d="M116 649q-12 -14 -29 -23t-37 -11l-1 25q32 2 49 18.5t25 41.5h25v-444h-32v393zM142 0h-29l276 700h29zM459 0h-31v96h-152v29l147 319h36v-319h36v-29h-36v-96zM428 125v259l-122 -259h122z" />
    <glyph glyph-name="threequarters" unicode="&#xbe;" horiz-adv-x="578" 
d="M136 705q51 0 73.5 -32t22.5 -81v-11q0 -32 -13.5 -56.5t-42.5 -35.5q29 -11 42.5 -34.5t13.5 -55.5v-35q0 -49 -22.5 -81t-73.5 -32q-52 0 -74.5 32t-22.5 81v25h30v-27q0 -35 15 -58.5t51 -23.5t51 23.5t15 61.5v34q0 33 -16.5 53t-48.5 20h-30v29h31q29 0 47 22
q17 21 17 49v19q0 38 -15 61.5t-51 23.5t-51 -23.5t-15 -58.5v-18h-30v16q0 49 22.5 81t74.5 32zM442 700h30l-276 -700h-30zM477 96h-151v29l147 319h36v-319h36v-29h-36v-96h-32v96zM356 125h121v259z" />
    <glyph glyph-name="oneeighth" unicode="&#x215b;" horiz-adv-x="576" 
d="M116 649q-12 -14 -29 -23t-37 -11l-1 25q32 2 49 18.5t25 41.5h25v-444h-32v393zM102 0l276 700h30l-276 -700h-30zM437 449q51 0 76.5 -30t25.5 -79v-14q0 -33 -12.5 -58t-41.5 -36q30 -11 42 -36.5t12 -58.5v-31q0 -50 -25 -80.5t-77 -30.5t-77 30.5t-25 80.5v31
q0 33 12 58.5t42 36.5q-29 11 -41.5 36t-12.5 58v14q0 49 25.5 79t76.5 30zM437 420q-35 0 -52.5 -21.5t-17.5 -59.5v-18q0 -75 70 -75t70 75v18q0 38 -17.5 59.5t-52.5 21.5zM437 217q-70 0 -70 -77v-34q0 -38 17 -60t53 -22t53 22t17 60v34q0 77 -70 77z" />
    <glyph glyph-name="threeeighths" unicode="&#x215c;" horiz-adv-x="626" 
d="M136 705q51 0 73.5 -32t22.5 -81v-11q0 -32 -13.5 -56.5t-42.5 -35.5q29 -11 42.5 -34.5t13.5 -55.5v-35q0 -49 -22.5 -81t-73.5 -32q-52 0 -74.5 32t-22.5 81v25h30v-27q0 -35 15 -58.5t51 -23.5t51 23.5t15 61.5v34q0 33 -16.5 53t-48.5 20h-30v29h31q29 0 47 22
q17 21 17 49v19q0 38 -15 61.5t-51 23.5t-51 -23.5t-15 -58.5v-18h-30v16q0 49 22.5 81t74.5 32zM462 700l-276 -700h-30l276 700h30zM487 449q51 0 76.5 -30t25.5 -79v-14q0 -33 -12.5 -58t-41.5 -36q30 -11 42 -36.5t12 -58.5v-31q0 -50 -25 -80.5t-77 -30.5t-77 30.5
t-25 80.5v31q0 33 12 58.5t42 36.5q-29 11 -41.5 36t-12.5 58v14q0 49 25.5 79t76.5 30zM487 420q-35 0 -52.5 -21.5t-17.5 -59.5v-18q0 -75 70 -75t70 75v18q0 38 -17.5 59.5t-52.5 21.5zM487 217q-70 0 -70 -77v-34q0 -38 17 -60t53 -22t53 22t17 60v34q0 77 -70 77z" />
    <glyph glyph-name="fiveeighths" unicode="&#x215d;" horiz-adv-x="624" 
d="M76 510q23 38 70 38q46 0 66.5 -31t20.5 -79v-76q0 -48 -23 -80.5t-74 -32.5t-74 32.5t-23 80.5v24h30v-25q0 -35 15.5 -58.5t50.5 -23.5q36 0 51 23.5t15 58.5v75q0 35 -15 58.5t-51 23.5q-21 0 -39 -12.5t-22 -36.5v-8h-31l12 239h167v-30h-139zM431 700h30l-276 -700
h-30zM486 449q51 0 76.5 -30t25.5 -79v-14q0 -33 -12.5 -58t-41.5 -36q29 -11 41.5 -36.5t12.5 -58.5v-31q0 -50 -25.5 -80.5t-76.5 -30.5q-52 0 -77 30.5t-25 80.5v31q0 33 12 58.5t42 36.5q-29 11 -41.5 36t-12.5 58v14q0 49 25.5 79t76.5 30zM486 420q-35 0 -53 -21.5
t-18 -59.5v-18q0 -75 71 -75q70 0 70 75v18q0 38 -17.5 59.5t-52.5 21.5zM486 217q-71 0 -71 -77v-34q0 -38 17.5 -60t53.5 -22q35 0 52.5 22t17.5 60v34q0 77 -70 77z" />
    <glyph glyph-name="seveneighths" unicode="&#x215e;" horiz-adv-x="561" 
d="M200 671h-162v29h194v-28l-125 -416h-32zM111 0h-30l276 700h30zM422 449q51 0 76.5 -30t25.5 -79v-14q0 -33 -12.5 -58t-41.5 -36q30 -11 42 -36.5t12 -58.5v-31q0 -50 -25 -80.5t-77 -30.5q-51 0 -76.5 30.5t-25.5 80.5v31q0 33 12.5 58.5t41.5 36.5q-29 11 -41.5 36
t-12.5 58v14q0 49 25.5 79t76.5 30zM422 420q-35 0 -52.5 -21.5t-17.5 -59.5v-18q0 -75 70 -75q71 0 71 75v18q0 38 -18 59.5t-53 21.5zM422 217q-70 0 -70 -77v-34q0 -38 17.5 -60t52.5 -22q36 0 53.5 22t17.5 60v34q0 77 -71 77z" />
    <glyph glyph-name="uni2080" unicode="&#x2080;" horiz-adv-x="274" 
d="M38 271q0 49 23.5 81t75.5 32t75.5 -32t23.5 -81v-228q0 -49 -23.5 -81t-75.5 -32t-75.5 32t-23.5 81v228zM69 41q0 -35 15.5 -58.5t52.5 -23.5q36 0 51.5 23.5t15.5 58.5v232q0 35 -15.5 58.5t-51.5 23.5q-37 0 -52.5 -23.5t-15.5 -58.5v-232z" />
    <glyph glyph-name="uni2081" unicode="&#x2081;" horiz-adv-x="178" 
d="M102 328q-12 -14 -29 -23t-38 -11v25q32 2 48.5 18.5t25.5 41.5h25v-444h-32v393z" />
    <glyph glyph-name="uni2082" unicode="&#x2082;" horiz-adv-x="271" 
d="M138 384q53 0 75 -32.5t22 -81.5q0 -32 -12 -58t-30 -48.5t-39 -44t-39 -44t-30.5 -49t-12.5 -58.5v-4h158v-29h-189v23q0 39 12 68.5t30 54t39 45.5t39 42.5t30 45.5t12 55q0 38 -14.5 62t-51.5 24t-51.5 -24.5t-14.5 -60.5v-30h-30v29q0 24 5.5 45t17 36.5t30 24.5
t44.5 9z" />
    <glyph glyph-name="uni2083" unicode="&#x2083;" horiz-adv-x="271" 
d="M136 384q51 0 73.5 -32t22.5 -81v-11q0 -32 -13.5 -57t-42.5 -36q29 -9 42.5 -33t13.5 -56v-35q0 -49 -22.5 -81t-73.5 -32q-52 0 -74.5 32t-22.5 81v25h30v-27q0 -35 15 -58.5t51 -23.5t51 23.5t15 61.5v34q0 33 -16.5 53t-48.5 20h-30v29h31q29 0 47 22q17 21 17 49v19
q0 38 -15 61.5t-51 23.5t-51 -23.5t-15 -58.5v-18h-30v16q0 49 22.5 81t74.5 32z" />
    <glyph glyph-name="uni2084" unicode="&#x2084;" horiz-adv-x="286" 
d="M217 28v-96h-31v96h-152v29l148 319h35v-319h37v-29h-37zM64 57h122v259z" />
    <glyph glyph-name="uni2085" unicode="&#x2085;" horiz-adv-x="271" 
d="M69 43q0 -35 15.5 -58.5t50.5 -23.5q36 0 51 23.5t15 58.5v75q0 35 -15 59t-51 24q-21 0 -39 -13t-22 -37v-7h-31l12 238h167v-30h-139l-7 -159q23 37 70 37q46 0 66.5 -31t20.5 -79v-76q0 -48 -23 -80.5t-74 -32.5t-74 32.5t-23 80.5v25h30v-26z" />
    <glyph glyph-name="uni2086" unicode="&#x2086;" horiz-adv-x="274" 
d="M138 384q52 0 74.5 -31.5t22.5 -80.5v-5h-30v7q0 35 -15 58t-51 23q-38 0 -53.5 -24t-15.5 -62v-112q21 50 78 50q47 0 67.5 -31t20.5 -79v-54q0 -49 -23 -81t-75 -32t-75.5 32t-23.5 81v227q0 25 5.5 46t17.5 36t30.5 23.5t45.5 8.5zM138 178q-37 0 -52.5 -23.5
t-15.5 -59.5v-54q0 -35 15.5 -58.5t52.5 -23.5q36 0 51.5 23.5t15.5 58.5v54q0 36 -15.5 59.5t-51.5 23.5z" />
    <glyph glyph-name="uni2087" unicode="&#x2087;" horiz-adv-x="270" 
d="M200 353h-162v29h194v-28l-125 -416h-32z" />
    <glyph glyph-name="uni2088" unicode="&#x2088;" horiz-adv-x="277" 
d="M139 384q51 0 76.5 -30t25.5 -79v-14q0 -33 -12.5 -58t-41.5 -36q29 -11 41.5 -36.5t12.5 -58.5v-31q0 -50 -25.5 -80.5t-76.5 -30.5q-52 0 -77 30.5t-25 80.5v31q0 33 12 58.5t42 36.5q-29 11 -41.5 36t-12.5 58v14q0 49 25.5 79t76.5 30zM139 355q-35 0 -53 -21.5
t-18 -59.5v-18q0 -75 71 -75q70 0 70 75v18q0 38 -17.5 59.5t-52.5 21.5zM139 152q-71 0 -71 -77v-34q0 -38 17.5 -60t53.5 -22q35 0 52.5 22t17.5 60v34q0 77 -70 77z" />
    <glyph glyph-name="uni2089" unicode="&#x2089;" horiz-adv-x="274" 
d="M136 384q52 0 75.5 -32t23.5 -81v-227q0 -50 -23 -82t-76 -32q-51 0 -75 31.5t-24 80.5v6h31v-8q0 -35 15.5 -58t51.5 -23q37 0 52.5 24t15.5 62v111q-19 -49 -77 -49q-47 0 -68 31t-21 78v55q0 49 23.5 81t75.5 32zM136 355q-36 0 -51.5 -23.5t-15.5 -58.5v-55
q0 -35 15.5 -58.5t51.5 -23.5t51.5 23.5t15.5 58.5v55q0 35 -15.5 58.5t-51.5 23.5z" />
    <glyph glyph-name="uni2070" unicode="&#x2070;" horiz-adv-x="274" 
d="M38 687q0 49 23.5 81t75.5 32t75.5 -32t23.5 -81v-228q0 -49 -23.5 -81t-75.5 -32t-75.5 32t-23.5 81v228zM69 457q0 -35 15.5 -58.5t52.5 -23.5q36 0 51.5 23.5t15.5 58.5v232q0 35 -15.5 58.5t-51.5 23.5q-37 0 -52.5 -23.5t-15.5 -58.5v-232z" />
    <glyph glyph-name="uni00B9" unicode="&#xb9;" horiz-adv-x="178" 
d="M35 735q32 2 48.5 18.5t25.5 41.5h25v-444h-32v393q-12 -14 -29 -23t-38 -11v25z" />
    <glyph glyph-name="uni00B2" unicode="&#xb2;" horiz-adv-x="271" 
d="M138 800q53 0 75 -32.5t22 -81.5q0 -32 -12 -58t-29.5 -48.5t-38.5 -43.5t-39.5 -44t-30.5 -49t-13 -59v-4h158v-29h-189v23q0 39 12 68.5t30 54t39 45.5t39 42.5t30 45.5t12 55q0 38 -14.5 62t-51.5 24t-51.5 -24.5t-14.5 -60.5v-30h-30v29q0 24 5.5 45t17 36.5t30 24.5
t44.5 9z" />
    <glyph glyph-name="uni00B3" unicode="&#xb3;" horiz-adv-x="271" 
d="M136 800q51 0 73.5 -32t22.5 -81v-11q0 -32 -13.5 -56.5t-42.5 -35.5q29 -11 42.5 -34.5t13.5 -55.5v-35q0 -49 -22.5 -81t-73.5 -32q-52 0 -74.5 32t-22.5 81v25h30v-27q0 -35 15 -58.5t51 -23.5t51 23.5t15 61.5v34q0 33 -16.5 53t-48.5 20h-30v29h31q29 0 47 22
q17 21 17 49v19q0 38 -15 61.5t-51 23.5t-51 -23.5t-15 -58.5v-18h-30v16q0 49 22.5 81t74.5 32z" />
    <glyph glyph-name="uni2074" unicode="&#x2074;" horiz-adv-x="286" 
d="M217 447v-96h-31v96h-152v29l148 319h35v-319h37v-29h-37zM64 476h122v259z" />
    <glyph glyph-name="uni2075" unicode="&#x2075;" horiz-adv-x="271" 
d="M69 456q0 -35 15.5 -58.5t50.5 -23.5q36 0 51 23.5t15 58.5v75q0 35 -15 58.5t-51 23.5q-21 0 -39 -12.5t-22 -36.5v-8h-31l12 239h167v-30h-139l-7 -160q23 38 70 38q46 0 66.5 -31t20.5 -79v-76q0 -48 -23 -80.5t-74 -32.5t-74 32.5t-23 80.5v24h30v-25z" />
    <glyph glyph-name="uni2076" unicode="&#x2076;" horiz-adv-x="274" 
d="M138 800q52 0 74.5 -31.5t22.5 -80.5v-5h-30v7q0 35 -15 58t-51 23q-38 0 -53.5 -24t-15.5 -62v-112q21 50 78 50q47 0 67.5 -31t20.5 -79v-54q0 -49 -23 -81t-75 -32t-75.5 32t-23.5 81v227q0 25 5.5 46t17.5 36t30.5 23.5t45.5 8.5zM138 594q-37 0 -52.5 -23.5
t-15.5 -59.5v-54q0 -35 15.5 -58.5t52.5 -23.5q36 0 51.5 23.5t15.5 58.5v54q0 36 -15.5 59.5t-51.5 23.5z" />
    <glyph glyph-name="uni2077" unicode="&#x2077;" horiz-adv-x="270" 
d="M200 766h-162v29h194v-28l-125 -416h-32z" />
    <glyph glyph-name="uni2078" unicode="&#x2078;" horiz-adv-x="277" 
d="M139 800q51 0 76.5 -30t25.5 -79v-14q0 -33 -12.5 -58t-41.5 -36q29 -11 41.5 -36.5t12.5 -58.5v-31q0 -50 -25.5 -80.5t-76.5 -30.5q-52 0 -77 30.5t-25 80.5v31q0 33 12 58.5t42 36.5q-29 11 -41.5 36t-12.5 58v14q0 49 25.5 79t76.5 30zM139 771q-35 0 -53 -21.5
t-18 -59.5v-18q0 -75 71 -75q70 0 70 75v18q0 38 -17.5 59.5t-52.5 21.5zM139 568q-71 0 -71 -77v-34q0 -38 17.5 -60t53.5 -22q35 0 52.5 22t17.5 60v34q0 77 -70 77z" />
    <glyph glyph-name="uni2079" unicode="&#x2079;" horiz-adv-x="274" 
d="M136 800q52 0 75.5 -32t23.5 -81v-227q0 -50 -23 -82t-76 -32q-51 0 -75 31.5t-24 80.5v6h31v-8q0 -35 15.5 -58t51.5 -23q37 0 52.5 24t15.5 62v111q-19 -49 -77 -49q-47 0 -68 31t-21 78v55q0 49 23.5 81t75.5 32zM136 771q-36 0 -51.5 -23.5t-15.5 -58.5v-55
q0 -35 15.5 -58.5t51.5 -23.5t51.5 23.5t15.5 58.5v55q0 35 -15.5 58.5t-51.5 23.5z" />
    <glyph glyph-name="asterisk" unicode="*" horiz-adv-x="401" 
d="M214 523l95 -118l-31 -23l-80 129l-80 -128l-32 22l96 118l-148 35l12 37l142 -53l-10 153h39l-9 -153l142 51l12 -37z" />
    <glyph glyph-name="backslash" unicode="\" horiz-adv-x="371" 
d="M68 700l276 -700h-41l-276 700h41z" />
    <glyph glyph-name="bullet" unicode="&#x2022;" horiz-adv-x="263" 
d="M131 422q30 0 51 -21t21 -51t-21 -51t-51 -21q-29 0 -50 21t-21 51t21 51t50 21z" />
    <glyph glyph-name="colon" unicode=":" horiz-adv-x="179" 
d="M114 469v-88h-45v88h45zM114 88v-88h-45v88h45z" />
    <glyph glyph-name="comma" unicode="," horiz-adv-x="166" 
d="M60 0h-15v88h44v-84l-29 -80h-20z" />
    <glyph glyph-name="ellipsis" unicode="&#x2026;" horiz-adv-x="283" 
d="M85 88v-88h-45v88h45zM163 88v-88h-44v88h44zM243 88v-88h-44v88h44z" />
    <glyph glyph-name="exclam" unicode="!" horiz-adv-x="225" 
d="M93 335v366h46v-366l-6 -180h-34zM138 87v-87h-44v87h44z" />
    <glyph glyph-name="exclamdown" unicode="&#xa1;" horiz-adv-x="126" 
d="M85 701v-88h-44v88h44zM40 326l6 220h34l6 -220v-326h-46v326z" />
    <glyph glyph-name="numbersign" unicode="#" horiz-adv-x="449" 
d="M337 483l-24 -227h61l-3 -34h-61l-24 -222h-39l24 222h-118l-23 -222h-39l24 222h-66l3 34h66l24 227h-67l3 34h67l19 184h39l-19 -184h117l19 184h39l-19 -184h61l-3 -34h-61zM298 483h-118l-23 -227h117z" />
    <glyph glyph-name="period" unicode="." horiz-adv-x="153" 
d="M97 88v-88h-45v88h45z" />
    <glyph glyph-name="periodcentered" unicode="&#xb7;" horiz-adv-x="125" 
d="M85 404v-88h-45v88h45z" />
    <glyph glyph-name="question" unicode="?" horiz-adv-x="408" 
d="M202 706q41 0 69.5 -13.5t46 -37.5t25.5 -56.5t8 -70.5q0 -39 -11 -69.5t-27 -56t-35 -48t-35 -47t-27 -52t-11 -62.5q0 -17 5 -37h-42q-5 20 -5 39q0 38 10.5 67t26.5 54t34 47.5t34 47t26.5 53t10.5 66.5q0 28 -5 52.5t-17 42.5t-32 28.5t-50 10.5q-29 0 -49 -10.5
t-32 -29t-17.5 -43t-5.5 -52.5v-49h-44v46q0 38 8 71t26 57t46 38t69 14zM210 87v-87h-44v87h44z" />
    <glyph glyph-name="questiondown" unicode="&#xbf;" horiz-adv-x="363" 
d="M217 700v-87h-45v87h45zM214 544q6 -18 6 -39q0 -38 -11 -67t-26.5 -54t-34 -47.5t-34.5 -47t-26.5 -53.5t-10.5 -66q0 -29 5 -53.5t17.5 -42.5t32.5 -28t50 -10q29 0 49 10.5t32 29t17.5 43t5.5 52.5v49h44v-46q0 -38 -8 -71t-26 -57t-46.5 -38t-68.5 -14
q-41 0 -69.5 13.5t-46.5 37.5t-26 56.5t-8 70.5q0 39 11 69.5t27 56t35 48t35 47t27 52t11 62.5q0 8 -1 18t-3 19h41z" />
    <glyph glyph-name="quotedbl" unicode="&#x22;" horiz-adv-x="280" 
d="M117 701l-6 -174h-34l-5 174h45zM198 701l-6 -174h-33l-6 174h45z" />
    <glyph glyph-name="quotesingle" unicode="'" horiz-adv-x="195" 
d="M125 701l-5 -174h-34l-5 174h44z" />
    <glyph glyph-name="semicolon" unicode=";" horiz-adv-x="190" 
d="M105 469v-88h-44v88h44zM76 0h-15v88h44v-84l-29 -80h-20z" />
    <glyph glyph-name="slash" unicode="/" horiz-adv-x="377" 
d="M336 700l-276 -700h-41l276 700h41z" />
    <glyph glyph-name="underscore" unicode="_" horiz-adv-x="513" 
d="M481 -10v-35h-455v35h455z" />
    <glyph glyph-name="braceleft" unicode="{" horiz-adv-x="256" 
d="M203 662q-37 0 -48 -23t-13 -60l-6 -126q-1 -18 -3.5 -34t-9 -29.5t-19 -23.5t-33.5 -16q21 -6 33.5 -16t19 -23.5t9 -29.5t3.5 -34l6 -125q2 -38 13 -60.5t48 -22.5h22v-39h-37q-47 0 -66 28.5t-22 75.5l-7 137q-1 20 -3 35t-8.5 26t-18.5 17.5t-33 9.5v42q21 3 33 10
t18.5 17.5t8.5 25.5t3 35l7 138q3 46 22 75t66 29h37v-39h-22z" />
    <glyph glyph-name="braceright" unicode="}" horiz-adv-x="256" 
d="M68 701q47 0 66 -29t22 -75l7 -138q1 -20 3.5 -35t9 -25.5t18.5 -17.5t33 -10v-42q-21 -3 -33 -9.5t-18.5 -17.5t-9 -26t-3.5 -35l-7 -137q-3 -47 -22 -75.5t-66 -28.5h-37v39h23q36 0 47 22.5t13 60.5l7 125q1 18 3 34t9 29.5t19.5 23.5t33.5 16q-21 6 -33.5 16
t-19.5 23.5t-9 29.5t-3 34l-7 126q-2 38 -13 60.5t-47 22.5h-23v39h37z" />
    <glyph glyph-name="bracketleft" unicode="[" horiz-adv-x="232" 
d="M199 39v-39h-156v701h156v-39h-110v-623h110z" />
    <glyph glyph-name="bracketright" unicode="]" horiz-adv-x="232" 
d="M144 39v623h-110v39h156v-701h-156v39h110z" />
    <glyph glyph-name="parenleft" unicode="(" horiz-adv-x="300" 
d="M225 662q-27 0 -45 -8t-28 -23t-14 -36.5t-4 -48.5v-391q0 -27 4 -48.5t14 -36.5t27.5 -23t45.5 -8h20v-39h-22q-39 0 -65 10.5t-41.5 30.5t-22 48.5t-6.5 65.5v391q0 37 6.5 65.5t22 48.5t41.5 30.5t65 10.5h22v-39h-20z" />
    <glyph glyph-name="parenright" unicode=")" horiz-adv-x="289" 
d="M69 701q78 0 107 -40.5t29 -114.5v-391q0 -37 -6.5 -65.5t-22 -48.5t-42 -30.5t-65.5 -10.5h-22v39h20q55 0 73.5 31t18.5 85v391q0 53 -18.5 84.5t-73.5 31.5h-20v39h22z" />
    <glyph glyph-name="emdash" unicode="&#x2014;" horiz-adv-x="670" 
d="M26 369h619v-38h-619v38z" />
    <glyph glyph-name="endash" unicode="&#x2013;" horiz-adv-x="417" 
d="M26 369h366v-38h-366v38z" />
    <glyph glyph-name="figuredash" unicode="&#x2012;" horiz-adv-x="453" 
d="M26 369h401v-38h-401v38z" />
    <glyph glyph-name="hyphen" unicode="-" horiz-adv-x="263" 
d="M28 371h184v-42h-184v42z" />
    <glyph glyph-name="uni00AD" unicode="&#xad;" horiz-adv-x="260" 
d="M38 371h184v-42h-184v42z" />
    <glyph glyph-name="guillemotleft" unicode="&#xab;" horiz-adv-x="285" 
d="M31 351l66 245h42l-65 -245l65 -250h-42zM147 351l65 245h42l-65 -245l65 -250h-42z" />
    <glyph glyph-name="guillemotright" unicode="&#xbb;" horiz-adv-x="285" 
d="M96 351l-65 245h42l66 -245l-66 -250h-42zM211 351l-64 245h42l65 -245l-65 -250h-42z" />
    <glyph glyph-name="guilsinglleft" unicode="&#x2039;" horiz-adv-x="171" 
d="M31 350l65 248h44l-64 -248l64 -253h-44z" />
    <glyph glyph-name="guilsinglright" unicode="&#x203a;" horiz-adv-x="171" 
d="M95 351l-64 248h44l65 -248l-65 -253h-44z" />
    <glyph glyph-name="quotedblbase" unicode="&#x201e;" horiz-adv-x="217" 
d="M65 -76h-20l20 76h-15v88h44v-84zM149 -76h-21l21 76h-16v88h44v-84z" />
    <glyph glyph-name="quotedblleft" unicode="&#x201c;" horiz-adv-x="212" 
d="M69 700h20l-20 -76h16v-88h-45v84zM147 700h21l-21 -76h16v-88h-45v84z" />
    <glyph glyph-name="quotedblright" unicode="&#x201d;" horiz-adv-x="212" 
d="M61 536h-21l21 76h-16v88h45v-84zM139 536h-20l20 76h-16v88h45v-84z" />
    <glyph glyph-name="quoteleft" unicode="&#x2018;" horiz-adv-x="134" 
d="M69 700h20l-20 -76h16v-88h-45v84z" />
    <glyph glyph-name="quoteright" unicode="&#x2019;" horiz-adv-x="134" 
d="M65 536h-20l20 76h-15v88h44v-84z" />
    <glyph glyph-name="quotesinglbase" unicode="&#x201a;" horiz-adv-x="134" 
d="M65 -76h-20l20 76h-15v88h44v-84z" />
    <glyph glyph-name="Abreve" unicode="&#x102;" horiz-adv-x="422" 
d="M304 821q-2 -42 -29 -65t-69 -23t-68.5 23t-27.5 65h30q1 -30 20.5 -43.5t45.5 -13.5t46 13.5t22 43.5h30zM97 155l-35 -155h-42l153 701h67l156 -701h-46l-35 155h-218zM104 195h204l-103 453z" />
    <glyph glyph-name="uni00A0" unicode="&#xa0;" horiz-adv-x="155" 
 />
    <glyph glyph-name="Euro" unicode="&#x20ac;" horiz-adv-x="479" 
d="M95 529q0 37 8 69.5t26 56.5t46 37.5t68 13.5t68 -13.5t46 -37.5t26 -56.5t8 -69.5v-38h-44v41q0 28 -5.5 52t-17.5 42t-32 28t-48 10t-47.5 -10t-32 -28t-18 -42t-5.5 -52v-112h193v-27h-193v-82h193v-26h-193v-117q0 -28 5.5 -52t17.5 -41.5t31.5 -27.5t48.5 -10
q28 0 48 10t32 27.5t17.5 41.5t5.5 52v46h44v-43q0 -38 -8 -70t-26 -56t-46 -37.5t-68 -13.5t-68 13.5t-46 37.5t-26 56t-8 70v114h-40v26h40v82h-40v27h40v109z" />
    <glyph glyph-name="cent" unicode="&#xa2;" horiz-adv-x="377" 
d="M208 658q35 -3 60 -16.5t41 -36t23.5 -52.5t7.5 -65v-32h-44v34q0 57 -24 92t-82 35q-29 0 -48.5 -10t-32.5 -27.5t-18.5 -41.5t-5.5 -52v-270q0 -28 5.5 -52t18.5 -42t32.5 -28t48.5 -10q58 0 82 37t24 93v55h44v-52q0 -36 -7.5 -66.5t-23.5 -53.5t-41 -37t-60 -17v-48
h-39v48q-35 3 -59.5 17.5t-40.5 38t-23 54t-7 65.5v265q0 35 7 65.5t23 54t40.5 38t59.5 17.5v47h39v-47z" />
    <glyph glyph-name="currency" unicode="&#xa4;" horiz-adv-x="349" 
d="M264 420q25 -30 25 -70t-25 -70l48 -47l-20 -20l-47 46q-29 -23 -71 -23q-39 0 -70 23l-47 -46l-20 20l47 46q-24 32 -24 71q0 40 24 70l-47 47l20 20l48 -47q30 24 69 24t71 -24l47 47l20 -20zM174 434q-17 0 -32.5 -6.5t-27 -18t-18 -26.5t-6.5 -33t6.5 -33t18 -26.5
t27 -18t32.5 -6.5q35 0 60 24.5t25 59.5t-25 59.5t-60 24.5z" />
    <glyph glyph-name="dollar" unicode="$" horiz-adv-x="468" 
d="M249 701q35 -3 59.5 -17.5t40.5 -37.5t23 -53t7 -65v-16h-44v18q0 28 -5.5 52t-18 41t-32.5 27t-48 10q-57 0 -80.5 -36.5t-23.5 -92.5q0 -42 18.5 -72t47 -54t61 -45t61 -47t47 -59.5t18.5 -81.5q0 -35 -7.5 -65t-23 -53t-40.5 -37.5t-60 -17.5v-56h-39v56q-35 3 -60 17
t-41 37t-23.5 53.5t-7.5 65.5v39h44v-41q0 -57 24 -93.5t82 -36.5t82 36.5t24 93.5q0 42 -18.5 71t-47 53t-61 45t-61 47t-47 59.5t-18.5 82.5q0 74 30.5 120t98.5 53v60h39v-60z" />
    <glyph glyph-name="sterling" unicode="&#xa3;" horiz-adv-x="386" 
d="M198 706q40 0 68 -14t45.5 -38.5t25.5 -57.5t8 -70v-43h-43v45q0 28 -5.5 52.5t-17.5 43t-31.5 29.5t-48.5 11q-30 0 -50 -10.5t-32 -28.5t-17.5 -42.5t-5.5 -52.5q0 -45 9 -78t21.5 -60.5l26 -54.5t22.5 -60h147v-37h-143q2 -12 2 -24q0 -10 -1 -20q-3 -22 -12.5 -46
t-27 -50.5t-44.5 -57.5h253v-42h-311v41q21 16 41 37t34 46.5t21 54.5q4 18 4 38q0 11 -1 23h-86v37h79q-10 32 -23.5 58.5t-26 54t-21.5 60.5t-9 78q0 38 8 70.5t26 56.5t46.5 37.5t69.5 13.5z" />
    <glyph glyph-name="uni20B9" unicode="&#x20b9;" horiz-adv-x="380" 
d="M205 663q41 -18 58.5 -56.5t18.5 -81.5h63v-37h-63q-2 -34 -13 -62.5t-32 -49.5t-51.5 -32.5t-70.5 -11.5h-29l250 -332h-50l-251 333v36h70q69 0 99.5 32.5t32.5 86.5h-199v37h199q0 62 -33 100t-99 38h-67v37h307v-37h-140z" />
    <glyph glyph-name="yen" unicode="&#xa5;" horiz-adv-x="431" 
d="M238 248v-73h109v-26h-109v-149h-46v149h-108v26h108v73h-108v26h104l-160 426h49l140 -374l141 374h44l-161 -426h106v-26h-109z" />
    <glyph glyph-name="approxequal" unicode="&#x2248;" horiz-adv-x="397" 
d="M124 479q22 0 42.5 -9.5t39.5 -21.5t38 -22q16 -9 34 -9h3q20 1 34.5 16t28.5 38l24 -22q-20 -33 -40 -50t-47 -18h-4q-19 0 -37 9q-20 10 -39 21.5t-38 21.5q-17 9 -35 9h-4q-23 0 -39 -14.5t-32 -38.5l-25 21q23 34 45 51t51 18zM124 318q22 0 42.5 -9.5t39.5 -21.5
t38 -22q16 -9 34 -9h3q20 1 34.5 16t28.5 38l24 -22q-20 -32 -40 -49.5t-47 -18.5h-4q-19 0 -37 9q-20 9 -39 21t-38 22t-39 10q-23 -1 -39 -15t-32 -39l-25 21q23 34 45 51t51 18z" />
    <glyph glyph-name="asciitilde" unicode="~" horiz-adv-x="397" 
d="M124 398h4q20 0 39 -9q20 -10 39 -21.5t38 -21.5q16 -9 33 -9h3q21 1 35 16t29 38l24 -23q-20 -32 -40.5 -49t-46.5 -19h-4q-20 0 -38 9q-20 10 -39 22t-38 21.5t-39 9.5q-23 0 -39 -14t-32 -40l-24 21q22 35 44.5 52t51.5 17z" />
    <glyph glyph-name="divide" unicode="&#xf7;" horiz-adv-x="305" 
d="M174 499v-88h-44v88h44zM271 367v-34h-236v34h236zM174 289v-88h-44v88h44z" />
    <glyph glyph-name="equal" unicode="=" horiz-adv-x="333" 
d="M271 442v-34h-229v34h229zM271 320v-34h-229v34h229z" />
    <glyph glyph-name="greater" unicode="&#x3e;" horiz-adv-x="377" 
d="M47 235l250 115l-250 115v36l294 -134v-34l-294 -134v36z" />
    <glyph glyph-name="infinity" unicode="&#x221e;" horiz-adv-x="566" 
d="M406 481q57 0 90.5 -29t33.5 -86q0 -58 -33.5 -86.5t-90.5 -28.5h-14q-38 0 -66.5 13.5t-39.5 46.5q-13 -34 -42 -47t-67 -13h-13q-57 0 -91 28.5t-34 86.5q0 57 34 86t91 29h13q38 0 67 -13.5t42 -46.5q11 33 39.5 46.5t66.5 13.5h14zM164 448q-91 0 -91 -82
q0 -80 91 -82h17q88 0 88 82t-88 82h-17zM387 448q-45 0 -66 -21.5t-21 -60.5t21 -60t66 -22h17q43 0 67.5 20.5t24.5 61.5t-24.5 61.5t-67.5 20.5h-17z" />
    <glyph glyph-name="less" unicode="&#x3c;" horiz-adv-x="376" 
d="M307 199l-294 134v34l294 134v-36l-249 -115l249 -115v-36z" />
    <glyph glyph-name="logicalnot" unicode="&#xac;" horiz-adv-x="380" 
d="M35 333v34h310v-168h-34v134h-276z" />
    <glyph glyph-name="minus" unicode="&#x2212;" horiz-adv-x="388" 
d="M354 367v-34h-319v34h319z" />
    <glyph glyph-name="multiply" unicode="&#xd7;" horiz-adv-x="337" 
d="M274 220l-105 106l-106 -106l-24 24l106 105l-105 105l23 24l106 -105l105 105l23 -23l-105 -106l105 -105z" />
    <glyph glyph-name="percent" unicode="%" horiz-adv-x="675" 
d="M160 702q51 0 73 -32.5t22 -80.5v-213q0 -48 -22 -80.5t-73 -32.5q-25 0 -43 9t-29 24t-16.5 35.5t-5.5 44.5v213q0 24 5.5 44.5t16.5 35.5t29 24t43 9zM482 701l-276 -701h-30l276 701h30zM160 673q-36 0 -49.5 -24.5t-13.5 -58.5v-216q0 -33 13.5 -57.5t49.5 -24.5
q35 0 49 24.5t14 57.5v216q0 34 -14 58.5t-49 24.5zM501 436q25 0 43 -9t29.5 -24.5t16.5 -36t5 -44.5v-210q0 -24 -5 -44.5t-16.5 -36t-29.5 -24.5t-43 -9q-26 0 -44 9t-29 24.5t-16.5 36t-5.5 44.5v210q0 24 5.5 44.5t16.5 36t29 24.5t44 9zM501 406q-35 0 -49 -24
t-14 -58v-214q0 -33 14 -58t49 -25q36 0 49.5 25t13.5 58v214q0 34 -13.5 58t-49.5 24z" />
    <glyph glyph-name="perthousand" unicode="&#x2030;" horiz-adv-x="852" 
d="M132 702q51 0 73 -32.5t22 -80.5v-213q0 -48 -22 -80.5t-73 -32.5q-25 0 -43 9t-29 24t-16.5 35.5t-5.5 44.5v213q0 24 5.5 44.5t16.5 35.5t29 24t43 9zM454 701l-276 -701h-30l276 701h30zM132 673q-36 0 -49.5 -24.5t-13.5 -58.5v-216q0 -33 13.5 -57.5t49.5 -24.5
q35 0 49 24.5t14 57.5v216q0 34 -14 58.5t-49 24.5zM473 436q25 0 43 -9t29.5 -24.5t16.5 -36t5 -44.5v-210q0 -24 -5 -44.5t-16.5 -36t-29.5 -24.5t-43 -9q-26 0 -44 9t-29 24.5t-16.5 36t-5.5 44.5v210q0 24 5.5 44.5t16.5 36t29 24.5t44 9zM720 436q25 0 43 -9
t29.5 -24.5t16.5 -36t5 -44.5v-210q0 -24 -5 -44.5t-16.5 -36t-29.5 -24.5t-43 -9q-26 0 -44 9t-29 24.5t-16.5 36t-5.5 44.5v210q0 24 5.5 44.5t16.5 36t29 24.5t44 9zM473 406q-35 0 -49 -24t-14 -58v-214q0 -33 14 -58t49 -25q36 0 49.5 25t13.5 58v214q0 34 -13.5 58
t-49.5 24zM720 406q-35 0 -49 -24t-14 -58v-214q0 -33 14 -58t49 -25q36 0 49.5 25t13.5 58v214q0 34 -13.5 58t-49.5 24z" />
    <glyph glyph-name="plus" unicode="+" horiz-adv-x="346" 
d="M178 333v-146h-34v146h-142v34h142v144h34v-144h143v-34h-143z" />
    <glyph glyph-name="plusminus" unicode="&#xb1;" horiz-adv-x="388" 
d="M177 222v118h-139v35h139v136h34v-136h139v-35h-139v-118h139v-35h-312v35h139z" />
    <glyph glyph-name="mu" unicode="&#xb5;" horiz-adv-x="399" 
d="M307 91q-13 -44 -42.5 -69.5t-73.5 -25.5q-41 0 -65 21.5t-33 54.5l1 -164h-46v592h46v-329q0 -57 24 -94.5t80 -37.5t80.5 37.5t24.5 94.5v329h46v-500h-42v91z" />
    <glyph glyph-name="ampersand" unicode="&#x26;" horiz-adv-x="484" 
d="M251 658q-122 0 -122 -130v-28q0 -48 25 -80t71 -34h108v78h46v-78h38v-42h-38v-252q0 -26 2 -48t16 -44h-48q-8 15 -11.5 30.5t-3.5 36.5q-16 -37 -47 -55t-71 -18q-69 0 -101 45t-32 117v66q0 50 22 89.5t70 55.5q-48 14 -70 52.5t-22 89.5v17q0 85 41.5 129.5
t126.5 44.5h99v-42h-99zM231 344q-50 -3 -76 -35.5t-26 -85.5v-64q0 -55 24.5 -89t78.5 -34q44 0 72 25.5t29 72.5v210h-102z" />
    <glyph glyph-name="asciicircum" unicode="^" horiz-adv-x="409" 
d="M72 391h-39l154 309h35l154 -309h-39l-133 266z" />
    <glyph glyph-name="at" unicode="@" horiz-adv-x="760" 
d="M421 730q71 0 121.5 -20.5t82.5 -58t47 -89.5t15 -115q0 -57 -11.5 -111.5t-33 -97t-53.5 -69t-73 -26.5q-34 0 -50.5 19.5t-18.5 50.5q-15 -36 -42 -56q-26 -20 -62 -20h-4q-30 0 -50 12.5t-31 33.5t-14 49q-1 14 -1 29q0 14 1 29l10 99q3 31 12.5 57.5t25 46t37.5 30
t51 10.5q73 -2 91 -71l7 66h41l-30 -286v-9q0 -16 6 -31q7 -20 32 -20q37 0 61 28t38 68.5t19.5 86t5.5 81.5q0 57 -13.5 102.5t-42 78t-72.5 49.5t-104 17q-83 0 -142.5 -33t-97.5 -89.5t-56 -130.5t-18 -156q0 -140 66 -217t207 -77q50 0 97.5 13t89.5 45l-3 -42
q-43 -29 -89 -41t-97 -12q-81 0 -139.5 23t-96.5 66t-56.5 105t-18.5 139q0 86 20.5 166.5t64 142t110.5 98.5t161 37zM391 492q-46 0 -69 -31t-28 -77l-9 -94q-1 -11 -1 -22q0 -10 1 -20q2 -21 10 -36.5t23 -25t39 -9.5q23 0 40 9t29 24.5t18.5 36t8.5 43.5l11 97q1 9 1 18
q0 11 -1 22q-3 19 -11.5 33.5t-24 23t-37.5 8.5z" />
    <glyph glyph-name="bar" unicode="|" horiz-adv-x="250" 
d="M146 724v-747h-38v747h38z" />
    <glyph glyph-name="brokenbar" unicode="&#xa6;" horiz-adv-x="251" 
d="M108 723h39v-314h-39v314zM108 291h39v-314h-39v314z" />
    <glyph glyph-name="copyright" unicode="&#xa9;" horiz-adv-x="807" 
d="M396 700q74 0 136.5 -26.5t108 -73.5t71 -111t25.5 -139t-25.5 -139t-71 -111t-108 -73.5t-136.5 -26.5t-136.5 26.5t-108 73.5t-71 111t-25.5 139t25.5 139t71 111t108 73.5t136.5 26.5zM396 669q-68 0 -124.5 -24.5t-97.5 -67t-64 -101t-23 -126.5t23 -126.5t64 -101
t97.5 -67t124.5 -24.5q67 0 124 24.5t97.5 67t63.5 101t23 126.5t-23 126.5t-63.5 101t-97.5 67t-124 24.5zM392 569q55 0 79.5 -34.5t24.5 -88.5v-24h-32v26q0 38 -16 64t-56 26q-39 0 -55.5 -26t-16.5 -64v-196q0 -38 16.5 -64t55.5 -26q40 0 56 26t16 64v37h32v-36
q0 -53 -24.5 -88t-79.5 -35q-56 0 -81 35t-25 88v193q0 53 25 88t81 35z" />
    <glyph glyph-name="dagger" unicode="&#x2020;" horiz-adv-x="393" 
d="M216 501h142v-37h-142v-529h-39v529h-142v37h142v199h39v-199z" />
    <glyph glyph-name="daggerdbl" unicode="&#x2021;" horiz-adv-x="393" 
d="M216 501h142v-37h-142v-291h142v-38h-142v-200h-39v200h-142v38h142v291h-142v37h142v199h39v-199z" />
    <glyph glyph-name="degree" unicode="&#xb0;" horiz-adv-x="210" 
d="M105 708q31 0 52.5 -21t21.5 -52t-21.5 -52t-52.5 -21t-52.5 21t-21.5 52t21.5 52t52.5 21zM105 684q-21 0 -35.5 -14t-14.5 -35t14.5 -35t35.5 -14q20 0 35 14t15 35t-15 35t-35 14z" />
    <glyph glyph-name="paragraph" unicode="&#xb6;" horiz-adv-x="396" 
d="M185 665v-727h-35v351q-69 3 -97.5 45.5t-28.5 120.5v79q0 38 6.5 68.5t22.5 52t42.5 33.5t67.5 12h182v-762h-35v727h-125z" />
    <glyph glyph-name="registered" unicode="&#xae;" horiz-adv-x="748" 
d="M374 700q74 0 136.5 -26.5t108 -73.5t71 -111t25.5 -139t-25.5 -139t-71 -111t-108 -73.5t-136.5 -26.5t-136.5 26.5t-108 73.5t-71 111t-25.5 139t25.5 139t71 111t108 73.5t136.5 26.5zM374 669q-68 0 -124.5 -24.5t-97.5 -67t-64 -101t-23 -126.5t23 -126.5t64 -101
t97.5 -67t124.5 -24.5q67 0 124 24.5t97.5 67t63.5 101t23 126.5t-23 126.5t-63.5 101t-97.5 67t-124 24.5zM378 564q56 0 80.5 -29t24.5 -82v-13q0 -38 -14.5 -64t-49.5 -37q35 -11 49.5 -36t14.5 -63v-46q0 -14 2 -30.5t10 -27.5h-35q-7 12 -9 25.5t-2 33.5v46
q0 49 -25.5 65t-66.5 16h-48v-186h-34v428h103zM366 354q42 0 62.5 17.5t20.5 62.5v15q0 40 -16 61.5t-57 21.5h-67v-178h57z" />
    <glyph glyph-name="section" unicode="&#xa7;" horiz-adv-x="378" 
d="M191 706q64 -1 105 -35t41 -93v-19h-44v13q0 45 -29.5 69.5t-71.5 25.5q-42 0 -73.5 -20.5t-33.5 -66.5v-3q0 -28 18 -46q19 -20 47 -35t61 -29t61.5 -33.5t47.5 -47t19 -70.5q0 -48 -27.5 -81t-69.5 -52q20 -10 38 -21.5t31.5 -26.5t21 -35t7.5 -46q-1 -28 -13 -50.5
t-32.5 -38t-47.5 -24t-57 -8.5q-33 0 -60.5 8.5t-47.5 25t-31.5 40t-11.5 54.5v33h43v-28q0 -23 8.5 -40.5t23.5 -29.5t34.5 -18t40.5 -6q19 0 37.5 5t33.5 15.5t24 26.5t10 37v3q0 29 -17 48q-19 20 -47.5 35t-61.5 28.5t-61.5 32.5t-47.5 46.5t-19 70.5q0 49 31.5 82
t74.5 48q-21 10 -40.5 22t-34.5 27.5t-23.5 35.5t-8.5 47q1 30 13 53t32.5 39t47.5 24t59 8zM189 430q-20 -3 -39 -12t-33.5 -23t-23.5 -32.5t-9 -40.5q0 -26 11 -44t28 -32t38 -24l41 -19q38 11 65.5 39t27.5 72q0 23 -9 40.5t-24 31t-34 24.5t-39 20z" />
    <glyph glyph-name="trademark" unicode="&#x2122;" horiz-adv-x="580" 
d="M104 344v327h-90v29h211v-29h-89v-327h-32zM424 348h-31l-92 303v-307h-29v356h44l93 -304l92 304h44v-356h-30v307z" />
    <glyph glyph-name="uni2117" unicode="&#x2117;" horiz-adv-x="748" 
d="M374 701q74 0 136.5 -26.5t108 -73.5t71 -111t25.5 -139t-25.5 -139t-71 -111.5t-108 -74t-136.5 -26.5t-136.5 26.5t-108 74t-71 111.5t-25.5 139t25.5 139t71 111t108 73.5t136.5 26.5zM374 669q-68 0 -124.5 -24t-97.5 -67t-64 -101t-23 -126t23 -126.5t64 -101.5
t97.5 -67.5t124.5 -24.5q67 0 124 24.5t97.5 67.5t63.5 101.5t23 126.5t-23 126t-63.5 101t-97.5 67t-124 24zM395 556q57 0 80.5 -31.5t23.5 -84.5v-35q0 -57 -26.5 -85t-85.5 -28h-61v-164h-34v428h103zM385 323q43 0 61.5 20t18.5 65v29q0 39 -15 63t-57 24h-67v-201h59z
" />
    <glyph glyph-name="acute" unicode="&#xb4;" horiz-adv-x="197" 
d="M154 848l-84 -95h-35l72 95h47z" />
    <glyph glyph-name="breve" unicode="&#x2d8;" horiz-adv-x="254" 
d="M224 821q-1 -42 -28 -65t-69 -23t-69 23t-28 65h30q2 -30 21.5 -43.5t45.5 -13.5t45.5 13.5t21.5 43.5h30z" />
    <glyph glyph-name="caron" unicode="&#x2c7;" horiz-adv-x="250" 
d="M64 848l61 -64l61 64h43l-84 -90h-40l-84 90h43z" />
    <glyph glyph-name="cedilla" unicode="&#xb8;" horiz-adv-x="247" 
d="M137 -39q32 -1 53.5 -11t21.5 -40q0 -18 -7.5 -29.5t-20 -18.5t-28.5 -9.5t-33 -2.5q-16 0 -32 3t-28.5 10t-20 18t-7.5 28v6h33v-5q0 -22 18.5 -30.5t36.5 -9.5q20 0 37.5 9t17.5 32q0 24 -17.5 31t-39.5 7h-7v56h23v-44z" />
    <glyph glyph-name="circumflex" unicode="&#x2c6;" horiz-adv-x="250" 
d="M64 758h-43l84 90h40l84 -90h-43l-61 63z" />
    <glyph glyph-name="dieresis" unicode="&#xa8;" horiz-adv-x="190" 
d="M68 830h54v-85h-54v85z" />
    <glyph glyph-name="dotaccent" unicode="&#x2d9;" horiz-adv-x="148" 
d="M94 833v-84h-41v84h41z" />
    <glyph glyph-name="grave" unicode="`" horiz-adv-x="197" 
d="M91 848l71 -95h-36l-85 95h50z" />
    <glyph glyph-name="hungarumlaut" unicode="&#x2dd;" horiz-adv-x="235" 
d="M126 848l-77 -95h-32l64 95h45zM211 848l-77 -95h-32l64 95h45z" />
    <glyph glyph-name="macron" unicode="&#xaf;" horiz-adv-x="253" 
d="M223 781v-34h-194v34h194z" />
    <glyph glyph-name="ogonek" unicode="&#x2db;" horiz-adv-x="205" 
d="M124 1q-20 -15 -33 -38q-12 -22 -12 -40v-3q1 -17 12.5 -24.5t27.5 -7.5q25 0 43 13v-28q-25 -13 -56 -13q-26 1 -44 13t-19 38v5q0 22 15 44q17 24 41 41h25z" />
    <glyph glyph-name="ring" unicode="&#x2da;" horiz-adv-x="218" 
d="M109 880q28 0 47.5 -19t19.5 -47q0 -29 -19.5 -48t-47.5 -19t-47.5 19t-19.5 48q0 28 19.5 47t47.5 19zM109 856q-18 0 -30.5 -12t-12.5 -30q0 -19 12.5 -30.5t30.5 -11.5q17 0 30 11.5t13 30.5q0 18 -13 30t-30 12z" />
    <glyph glyph-name="tilde" unicode="&#x2dc;" horiz-adv-x="262" 
d="M240 799q-20 -47 -58 -48q-14 0 -26 5t-23 11.5t-21.5 11.5t-22.5 5q-26 0 -42 -30l-25 17q22 47 63 47q14 0 26 -5t23.5 -11.5t22 -11.5t21.5 -5q13 0 21.5 8.5t15.5 21.5z" />
    <glyph glyph-name="commaaccentcomb" unicode="&#xf6c3;" horiz-adv-x="0" 
d="M76 -176h-18l19 59h-13v83h39v-79z" />
    <glyph glyph-name="uni02BC" unicode="&#x2bc;" horiz-adv-x="134" 
d="M65 536h-20l20 76h-15v88h44v-84z" />
    <glyph glyph-name="Edotaaccent" horiz-adv-x="216" 
 />
    <glyph glyph-name="edotaaccent" horiz-adv-x="216" 
 />
    <glyph glyph-name="lcute" horiz-adv-x="216" 
 />
    <glyph glyph-name="A" unicode="A" horiz-adv-x="422" 
d="M97 155l-35 -155h-42l153 701h67l156 -701h-46l-35 155h-218zM104 195h204l-103 453z" />
    <glyph glyph-name="Aacute" unicode="&#xc1;" horiz-adv-x="422" 
d="M280 833l-84 -95h-35l71 95h48zM97 155l-35 -155h-42l153 701h67l156 -701h-46l-35 155h-218zM104 195h204l-103 453z" />
    <glyph glyph-name="uni20BE" unicode="&#x20be;" horiz-adv-x="463" 
d="M381 353v153q0 95 -72 121v-274h-41v284q-8 1 -17 1.5t-19 0.5q-9 0 -18 -0.5t-18 -1.5v-284h-41v274q-71 -26 -71 -121v-330q0 -29 5.5 -53t18.5 -42t33.5 -28t49.5 -10h212v-43h-360v43h43q-27 23 -38 58.5t-11 77.5v324q0 72 31 113t87 56v35h41v-27q9 1 18 1h36
q9 0 18 -2v28h41v-35q55 -16 85.5 -57t30.5 -112v-150h-44z" />
    <glyph glyph-name="uni10D0" unicode="&#x10d0;" horiz-adv-x="377" 
d="M152 666q1 -19 15 -36.5t35 -35.5l45 -37.5t45 -42.5t34.5 -50t13.5 -60v-233q0 -38 -8.5 -70t-27 -55.5t-47.5 -37t-69 -13.5t-68.5 13.5t-47 37t-27 55.5t-8.5 70v80h44v-83q0 -28 5.5 -52t18.5 -41.5t33 -27.5t49 -10t49 10t33 27.5t18.5 41.5t5.5 52v250
q0 23 -13.5 43.5t-33.5 39.5t-43.5 37.5t-44 38t-34.5 40t-15 44.5q-1 11 -1 20q0 8 1 20h42v-18q1 -7 1 -17z" />
    <glyph glyph-name="uni10D1" unicode="&#x10d1;" horiz-adv-x="383" 
d="M221 410q65 -10 95 -58t30 -117v-64q0 -38 -9 -70.5t-28.5 -56t-49 -36.5t-69.5 -13t-69 13t-47.5 36.5t-27.5 56t-9 70.5v64q0 37 8 68t25 54.5t43 37.5t62 17v88q0 23 -7.5 38t-18.5 26t-23.5 20.5t-24 20.5t-19.5 26.5t-9 39.5v15q-1 1 -1 3q0 4 1 12h42v-12
q1 -2 1 -12q1 -19 9 -32t19.5 -23.5t25 -21t25 -25t19 -35.5t7.5 -53v-77zM299 238q0 58 -25.5 95.5t-83.5 37.5t-82.5 -37.5t-24.5 -95.5v-70q0 -57 24.5 -94.5t82.5 -37.5t83.5 37.5t25.5 94.5v70z" />
    <glyph glyph-name="uni10D2" unicode="&#x10d2;" horiz-adv-x="383" 
d="M216 469q33 -4 57.5 -19t40.5 -38t23.5 -53t7.5 -65v-123q0 -38 -9 -70.5t-28 -56t-48.5 -36.5t-69.5 -13t-69 13t-47.5 36.5t-27.5 56t-9 70.5v123q0 72 32 120.5t101 55.5q7 11 17.5 20.5l18.5 16.5q18 13 28 26.5t10 34.5v18q0 29 -7.5 45t-17 23.5t-19.5 8.5t-16 1
q-10 0 -20.5 -2.5t-19.5 -10.5t-14.5 -23.5t-5.5 -41.5v-36h-42v36q0 57 26.5 88.5t75.5 31.5q48 0 75 -31.5t27 -88.5v-19q0 -18 -6.5 -31.5t-15.5 -23.5t-19 -17.5t-18 -14.5q-4 -3 -6.5 -6t-4.5 -5zM299 297q0 57 -25.5 94.5t-83.5 37.5t-82.5 -37.5t-24.5 -94.5v-129
q0 -57 24.5 -94.5t82.5 -37.5t83.5 37.5t25.5 94.5v129z" />
    <glyph glyph-name="uni10D3" unicode="&#x10d3;" horiz-adv-x="382" 
d="M192 288q-36 0 -62.5 14t-46.5 46v-60q0 -25 13.5 -45t37.5 -31q42 -20 72 -41.5t51.5 -47t36.5 -55.5t27 -68h-50q-11 34 -24 59.5t-31.5 46t-43 37t-57.5 33.5q-23 11 -46 15q-11 2 -23 2q-15 0 -32 -3v46q14 2 26 2h9q-5 11 -8.5 23.5t-3.5 26.5v241q0 38 9 70.5
t28 56t48 37t70 13.5q40 0 68.5 -13.5t47.5 -37t28 -56t9 -70.5v-64q0 -38 -9 -70.5t-28 -56t-47.5 -37t-68.5 -13.5zM83 462q0 -29 6 -53t19 -41.5t34 -27.5t50 -10q58 0 82.5 37.5t24.5 94.5v70q0 57 -24.5 94.5t-82.5 37.5q-29 0 -50 -10t-34 -27.5t-19 -42t-6 -52.5v-70
z" />
    <glyph glyph-name="uni10D4" unicode="&#x10d4;" horiz-adv-x="377" 
d="M188 706q40 0 68.5 -13.5t47 -37t27 -56t8.5 -70.5v-358q0 -38 -8.5 -70t-27 -55.5t-47 -37t-68.5 -13.5t-68.5 13.5t-47 37t-27 55.5t-8.5 70v80h44v-83q0 -28 5.5 -52t18.5 -41.5t33 -27.5t49 -10t49 10t33 27.5t18.5 41.5t5.5 52v364q0 28 -5.5 52t-18.5 42t-33 28
t-49 10t-49 -10t-33 -28t-18.5 -42t-5.5 -52v-61h-44v58q0 38 8.5 70.5t27 56t47 37t68.5 13.5z" />
    <glyph glyph-name="uni10D5" unicode="&#x10d5;" horiz-adv-x="377" 
d="M339 533v-8q0 -47 -24 -84t-69 -48q55 -20 74 -55t19 -87v-80q0 -38 -8.5 -70.5t-27 -56t-47 -36.5t-68.5 -13t-68.5 13t-47 36.5t-27 56t-8.5 70.5v80h44v-82q0 -29 5.5 -53t18.5 -42t33 -28t49 -10q58 0 82 38t24 98v80q0 55 -26.5 86.5t-77.5 31.5h-47v42h49
q48 0 75 29t27 75v16q0 60 -24 96t-82 36t-82 -37.5t-24 -94.5v-28h-44v25q0 38 8.5 70.5t27 56t47 37t68.5 13.5t68.5 -12.5t47 -35.5t27 -55t8.5 -70z" />
    <glyph glyph-name="uni10D6" unicode="&#x10d6;" horiz-adv-x="485" 
d="M295 412q39 0 68 -13.5t47.5 -37t27.5 -56t9 -70.5v-64q0 -38 -9 -70.5t-28 -56t-47.5 -36.5t-68.5 -13q-41 0 -70 13t-48 36.5t-28 56t-9 70.5v64q0 43 10 74q2 8 7.5 17t9.5 14q-5 -1 -12 -1h-7q-12 1 -17 3q-45 11 -69 49.5t-24 101.5v57q0 75 34 115.5t98 40.5
q63 0 97 -40.5t34 -115.5v-57q0 -10 -1 -22.5t-3 -24t-5 -21.5t-7 -14q4 1 11 1zM79 493q0 -114 90 -114q8 0 23 2t30 12.5t26 33.5t11 66v57q0 114 -90 114q-8 0 -23 -2t-30 -12.5t-26 -33.5t-11 -66v-57zM401 238q0 57 -24.5 94.5t-82.5 37.5q-29 0 -50 -10t-34 -27.5
t-19 -42t-6 -52.5v-70q0 -29 6 -53t19 -41.5t34 -27.5t50 -10q58 0 82.5 37.5t24.5 94.5v70z" />
    <glyph glyph-name="uni10D7" unicode="&#x10d7;" horiz-adv-x="543" 
d="M383 706q37 0 60.5 -13t37 -36t19 -56t5.5 -72v-529h-46v532q0 27 -2 51t-10 42t-23 28.5t-41 10.5t-41 -8.5t-23 -21.5t-10 -28.5t-2 -28.5v-406q0 -79 -31 -127.5t-104 -48.5q-37 0 -62.5 12.5t-41.5 36t-23.5 56t-7.5 71.5v358q0 39 7.5 72t23.5 56t41.5 36t62.5 13
q40 0 68.5 -15t43.5 -42q14 27 36.5 42t62.5 15zM261 577q0 13 -4 28.5t-14.5 28.5t-27.5 21.5t-43 8.5t-43 -10.5t-27.5 -28.5t-14.5 -42t-4 -51v-364q0 -28 4 -52t14.5 -42t27.5 -28t43 -10t43 10.5t27.5 28.5t14.5 42t4 51v409z" />
    <glyph glyph-name="uni10D8" unicode="&#x10d8;" horiz-adv-x="383" 
d="M37 0v529q0 38 9 70.5t27.5 56t47.5 37t69 13.5t69.5 -13.5t48.5 -37t28 -56t9 -70.5v-529h-46v532q0 57 -25.5 94.5t-83.5 37.5t-82.5 -37.5t-24.5 -94.5v-532h-46z" />
    <glyph glyph-name="uni10D9" unicode="&#x10d9;" horiz-adv-x="377" 
d="M339 525q0 -47 -24 -84t-69 -48q55 -20 74 -55t19 -87v-80q0 -38 -8.5 -70.5t-27 -56t-47 -36.5t-68.5 -13t-68.5 13t-47 36.5t-27 56t-8.5 70.5v80h44v-82q0 -29 5.5 -53t18.5 -42t33 -28t49 -10q58 0 82 38t24 98v80q0 55 -26.5 86.5t-77.5 31.5h-47v42h49q48 0 75 29
t27 75v16q0 60 -24 95.5t-81 36.5v42q40 0 68.5 -12.5t47 -35.5t27 -55t8.5 -70v-8z" />
    <glyph glyph-name="uni10DA" unicode="&#x10da;" horiz-adv-x="382" 
d="M115 176q-23 11 -46 15q-11 2 -23 2q-15 0 -32 -3v46q14 2 26 2h9q-5 11 -8.5 23.5t-3.5 26.5v241q0 38 9 70.5t28 56t48 37t70 13.5q40 0 68.5 -13.5t47.5 -37t28 -56t9 -70.5v-179h-46v182q0 57 -24.5 94.5t-82.5 37.5q-29 0 -50 -10t-34 -27.5t-19 -42t-6 -52.5v-244
q0 -25 13.5 -45t37.5 -31q42 -20 72 -41.5t51.5 -47t36.5 -55.5t27 -68h-50q-11 34 -24 59.5t-31.5 46t-43 37t-57.5 33.5z" />
    <glyph glyph-name="uni10DB" unicode="&#x10db;" horiz-adv-x="384" 
d="M191 706q40 0 69.5 -13.5t48.5 -37t28 -56t9 -70.5v-358q0 -38 -9 -70.5t-28 -56t-48.5 -36.5t-69.5 -13t-69 13t-47.5 36.5t-27.5 56t-9 70.5v64q0 38 9 70.5t27.5 56t47.5 37t69 13.5q73 0 109 -61v181q0 57 -25.5 94.5t-83.5 37.5t-82.5 -37.5t-24.5 -94.5v-28h-46v25
q0 38 9 70.5t27.5 56t47.5 37t69 13.5zM300 238q0 57 -25.5 94.5t-83.5 37.5t-82.5 -37.5t-24.5 -94.5v-70q0 -57 24.5 -94.5t82.5 -37.5t83.5 37.5t25.5 94.5v70z" />
    <glyph glyph-name="uni10DC" unicode="&#x10dc;" horiz-adv-x="383" 
d="M192 412q40 0 68.5 -13.5t47.5 -37t28 -56t9 -70.5v-64q0 -38 -9 -70.5t-28 -56t-47.5 -36.5t-68.5 -13q-41 0 -70 13t-48 36.5t-28 56t-9 70.5v358q0 38 9 70.5t28 56t48 37t69 13.5q19 0 35 -1.5l31 -3t30 -1.5q14 0 30 3v-42q-17 -4 -30 -4t-27 1.5t-30.5 3.5t-38.5 2
q-28 0 -48.5 -10t-33.5 -28t-19.5 -42t-6.5 -52v-181q37 61 109 61zM299 238q0 57 -24.5 94.5t-82.5 37.5q-29 0 -50 -10t-34 -27.5t-19 -42t-6 -52.5v-70q0 -29 6 -53t19 -41.5t34 -27.5t50 -10q58 0 82.5 37.5t24.5 94.5v70z" />
    <glyph glyph-name="uni10DD" unicode="&#x10dd;" horiz-adv-x="542" 
d="M368 706q40 0 66.5 -12.5t42.5 -35.5t22 -56t6 -73v-529h-46v532q0 28 -3.5 52.5t-13 42t-27.5 27.5t-47 10q-8 0 -20.5 -4t-24.5 -13t-20.5 -24.5t-8.5 -38.5v-234h-46v234q0 23 -8.5 38.5t-20.5 24.5t-24.5 13t-20.5 4q-29 0 -47 -10t-28 -27.5t-13 -42t-3 -52.5v-532
h-46v529q0 40 6 73t22 56t42 35.5t67 12.5q31 0 59.5 -16.5t37.5 -42.5q9 26 37.5 42.5t59.5 16.5z" />
    <glyph glyph-name="uni10DE" unicode="&#x10de;" horiz-adv-x="378" 
d="M340 504q0 -38 -23 -68q-25 -32 -70 -43q55 -20 74 -55t19 -87v-80q0 -38 -8.5 -70.5t-27 -56t-47 -36.5t-68.5 -13t-68.5 13t-47 36.5t-27 56t-8.5 70.5v80h44v-82q0 -29 5.5 -53t18.5 -42t33 -28t49 -10q58 0 82 38t24 98v80q0 55 -26.5 86.5t-77.5 31.5h-47v42h49
q48 0 75 24.5t27 70.5v13q0 20 -12 32t-30.5 21t-39.5 16.5t-39.5 17.5t-31.5 25t-14 39v14q-1 1 -1 3q0 4 1 12h42v-9q0 -7 1 -14q1 -12 5 -19q10 -21 36.5 -32l55 -23t51 -30.5t22.5 -54.5v-14z" />
    <glyph glyph-name="uni10DF" unicode="&#x10df;" horiz-adv-x="378" 
d="M341 701v-529q0 -38 -8.5 -70t-27 -55.5t-47 -37t-68.5 -13.5t-68.5 13.5t-47 37t-27 55.5t-8.5 70v80h44v-83q0 -28 5.5 -52t18.5 -41.5t33 -27.5t49 -10t49 10t33 27.5t18.5 41.5t5.5 52v488l-142 -45l12 -9q14 -10 30 -27t16 -49v-18q0 -48 -22.5 -74t-63.5 -26
q-42 0 -64.5 26t-22.5 74v29h42v-29q0 -22 5 -33.5t12 -17t15 -6.5t13 -1q4 0 11.5 1t15 6.5t12.5 17t5 33.5v18q0 15 -7.5 23.5t-21.5 18.5q-13 9 -25 21.5t-12 34.5v15l192 61h46z" />
    <glyph glyph-name="uni10E0" unicode="&#x10e0;" horiz-adv-x="382" 
d="M192 412q40 0 68.5 -13.5t47.5 -37t28 -56t9 -70.5v-235h-46v238q0 57 -24.5 94.5t-82.5 37.5q-29 0 -50 -10t-34 -27.5t-19 -42t-6 -52.5v-238h-46v529q0 38 9 70.5t28 56t48 37t69 13.5q38 0 66 -4q11 -2 22 -2q19 0 38 4v-42q-17 -4 -30 -4q-3 -1 -7 -1q-9 0 -20 2
q-14 1 -30.5 3t-38.5 2q-57 0 -82.5 -37.5t-25.5 -94.5v-181q37 61 109 61z" />
    <glyph glyph-name="uni10E1" unicode="&#x10e1;" horiz-adv-x="378" 
d="M340 407v-236q0 -38 -8.5 -70t-27 -55.5t-47 -37t-68.5 -13.5t-68.5 13.5t-47 37t-27 55.5t-8.5 70v530h46v-533q0 -28 5.5 -52t18.5 -41.5t33 -27.5t49 -10t49 10t33 27.5t18.5 41.5t5.5 52v239h44z" />
    <glyph glyph-name="uni10E2" unicode="&#x10e2;" horiz-adv-x="420" 
d="M332 560q26 -10 38 -33.5t12 -55.5v-300q0 -38 -12 -70t-34 -55.5t-54 -37t-72 -13.5t-72 13.5t-54 37t-34 55.5t-12 70v529h46v-532q0 -28 9 -52t25.5 -41.5t40 -27.5t52.5 -10t52.5 10t40 27.5t25.5 41.5t9 52v303q0 36 -17.5 50.5t-38.5 14.5q-25 0 -41.5 -15.5
t-16.5 -49.5v-73h-42v73q0 32 10.5 55t36.5 34q-17 11 -24.5 27.5t-7.5 33.5q0 35 25 60t60 25q17 0 32.5 -6.5t27 -18t18 -27t6.5 -33.5t-8.5 -35t-25.5 -26zM282 579q17 0 29.5 12.5t12.5 29.5q0 18 -12.5 30.5t-29.5 12.5q-18 0 -30.5 -12.5t-12.5 -30.5
q0 -17 12.5 -29.5t30.5 -12.5z" />
    <glyph glyph-name="uni10E3" unicode="&#x10e3;" horiz-adv-x="377" 
d="M221 706q37 0 60 -13t36 -36t17.5 -56t4.5 -72v-358q0 -38 -8.5 -70.5t-27 -56t-47 -36.5t-68.5 -13t-68.5 13t-47 36.5t-27 56t-8.5 70.5v80h44v-82q0 -29 5.5 -53t18.5 -42t33 -28t49 -10q58 0 82 38t24 98v360q0 27 -1.5 51t-8.5 42t-21.5 28.5t-40.5 10.5
q-23 0 -35 -8.5t-17.5 -21.5t-6.5 -28.5t-1 -28.5v-106h-46v106q0 13 -1.5 28.5t-7 28.5t-17 21.5t-31.5 8.5q-11 0 -28 -4q-8 -2 -14 -2q-9 0 -16 3v39q6 -2 13 -2q8 0 17 3q16 5 28 5q32 0 50.5 -15t29.5 -42q10 27 28.5 42t54.5 15z" />
    <glyph glyph-name="uni10E4" unicode="&#x10e4;" horiz-adv-x="541" 
d="M367 706q40 0 66.5 -12.5t42.5 -35.5t22 -56t6 -73v-4q0 -47 -24 -84t-69 -48q55 -20 74 -55t19 -87v-80q0 -38 -8.5 -70.5t-27 -56t-47 -36.5t-68.5 -13t-68.5 13t-47 36.5t-27 56t-8.5 70.5v80h44v-82q0 -29 5.5 -53t18.5 -42t33 -28t49 -10q58 0 82 38t24 98v80
q0 55 -26.5 86.5t-77.5 31.5h-15v42h17q48 0 75 29.5t27 74.5v16q0 28 -3.5 52.5t-13 42t-27.5 27.5t-47 10q-9 0 -21.5 -4t-24 -13t-20 -24.5t-8.5 -38.5v-76q0 -39 -6.5 -71.5t-22 -56t-40 -36t-60.5 -12.5t-60.5 12.5t-39.5 36t-21.5 56t-6.5 71.5v21q0 40 6 73t22 56
t42 35.5t67 12.5q31 0 59.5 -16.5t37.5 -42.5q9 26 37.5 42.5t59.5 16.5zM247 584q0 23 -8.5 38.5t-20.5 24.5t-24.5 13t-20.5 4q-29 0 -47 -10t-28 -27.5t-13 -42t-3 -52.5v-27q0 -25 4 -48.5t13 -42t25 -29.5t40 -11t40 10t25.5 28t13.5 42t4 51v79z" />
    <glyph glyph-name="uni10E5" unicode="&#x10e5;" horiz-adv-x="378" 
d="M340 701v-530q0 -38 -8.5 -70t-27 -55.5t-47 -37t-68.5 -13.5t-68.5 13.5t-47 37t-27 55.5t-8.5 70v80h44v-83q0 -28 5.5 -52t18.5 -41.5t33 -27.5t49 -10t49 10t33 27.5t18.5 41.5t5.5 52v255q0 24 -3.5 44t-13 33.5t-27.5 21t-46 7.5h-13q-28 0 -45.5 -5.5t-27.5 -18.5
t-13.5 -33t-3.5 -49v-1h-43q0 80 30 115.5t106 35.5h7q32 0 57 -10.5t36 -33.5v172h46z" />
    <glyph glyph-name="uni10E6" unicode="&#x10e6;" horiz-adv-x="476" 
d="M325 664q-21 0 -33.5 -10t-19 -23.5t-9 -28.5t-2.5 -25v-156h-46v156q0 10 -2.5 25t-9 28.5t-19.5 23.5t-34 10q-26 0 -39.5 -10t-19.5 -27.5t-7 -42t-1 -52.5v-244q0 -25 13.5 -45t37.5 -31q42 -20 72 -41.5t51.5 -47t36 -55.5t26.5 -68h-49q-11 34 -24 59.5t-31.5 46
t-43 37t-57.5 33.5q-23 11 -46 15q-11 2 -23 2q-15 0 -32 -3v46q14 2 26 2h9q-12 22 -12 50v241q0 39 2.5 72t13.5 56t33.5 36t63.5 13q24 0 50 -13t38 -44q12 31 37.5 44t49.5 13q40 0 63 -13t34.5 -36t14 -56t2.5 -72v-179h-46v182q0 28 -1 52.5t-7 42t-20 27.5t-40 10z
" />
    <glyph glyph-name="uni10E7" unicode="&#x10e7;" horiz-adv-x="384" 
d="M346 701v-530q0 -38 -9 -70.5t-28 -56t-48.5 -36.5t-69.5 -13t-69 13t-47.5 36.5t-27.5 56t-9 70.5v80h46v-83q0 -57 24.5 -94.5t82.5 -37.5t83.5 37.5t25.5 94.5v226q-37 -61 -107 -61q-41 0 -70 13.5t-48 37t-28 56t-9 70.5v191h46v-194q0 -29 6 -53t19 -41.5t34 -27.5
t50 -10q58 0 82.5 37.5t24.5 94.5v194h46z" />
    <glyph glyph-name="uni10E8" unicode="&#x10e8;" horiz-adv-x="417" 
d="M18 546q0 82 20.5 121t82.5 39q29 0 48.5 -15t29.5 -42q10 27 29.5 42t47.5 15q31 0 51.5 -9.5t31.5 -29t15.5 -50t4.5 -71.5v-375q0 -38 -9 -70.5t-28 -56t-48.5 -36.5t-69.5 -13t-69 13t-47.5 36.5t-27.5 56t-9 70.5v64q0 38 9 70.5t27.5 56t47.5 37t69 13.5
q73 0 109 -61v181q0 27 -0.5 51t-6 42t-17 28.5t-33.5 10.5q-19 0 -29.5 -8.5t-16 -21.5t-7 -28.5t-1.5 -28.5v-81h-46v81q0 13 -1.5 28.5t-7 28.5t-16.5 21.5t-30 8.5q-22 0 -33.5 -10.5t-17 -28.5t-6 -42t-0.5 -51v-61h-46v75zM333 238q0 57 -25.5 94.5t-83.5 37.5
t-82.5 -37.5t-24.5 -94.5v-70q0 -57 24.5 -94.5t82.5 -37.5t83.5 37.5t25.5 94.5v70z" />
    <glyph glyph-name="uni10E9" unicode="&#x10e9;" horiz-adv-x="382" 
d="M192 412q40 0 68.5 -13.5t47.5 -37t28 -56t9 -70.5v-235h-46v238q0 57 -24.5 94.5t-82.5 37.5q-29 0 -50 -10t-34 -27.5t-19 -42t-6 -52.5v-238h-46v529q0 38 9 70.5t28 56t48 37t69 13.5h7q42 0 70.5 -13.5t45.5 -33t24 -42t7 -40.5q0 -23 -6 -46.5t-21 -42.5t-41 -30
q-22 -9 -54 -9h-12l-128 6v-104q37 61 109 61zM83 491h132q28 0 45 8t26.5 20t13 27.5t3.5 30.5q0 22 -9 38.5t-23 27t-32 16t-36 5.5h-12q-57 0 -82.5 -37.5t-25.5 -94.5v-41z" />
    <glyph glyph-name="uni10EA" unicode="&#x10ea;" horiz-adv-x="378" 
d="M340 504q0 -37 -23 -67q-25 -32 -70 -43q55 -20 74 -55.5t19 -87.5v-80q0 -38 -8.5 -70.5t-27 -56t-47 -36.5t-68.5 -13t-68.5 13t-47 36.5t-27 56t-8.5 70.5v530h44v-532q0 -29 5.5 -53t18.5 -42t33 -28t49 -10q58 0 82 38t24 98v80q0 56 -26.5 87.5t-77.5 31.5h-16v42
h18q48 0 75 24.5t27 69.5v13q0 25 -4.5 40t-11.5 24.5t-15 16t-15 15t-12 21t-6 34.5v15q-1 1 -1 3q0 4 1 12h42v-9q0 -7 1 -14q1 -13 3 -19q6 -23 16.5 -34.5l21 -23t18.5 -29t8 -53.5v-15z" />
    <glyph glyph-name="uni10EB" unicode="&#x10eb;" horiz-adv-x="384" 
d="M38 235q0 39 9 71.5t27.5 56t47.5 37t69 13.5q72 0 109 -61v349h46v-530q0 -38 -9 -70.5t-28 -56t-48.5 -36.5t-69.5 -13t-69 13t-47.5 36.5t-27.5 56t-9 70.5v64zM84 168q0 -57 24.5 -94.5t82.5 -37.5t83.5 37.5t25.5 94.5v70q0 58 -25.5 95.5t-83.5 37.5t-82.5 -37.5
t-24.5 -95.5v-70z" />
    <glyph glyph-name="uni10EC" unicode="&#x10ec;" horiz-adv-x="416" 
d="M294 706q31 0 51.5 -9.5t31.5 -29t15.5 -49.5t4.5 -72v-75h-46v61q0 27 -0.5 51t-6 42t-17 28.5t-33.5 10.5q-19 0 -29.5 -8.5t-16 -21.5t-7 -28.5t-1.5 -28.5v-81h-47v81q0 13 -1.5 28.5t-7 28.5t-16 21.5t-29.5 8.5q-22 0 -33.5 -10.5t-17 -28.5t-6 -42t-0.5 -51v-181
q37 61 109 61q40 0 68.5 -13.5t47.5 -37t28 -56t9 -70.5v-58q0 -38 -9 -70.5t-28 -56t-47.5 -37t-68.5 -13.5h-155v546q0 42 4.5 72t15.5 49.5t31 29t52 9.5q29 0 48.5 -15t29.5 -42q9 27 29 42t48 15zM82 42h109q58 0 82.5 37.5t24.5 94.5v64q0 57 -24.5 94.5t-82.5 37.5
q-29 0 -50 -10t-34 -27.5t-19 -42t-6 -52.5v-196z" />
    <glyph glyph-name="uni10ED" unicode="&#x10ed;" horiz-adv-x="377" 
d="M188 706q40 0 68.5 -13.5t47 -37t27 -56t8.5 -70.5v-358q0 -38 -8.5 -70t-27 -55.5t-47 -37t-68.5 -13.5t-68.5 13.5t-47 37t-27 55.5t-8.5 70v80h44v-83q0 -28 5.5 -52t18.5 -41.5t33 -27.5t49 -10t49 10t33 27.5t18.5 41.5t5.5 52v158h-92q-44 0 -71 8.5t-42 22.5
t-20.5 32t-5.5 38q0 19 5.5 37.5t20.5 33t42 23t71 8.5h92v3q0 56 -24 93.5t-81 38.5q-23 0 -39 -4q-7 -2 -15 -2q-11 0 -23 3v42q11 -2 21 -2q8 0 17 2q17 3 39 3zM293 487h-103q-15 0 -30 -2t-27.5 -8.5t-20 -18.5t-7.5 -31q0 -20 7.5 -31.5t20 -17.5t27.5 -8t30 -2h103
v119z" />
    <glyph glyph-name="uni10EE" unicode="&#x10ee;" horiz-adv-x="384" 
d="M300 238q0 58 -24.5 95.5t-82.5 37.5q-29 0 -50 -10t-34 -27.5t-19 -42t-6 -53.5v-70q0 -29 6 -53t19 -41.5t34 -27.5t50 -10q58 0 82.5 37.5t24.5 94.5v70zM346 235v-64q0 -38 -9 -70.5t-28 -56t-47.5 -36.5t-68.5 -13q-41 0 -70 13t-48 36.5t-28 56t-9 70.5v530h46
v-349q37 61 109 61q40 0 68.5 -13.5t47.5 -37t28 -56t9 -71.5z" />
    <glyph glyph-name="uni10EF" unicode="&#x10ef;" horiz-adv-x="378" 
d="M189 413q47 0 76.5 -16.5t46 -41.5t22.5 -53t6 -51v-80q0 -38 -8.5 -70.5t-27 -56t-47 -36.5t-68.5 -13t-68.5 13t-47 36.5t-27 56t-8.5 70.5v80h44v-82q0 -29 5.5 -53t18.5 -42t33 -28t49 -10q58 0 82 38t24 98v80q0 56 -26.5 87.5t-77.5 31.5h-47v162l-102 24v48
l102 -30v126h46v-137l106 -25v-48l-106 30v-108z" />
    <glyph glyph-name="uni10F0" unicode="&#x10f0;" horiz-adv-x="378" 
d="M340 353q0 -19 -8 -34t-20.5 -25.5t-29.5 -16.5t-35 -6q53 -11 73 -43.5t20 -81.5q0 -28 -8.5 -55t-27 -48.5t-47 -34.5t-68.5 -13t-68.5 13t-47 36.5t-27 56t-8.5 70.5v80h44v-82q0 -29 5.5 -53t18.5 -42t33 -28t49 -10t49 10t33 25.5t18.5 35.5t5.5 40t-6.5 39
t-20 33.5t-33 23t-44.5 8.5h-47v43h49q18 0 36 2t33 8t24 17.5t9 31.5q0 19 -7 31t-19 18.5t-26.5 8.5t-29.5 2h-69v42h49q48 0 75 12.5t27 52.5q0 19 -12 31t-29.5 20.5t-39 16t-40 18t-31.5 25.5t-15 40q-1 12 -1 15t1 15h43v-9q0 -7 1 -14q1 -12 4 -19q5 -13 19 -22
t32.5 -16.5l38.5 -15t36.5 -19t27.5 -27.5t11 -40q0 -35 -24 -54.5t-69 -27.5q48 0 70.5 -23t22.5 -61z" />
    </font>
</defs>
</svg>
